/* XPM */
static char *abc[]={
"24 24 4 1",
"# c #000000",
"b c #0000ff",
"a c #ff0000",
". c #ffffff",
"...###########..........",
"..#........###..........",
"..#...aaa..###..........",
"..#..aaaaa.###..........",
"..#..a...a.###..........",
"..#..aaaaa.###..........",
"..#..aaaaa.###..........",
"..#..a...a###########...",
"..#......#........###...",
"..########.bbbb...###...",
".........#.b..bb..###...",
".........#.bbbb...###...",
".........#.b..bb..###...",
".........#.bbbbb..###...",
".........#.bbbb...###...",
"....######........##....",
"...#.....#########......",
"...#.#####..###.........",
"...#.#...#..###.........",
"...#.#......###.........",
"...#.#...#..###.........",
"...#.#####..###.........",
"...#........##..........",
"...##########..........."};
