/* XPM */
static char *ace_in_hole[]={
"24 23 3 1",
"# c #000000",
"a c #ff0000",
". c #ffffff",
"........................",
"........................",
"........................",
"........................",
"............###.........",
"...........##.####......",
"..........##.....##.....",
"..........#...aa..####..",
"..........#..a.a.....##.",
"..........#.a..a......##",
".........#.aaaaa.......#",
".........#aa..aa.......#",
".......###aa...a.......#",
".....####.....aa......##",
"...#####...a..aaa.....##",
"...#####..aaa.........##",
"..######.aaaa.........##",
"..#####.aaaaaa........##",
"...####..aaaaa........##",
"....###..aaaa........###",
".....#####aa........####",
".........############...",
"........................"};
