/* XPM */
static char *alarm[]={
"24 24 3 1",
"# c #000000",
"a c #ff0000",
". c #ffffff",
"........................",
"..#####..######..####...",
".###.###..####..######..",
"####.#..########.###..#.",
"#####.###......##.######",
"####.##....aa...##.#####",
"###.##..#..#a..#.##.####",
"##.##...#..##..#..##.##.",
"..##.#.....##....#.##...",
"..##.#.....##....#..##..",
"..#........##.......#a#.",
"..#.aa.....#####.aa.#a#.",
"..#.aa.....####..aa.#a#.",
"..#.................#a#.",
"..#..#...........#..#a#.",
"..##.#...........#..#a#.",
"..##....#......#...#aa#.",
"...##...#..aa..#..#aaa#.",
"....##.....aa....#aaa#..",
"...#aa###......##aaa#...",
"...##aaaa######aaaa##...",
".########aaaaaaaa######.",
"##..##...########.##..##",
"#####..............#####"};
