/* XPM */
static char *angel[]={
"24 24 4 1",
"a c #000000",
"b c #0000ff",
"# c #ff0000",
". c #ffffff",
"........................",
"#.......................",
".##...................##",
"#.##........a.......##..",
".########..a.a..########",
"...#####..aaaaa.#####...",
".########..aaa..#######.",
"....#####..aaa.#####....",
"a.######.bbbbbb.######..",
"a....##.bbbbbb....##....",
"aa..###.bbbbbb.aaa.##...",
".a.....bbbbbb.aa.aa.....",
".aa..bbbbbbbb.aaa.a.....",
"..a..b.bbbbbb.aaaaa.....",
"..aaabbb.bbbb.aaa.a.....",
"...aabbb.b.bb.aaaaa.....",
"...a.bb..bbbb.aaa.a.....",
".....b...bbbb.aaaaa.....",
".........b.bbb.aaa......",
".........bb.bbb.a.......",
"........bbbbbbbb........",
"........bbbbbbbbb.......",
"........bb.bbbbbb.......",
".......bb.bbbbbbbb......"};
