/* XPM */
static char *arch[]={
"24 24 3 1",
"# c #000000",
"a c #ff0000",
". c #ffffff",
"........................",
"........................",
"........................",
"........................",
"....##############......",
"....#aaaaaaaaaaa#a#.....",
"....#aaaaaaaaaaa#aa#....",
"....#aa#######aa#aa#....",
"....#aa##aaaa#aa#aa#....",
"....#aa#a#aaa#aa#aa#....",
"....#aa#aa####aa#aa#....",
"....#aa#aa#..#aa#aa#....",
"....#aa#aa#..#aa#aa#....",
"....#aa#aa#..#aa#aa#....",
"....#aa#aa#..#aa#aa#....",
"....#aa#aa#..#aa#aa#....",
"....#aa#aa#..#aa#aa#....",
"....#aa#aa#..#aa#aa#....",
"....#aa#aa#..#aa#aa#....",
"....#aa##a#..#aa##a##...",
".######################.",
".#####################..",
"..#####################.",
"....####..########......"};
