/* XPM */
static char *atom[]={
"24 24 4 1",
". c #000000",
"b c #0000ff",
"a c #ff0000",
"# c #ffffff",
"........................",
"........................",
".....###........###.....",
"....##.##......##.##....",
"....#...##....##...#....",
"....#....#...##....#....",
"....##...##.##....#.....",
".....#...#aaa....##.....",
".....##..aa##a...#......",
"......#bbbaa#a####......",
"..#####b##baaa..######..",
".##...b#b#baabbb#....##.",
".#....b#bbb.b####.....#.",
".##....b#baabbb#b....##.",
"..######.#aabb########..",
"......############......",
".....##..aa###..##......",
".....#....a###...##.....",
".....#....##.##...#.....",
"....##....#...#....#....",
"....#....##...##...#....",
"....##..##.....##.##....",
".....###........###.....",
"........................"};
