/* XPM */
static char *balloon2[]={
"24 24 4 1",
". c #000000",
"b c #0000ff",
"a c #ff0000",
"# c #ffffff",
"........................",
".######################.",
".#############....#####.",
".############.aaab..###.",
".###########.bbaaabb.##.",
".##########.abbbaaabb.#.",
".##########.aabbbaaab.#.",
".##########.aaabbbaaa.#.",
".##########.baaabbbaa.#.",
".##########.bbaaabbba.#.",
".##########.bbbaaabbb.#.",
".###########.bbbaaab.##.",
".############.bbbaa.###.",
".#############.....####.",
".##############.#.#####.",
".##############.#.#####.",
".#############.....####.",
".#############.###.####.",
".#############..#..####.",
".##############...#####.",
".##################.###.",
".....#.##...#.#......##.",
"........................",
"........................"};
