/* XPM */
static char *biplane[]={
"24 24 3 1",
"# c #000000",
"a c #ff0000",
". c #ffffff",
"..............#####.....",
".............##....###..",
"............#.#......#..",
"............#.#.aaaa.#..",
"............#.#.a..a.#..",
"............#.#.a..a.#..",
"............#.#.aaaa.#..",
"............#.#......#..",
"##..........#.#......#..",
"aa##...######....#...#.#",
"aaaa###aaaa###..####.#a#",
"###.......##..#..#...###",
"aaaa###aaaa###..####.#a#",
"aa##...######....#...#.#",
"##..........#.#......#..",
"............#.#......#..",
"............#.#.aaaa.#..",
"............#.#.a..a.#..",
"............#.#.a..a.#..",
"............#.#.aaaa.#..",
"............#.#......#..",
".............##....###..",
"..............#####.....",
"........................"};
