/* XPM */
static char *bomb[]={
"24 24 3 1",
"a c #000000",
"# c #ff0000",
". c #ffffff",
".......#...#...#........",
"........##.#.##.........",
".........#.###..........",
".......##..##...........",
".....###.####...........",
"........##...#..........",
".......#....##..........",
"...........aaa..........",
"...........aaa..........",
"..........aaaaa.........",
"........aaaaaaaaa.......",
".......aaaaaa..aaa......",
"......aaaaaaaa...aa.....",
"......aaaaaaaaaa..a.....",
".....aaaaaaaaaaaa.aa....",
".....aaaaaaaaaaaaaaa....",
".....aaaaaaaaaaaaaaa....",
".....aaaaaaaaaaaaaaa....",
".....aaaaaaaaaaaaaaa....",
"......aaaaaaaaaaaaa.....",
"......aaaaaaaaaaaaa.....",
".......aa.aaaaaaaa......",
"........aaaaaaaaa.......",
"..........aaaaa........."};
