/* XPM */
static char *book2[]={
"24 24 3 1",
". c #000000",
"a c #ff0000",
"# c #ffffff",
".....................###",
"...................#.###",
"...################..###",
".##.....................",
"...###.aaaaaaaaaaaaaaaa.",
".aa....a#####aaaa#####a.",
".aaaaa.a#aaaa####aaaa#a.",
".a.aaa.a#aaaaaaaaaaaa#a.",
".aa..a.a#a#aaaaaaaa#a#a.",
".aaaaa.a#aa##aaaa##aa#a.",
"...aaa.a#aa##aaaa##aa#a.",
".##....a#aaaa#aa#aaaa#a.",
"...###.aa#aaaa##aaaa#aa.",
".aa....aa#a########a#aa.",
".aaaaa.aa#aaaa##aaaa#aa.",
"...aaa.a#aaaa#aa#aaaa#a.",
".##....a#aa##aaaa##aa#a.",
"...###.a#aa##aaaa##aa#a.",
".aa....a#a#aaaaaaaa#a#a.",
".aaaaa.a#aaaaaaaaaaaa#a.",
"...aaa.a#aaaa####aaaa#a.",
".##....a#####aaaa#####a.",
"...###.aaaaaaaaaaaaaaaa.",
"###....................."};
