/* XPM */
static char *bow[]={
"24 24 4 1",
"a c #000000",
". c #0000ff",
"b c #ff0000",
"# c #ffffff",
"...#.#.......#..........",
".......#........#....#..",
".##......#..#......##a#.",
"#aa##...#.........#aaba#",
"abbaa##....#..#..#abbbaa",
"abbbbaa#........#abbbbba",
"abbbbbba#..###.#abbbbba#",
"#abbaaaaa##aaa#aaabbbba#",
"#abbbbbaaaabbaaababbbba#",
"#abbbbbbaaabbaabbbbbbab#",
".#abbaaaaaabbbaaaabbba#.",
"..#abbbbbaabbaabbbbaa#..",
"..#aaabaaaaaaaaaaaaaa#..",
"#..######ababbabbba###..",
".......#aabaaabaabbbbb##",
"..#...#abba##abbbaabbbbb",
"...#.#abbba#.#abbba####b",
".....#abbba#.#abbbba#..#",
"....#abbbba#..#abbbba#..",
"#...#abbbaa#...#abbba#..",
".#.#abbaaa#.....#abbba#.",
"...#abba##......#abbaa#.",
"...#aaa#.....#..#aaaa#..",
"...#aa#..........##a#..."};
