/* XPM */
static char *bridge[]={
"24 24 3 1",
"# c #000000",
"a c #ff0000",
". c #ffffff",
"........................",
"........................",
"........................",
"........................",
"........................",
".....##..........##.....",
"....#aa#........#aa#....",
"...##aa##......##aa##...",
"..#.#aa#.#....#.#aa#.#..",
".#a.#aa#.a#..#a.#aa#.a#.",
"#.a.#aa#.a.##.a.#aa#.a.#",
"a#a.#aa#.a#aa#a.#aa#.a#a",
"a.#.#aa#.#.aa.#.#aa#.#.a",
"a.a##aa##a.aa.a##aa##a.a",
"########################",
"aaaaaaaaaaaaaaaaaaaaaaaa",
"########################",
"....#a#..........#a#....",
"....#a#..........#a#....",
"....#a#..........#a#....",
"....#a#..........#a#....",
"....###..........###....",
"........................",
"........................"};
