/* XPM */
static char *girl_brunette[]={
"24 24 3 1",
"# c #000000",
"a c #ff0000",
". c #ffffff",
"........................",
"..........###...........",
"........#######.........",
".......#######.#........",
"......#######.###.......",
"......#########.#.......",
".....##.....######......",
".....###..##.#####......",
".....##.#.....####......",
".....##.##....####......",
".....##......######.....",
".....##.aa...######.....",
"....###......######.....",
"....####.....#######....",
"....##a###...#######....",
"...##a####...#######....",
"...#######...########...",
"...######....#########..",
"..#a###aa#...#########..",
"..####aaa##.##########..",
"..##aaaaaaaa##########..",
"...aaaaa#aaa##########..",
"........#aaaaa..........",
"........................"};
