/* XPM */
static char *bug_face[]={
"24 24 3 1",
"# c #000000",
"a c #00ff00",
". c #ffffff",
"...####.................",
"..##...#........####....",
"........#......#...##...",
"........#.....#.........",
"...###..#.###.#..###....",
"..#aaa#.#######.#aaa#...",
".#a##.a#########a##.a#..",
".#a#..a#########a#..a#..",
".#a##.a###...###a##.a#..",
".#a###a##.##..##a###a#..",
"..#aaa###.###.###aaa#...",
"...######.###.######....",
"..########...########...",
"..###################...",
".#####################..",
".#####################..",
"..####...........####...",
"...####.........####....",
"....####.......####.....",
".....#############......",
"......###########.......",
".......#########........",
"........#######.........",
".........#####.........."};
