/* XPM */
static char *bulldozer[]={
"24 24 4 1",
"# c #000000",
"b c #0000ff",
"a c #ff0000",
". c #ffffff",
"........................",
"........................",
"........................",
"........................",
"............##########..",
"............#aaaaaaaa#..",
".............########...",
".............#.bb#..#...",
"......##.....#.bb#..#...",
".......#.....#..#...#...",
".......#.....#bbb#..#...",
"......########.bb#.###..",
"##....#b.b.b.######...#.",
"#a#...#b.b.b.#aaaa#...#.",
".###.################.#.",
"..####################..",
"..#a.aaaaaaaaaaaaa#..##.",
"..################...##.",
".###.##..............##.",
"#a#...################..",
"##.....##############...",
"........................",
"........................",
"........................"};
