/* XPM */
static char *calvin[]={
"24 24 4 1",
"# c #000000",
"a c #00ff00",
"b c #ff0000",
". c #ffffff",
".....#a#...##...........",
"....#.#a#.#a#..##.......",
".....#aa###a##.#a#..##..",
"....#a#aaa#aaa##a####.#.",
"....#aaa######aaa#aa###.",
".....###......#a##aaa#.#",
".....#.........##aaa#.##",
"....#............#aa###.",
"....#..#....#....#aaaaa#",
"....#............##aa##.",
"...##..####........#aaa#",
"...#...#............###.",
"...#...###............#.",
"...#..................#.",
"...#..############..###.",
"...##..###bb#####...#...",
"....##...##bb##....##...",
".....###..####....##....",
".......##.......###.....",
".....###bbbbbbbbb###....",
"....##.###########.##...",
"....#..#bbbbbbbbb#..#...",
"....##.###########.##...",
".....###bbbbbbbbb###...."};
