/* XPM */
static char *candle[]={
"24 24 4 1",
"a c #000000",
"b c #0000ff",
"# c #ff0000",
". c #ffffff",
"..........####..........",
".......######...........",
"......#####.............",
"......####..............",
"......#.#......aaaaaa...",
".....a.......aa......aa.",
"...bbab......a........a.",
"...bbbbb......aaaaaaaa..",
"....bbbab.....a......a..",
"....bbbab.....a......a..",
"....bbbab......a####a...",
"....bbab.......a####a...",
"....bbab........a##a....",
"....bbab........aaaa....",
"....bbab.........aa.....",
"....bbab.........aa.....",
"....bbbab........aa.....",
"....bbabb........aa.....",
"....bbabb........aa.....",
"....bbabb........aa.....",
"....bbabb........aa.....",
"...bbbaabb.......aa.....",
"..bbbbbabbb.b...aaaa....",
".bbbbbbaaabbbbaaaaaaaa.."};
