/* XPM */
static char *cards[]={
"24 24 3 1",
". c #000000",
"a c #ff0000",
"# c #ffffff",
".............###########",
".###########.###########",
".#a#a#######.###########",
".#aaa#.............#####",
".###a#.###########.#####",
".#####.###a.............",
".####a.###a.###########.",
".###aa.#a#a.#...#######.",
".####a.#aaa.#.#.#######.",
".#####.####.#...#######.",
".####a.#..#.#.#.#######.",
".###aa.#a...#####.#####.",
".####a.#a.a.####...####.",
".#####.#a.a.###.....###.",
".#####.#a...###.....###.",
".#####.##.a.#####.#####.",
".#####.##.a.###.....###.",
".#####.###..###########.",
".......####.#######.#.#.",
"######.####.#######...#.",
"######.####.#######.#.#.",
"######......#######...#.",
"###########.###########.",
"###########............."};
