/* XPM */
static char *card_king[]={
"24 24 3 1",
". c #000000",
"# c #ff0000",
"a c #ffffff",
"........................",
"####a#a###a###.aaaaaaaaa",
"aaaaa#a##a###.aaaaaaaaaa",
"######aaa##..aaaaaaaaaaa",
".....#####..aaa###aaa###",
"..........aaaa#####a####",
".#.aaaaaa.aaaa##########",
"#.aaa..aa.aaaaa#########",
"#.aa....a..aaaaa#######a",
"#.aaaaaaaa..aaaaa#####aa",
"#.aa.aaaaaa.aaaaaa###aaa",
".aa.aa..a...aaaaaaa#aaaa",
".aa.a.a...aaaaaaaaaaaaaa",
"aaaa..aaa.aaaaaaaa..a...",
"aaaaaaa...aaaaaa..##..##",
".aaaaaaaa..aaaa..#.....#",
"#.aaaaaa..#.aaaa...aaaa.",
".........##..aaaaaaa...a",
"######......#.aaaaa.aaa.",
"......a.##.......aa.aaa.",
"aaaaaaa..#.....a....a..a",
"..a##a.##....aaa..#aaaa.",
".aa##a##..aaaa...#..a...",
".#a##a...aaa..a..##..aa."};
