/* XPM */
static char *cateyes[]={
"24 24 3 1",
". c #000000",
"a c #00ff00",
"# c #ffffff",
"........................",
"........................",
"........................",
"........................",
"........................",
"..###a...........a##....",
"...##a.a.......a.a##....",
"....#aaa#.....#aaa##....",
".....####.....#####.....",
".........#...#..........",
"........................",
"........................",
"........................",
"....#####.##.#########..",
"####...##.....##........",
".....##.........##......",
"..###..#......#...###...",
".#....#........#........",
"....##..........#.......",
"...#.............#......",
"..#..............#......",
"..................#.....",
"........................",
"........................"};
