/* XPM */
static char *chest[]={
"24 24 3 1",
"# c #000000",
"a c #ff0000",
". c #ffffff",
".....###############....",
"....##...##...##..#.#...",
"...##.....##...##..#.#..",
"..##...#...##...##.##a#.",
".##...#.#...##...#aa#.##",
"##aa.#.#.#.aa##aa#..#..#",
"#aaa.#.#.#.aaa#a.#..####",
"#a....#.#....a#..#..##.#",
"#a.....#.....a#..####..#",
"#aaaaaaaaaaaaa####..#a.#",
"################.#.a#a.#",
"##...........##..#a##a.#",
"#.aaaaaaaaaaa.#.a##.#a.#",
"#.aa.......aa.#.a#..#a.#",
"#.a##.....##a.#.a#.##.##",
"#.a#.#####.#a.#.a##a###.",
"#.a#.#####.#a.#.a#a.##..",
"#.a##.....##a.#.a#.##...",
"#.a.........a.#..###....",
"#.aa.......aa.#..##.....",
"#.aaaaaaaaaaa.#.##......",
"##...........####.......",
"################........",
"........................"};
