/* XPM */
static char *chickenhawk[]={
"24 24 3 1",
"# c #000000",
"a c #ff0000",
". c #ffffff",
"......##.####...........",
".....##a#.aa##..........",
"....##aa###a#a#.........",
"....#aaaaaaaaa#.........",
"....#aaaa####aa#........",
"....#aaa#aaaa#a#........",
".....#a#aaaaaa##........",
".....###aaaaaaa#........",
".....#a#aaaa#aaa#.......",
"....#a#.#aa#.#aa#.......",
"....#a...#a...#a#.......",
"....#a.#.#a.#.#aa#......",
"..######.#a.#.####......",
".#aa##..######aaaa#.....",
".#aa#......#aaaaaaa#....",
".#aaa#.##..##aaaaaa#....",
".#aaaa######a#aaaaa#....",
"..#aaaa#aa##aaaaaaa#....",
"...#aa#.##.#aaaaa##.....",
"..###aa#...#aaa##.......",
".#aaaaaa###aaa#######...",
"#aaaaa#aaaaa#aaaaaaaa##.",
"#aaaaaa#####aaaaaaaaaaa#",
"########################"};
