/* XPM */
static char *compass[]={
"24 24 4 1",
"# c #000000",
"a c #0000ff",
"b c #ff0000",
". c #ffffff",
"...........#............",
"...........#............",
"..........##a...........",
"..........##a...........",
".........###aa..........",
".........###aa..........",
".........###aa..........",
".........###aa..........",
".......##########.......",
".......#bb###bbb#.......",
"....aaaa#bb#a#b#####....",
"..aaaaaa#bbb##b#######..",
"#########b#bb#b#########",
"..#######b##bbb#aaaaaa..",
"....#####b###bb#aaaa....",
".......#bbb###bb#.......",
".......##########.......",
".........aa###..........",
".........aa###..........",
".........aa###..........",
"..........a##...........",
"..........a##...........",
"...........#............",
"...........#............"};
