/* XPM */
static char *crown[]={
"24 24 3 1",
"# c #000000",
"a c #ff0000",
". c #ffffff",
"...........##...........",
"..........#..#..........",
"...........##...........",
"........................",
"...........##...........",
"...........##...........",
"...###............###...",
"..#aaa###..##..###aaa#..",
".#aaaaaaa##..##aaaaaaa#.",
"#aaaaaaaaaa##aaaaaaaaaa#",
"#aaaaaaaaa#..#aaaaaaaaa#",
"#aa.#aaaaa.##.aaaaa#.aa#",
".#aa.##aaa.##.aaa##.aa#.",
".#aaa.##aaa..aaa##.aaa#.",
"..#aa####a.##.a####aa#..",
"..#aaa.#.a.##.a.#.aaa#..",
"...#aaa#aa#..#aa#aaa#...",
"....################....",
"...#................#...",
"....#######aa#######....",
"...#......aaaa......#...",
"....#######aa#######....",
"...#................#...",
"..####################.."};
