/* XPM */
static char *cup[]={
"24 24 3 1",
"# c #000000",
"a c #0000ff",
". c #ffffff",
"........#...#...........",
"........###..#..........",
"..........#..#..........",
"..........#..#..........",
".........#..#...........",
".........#..#...........",
"......aaa.aa#aa.........",
".....aa##aa#.#aa........",
"....aa#..#..#.##a.......",
"....aa...#......aaaa....",
"....aaa.......aaaaaaa...",
"....aaaaaaaaaaaaa##aaa..",
"....aaaaaaaaaaaa#..#aa..",
"....aaaaaaaaaaaa#..#aa..",
"....aaaaaaaaaaaa#..#aa..",
"....aaaaaaaaaaaa#..#aa..",
"....aaaaaaaaaaaa#..#aa..",
"....aaaaaaaaaaaa#aaaaa..",
"....aaaaaaaaaaaaaaaa#...",
"....aaaaaaaaaaaaa###....",
"....aaaaaaaaaaaa#.......",
"....#aaaaaaaaaaa#.......",
".....#aaaaaaaaa#........",
"......#########........."};
