/* XPM */
static char *cup2[]={
"24 24 4 1",
"# c #000000",
"b c #00ff00",
"a c #ff0000",
". c #ffffff",
"........................",
"........................",
".........#####..........",
"......####...####.......",
".....##.........##......",
"....#.............#.....",
"....###.........###.....",
"....#.####...####.#.....",
"....#....#####....####..",
"....#.............#..##.",
"....#....aaaaa....##..#.",
"....#bbbabbbaaaabb#.#.#.",
"....#bbabbbbabbabb#.#.#.",
"....#bbaaabaabaabb#.#.#.",
"....#bbbbbbaaaabbb#.#.#.",
"....#bbbbbbaabbbbb##..#.",
"....#bbbabababbabb#..##.",
"....##bbaaabbaabb#####..",
"....####bbbbbbbb###.....",
"....#...########..#.....",
"....##...........##.....",
".....###.......###......",
".......#########........",
"........................"};
