/* XPM */
static char *dice[]={
"24 24 4 1",
"# c #000000",
"b c #0000ff",
"a c #ff0000",
". c #ffffff",
"........................",
"...............###......",
"..............#aaa##....",
".............#aaaaaa##..",
"............#a.aaa.aaa##",
"...........#a...a...aa##",
"......###.##aa.aaa.aa#a#",
"...###bbb##a##aaaaaa#aa#",
"###bbbbbbb#aaa##aaa#aaa#",
"##bb..bb..b#..aa###aaaa#",
"#b#b..bb..bb#.aaaa#aaaa#",
"#bb#bbbbbbb###a..a#a..a#",
"#bbb#bbb###bb#a..a#a..a#",
"#bbbb###bbbbb#aaaa#aaaa#",
"#bbbb#bbbbbbb#a..a#aaa#.",
"#b..b#b.bbbbb#a..a#aa#..",
"#b..b#bbb.bbb##aaa#a#...",
"#bbbb#bbbbb.b#.##a##....",
".#bbb#bbbbbbb#...##.....",
"..#bb#bbbbb###..........",
"...#b#bbb##.............",
"....##b##...............",
".....##.................",
"........................"};
