/* XPM */
static char *directors_chair[]={
"24 24 4 1",
". c #000000",
"a c #0000ff",
"b c #ff0000",
"# c #ffffff",
"...##########...########",
"aaaaaaaaaaaaaaaa########",
".a.aaaaaaaaaa.a.########",
".aaaaaaaaaaaaaa.########",
".a.aaaaaaaaaa.a.########",
".#.##########.#.########",
".........####.#.########",
".#######.####.......####",
"........#####.#####.####",
".#.##.#.#####.......####",
".#.##.#.#####.#..#.#####",
".#.aa.#.aaaaaaaa.#.#####",
"...aa.#.aaaaaaaaa#..####",
"#...a...aaaaaaaaaaaa####",
"###.....aaaaaaaaaaaaa###",
"####..#....###..########",
"#####..#..###..#####b###",
"######........#####bbb##",
"######...#...#####b#bb##",
"#####.........####b#.bb#",
"####..###..##..####.b#b#",
"###..###....##..###.b#b#",
"##..###..##..##..#.bbbbb",
"######..########........"};
