/* XPM */
static char *dog3[]={
"24 24 3 1",
"# c #000000",
"a c #ff0000",
". c #ffffff",
"........................",
"............###.........",
"...........##aa###......",
"....##.....#aaaaa###....",
"...#aa#...#aaaaaaaa##...",
"...#aa##..#aaa#aaaa#....",
"..#aaaa#####aa###a#.....",
".#aaa##a###aaaaa##......",
".#aa#.#aa#.#aaaaa##.....",
"..###.###..####aaaa#....",
".......#.##.#.##aaa#....",
"####.####..##..#aa###...",
"#aa###.........##aa#....",
"##aa#...........#a###...",
"#.#.............#a#.#...",
"#...............#a#.....",
"..........##..#######...",
"...##....##a###aaa##....",
"##..#...##aa#a#aaaa##...",
".########aa.#aaaaaaa#...",
".....##aaa.#aaaaaaaa##..",
"....##aa#.##aaa#aaaaa#..",
"....#aa####aaa##aaaaaa#.",
"....####aaaaaaa##aaaaa##"};
