/* XPM */
static char *door_open[]={
"24 24 4 1",
"# c #000000",
"b c #00ff00",
"a c #ff0000",
". c #ffffff",
"..........###########...",
".........#a#..bb.bb.#...",
"........#aa#b.bbbb#.#...",
".......#aaa#bbbbb#bb#...",
"......#aa#a#.bb#bb#b#...",
".....#aa##a#bb#b.#bb#...",
"....#aa#a#a#.b.bbb#b#...",
"....#a#aa#a#.bbb##bb#...",
"....#a#aa#a#...b##b.#...",
"....#a#aa#a#....##..#...",
"....#a#a#aa#....##..#...",
"....#a##aaa#....##..#...",
"....#a#aa#a#....##..#...",
"....#aaa##a#....##..#...",
"....#aa#a#a#....##..#...",
"....#a#aa#a#...###..#...",
"....#a#aa#a#..bb###b#...",
"....#a#a#aa#bbbbbbbb#...",
"#####a##aa##############",
"a..a#a#aa#.aa..aa..aa..a",
"a..a#aaa#..aa..aa..aa..a",
".aa.#aa#.aa..aa..aa..aa.",
".aa.#a#..aa..aa..aa..aa.",
"a..a##.aa..aa..aa..aa..a"};
