/* XPM */
static char *dragon[]={
"24 24 4 1",
"# c #000000",
"a c #00ff00",
"b c #ff0000",
". c #ffffff",
"..........##............",
"...........a#.###.......",
"..........####aa#.......",
".###....##aaaaa##...###.",
".#aa##..#.#aaa#..###aa#.",
".#aaaa##a##aaa#.#aaaaaa#",
"..#aaaaaaa#aaaa#aaaa####",
"b..####aaaaaaa#aaaaa#..#",
".bbbbb.##aaaa##aaaa#....",
".........#aa#.#aaaa#....",
".#.###..#aa#..#aa##.....",
".##...##aaa#.#aa#.......",
".###...###aa##a#.#####..",
"......#aa##aa####aa##a#.",
".###.#aaaa##aaaaaaaaaaa#",
"###a#aaaaaa##aaaaaaaaaa#",
"#.###aaaaaa#a##aaaaaaaa#",
"#.#.#aaaaaaa#aa####aaa#.",
"#...#aaaaaaaa#aaaaa####.",
"...###aaaaaaaa##aaaaaaa#",
"..#aaaaaaa#a##aa##aaaaa#",
".#aaa#aaa#a#aaaaaa##aa#.",
".#a#a##aa#a#a#aaaaaa###.",
"#####..###.##.########.."};
