/* XPM */
static char *dwarf[]={
"24 24 4 1",
"# c #000000",
"b c #0000ff",
"a c #ff0000",
". c #ffffff",
"........................",
".....##.................",
"....##..................",
"....##..................",
"...###..................",
"...###...#....##....#...",
"...###...#...####...#...",
"...#####.############...",
"...#####..##########....",
"...#####....#....#......",
"....##.#....#.aa.#......",
".....#.#....#a##a#......",
".......#bbbb.aaaa.bb....",
"......#.bbbbb.aa.bbbb...",
"......##bbbbbb..bbbbb...",
".......#...bbbbbbbbbbb..",
".......#....bbbbbb.bbb..",
".......#....#....#..#.#.",
".......#...#..##..#.##..",
".......#...#..##..#.....",
".......#...########.....",
".......#..#..#..#..#....",
"..........###....###....",
"........................"};
