/* XPM */
static char *dynamite[]={
"24 24 3 1",
"a c #000000",
"# c #ff0000",
". c #ffffff",
".......#................",
".......#................",
".....#.#.#..............",
"......#.#...............",
"...###.#.###............",
"......a.#...............",
".....a.#.#..............",
"....aa.#................",
"....a..#................",
"...aa...................",
"..aa....................",
"..a.....................",
"..a.....................",
"..aaaaaaaaaaaaaaaaaaa...",
"..a.a##a..a####a..a##a..",
".aaaaaaaaaaaaaaaaaaaaaa.",
".a.a.a##a..a####a..a##a.",
".aaaaaaaaaaaaaaaaaaaaaa.",
"..a.a##a..a####a..a##a..",
"...aaaaaaaaaaaaaaaaaa...",
"........................",
"........................",
"........................",
"........................"};
