/* XPM */
static char *eye[]={
"24 24 3 1",
"# c #000000",
"a c #0000ff",
". c #ffffff",
"....#####...............",
".############...........",
"#################.......",
"........##########......",
"............########....",
"...............#######..",
".................######.",
"..................######",
"#####..#.............###",
"##.######..............#",
"#.......................",
"########.#..............",
"############............",
"##############..........",
"###########.####........",
"############...###......",
"#####a########...##.....",
"##a#a#####a####...##....",
"##a#aa###aaa..###..#....",
".##aaaaaaaa...####..#...",
"...###aaaa......###.....",
".....####.......#.#.....",
".........######...#.....",
"........................"};
