/* XPM */
static char *eye4[]={
"24 24 3 1",
"# c #000000",
"a c #0000ff",
". c #ffffff",
"........................",
"........................",
"........................",
".......##....##.........",
"....##############......",
"..###################...",
"...######.####..#######.",
"..###.............#.##..",
".##.....###..........##.",
"......########..........",
".......##.aa###.#.......",
"......##.#a#.a.###......",
".....##..#aaaa..###.....",
".......#..###..##.......",
"........##..............",
".....##.................",
"......######.#..........",
"........................",
"........................",
"........................",
"........................",
"........................",
"........................",
"........................"};
