/* XPM */
static char *face_graduate[]={
"24 23 3 1",
"# c #000000",
"a c #00ff00",
". c #ffffff",
".....................###",
"..................#####.",
"................#####...",
".............#####......",
".........#######........",
".......###########......",
"....###############.....",
".#####..############....",
".####..########aaaaa#...",
"...##..#####aaaaaaaaa#..",
"...##..###aaaaaaaaaaaa#.",
"...##..##aaaaaaaaaaaaaa#",
"...##..#aaaa##aaa##aaaa#",
".......#aaaa##aaa##aaaa#",
".......#aaaaaaaaaaaaaaa#",
".......#aaaaaaaaaaaaaaa#",
".......#aa#aaaaaaaaa#aa#",
"........#aa#aaaaaaa#aa#.",
"........#aaa#aaaaa#aaa#.",
".........#aaa#####aaa#..",
"..........#aaaaaaaaa#...",
"...........#aaaaaaa#....",
"............#######....."};
