/* XPM */
static char *flower[]={
"24 24 4 1",
"# c #000000",
"a c #00ff00",
"b c #ff0000",
". c #ffffff",
".....................##a",
"...................##aaa",
"............b.....#aa##a",
"...........bbb..##aa##aa",
"..........bbbbb#aaa#aaa#",
".....bbb..bbbbb##aaaaaa#",
"....bbbbb.bbbb...##aa##.",
"....bbbbbbbbbbbbbb.##...",
"....bbbbbbb#bbbbbbb.....",
".....bbbbb###bbbbbb.....",
".......bb####bbbbbb.....",
".....bbbbb###bbbbb......",
"....bbbbbbbbbbbbb####...",
"....bbbbbbbbbbbb.#aaa#..",
"....bbbbbbb.bbbbb.#aaa#.",
".....bbbbb..bbbbb.#a#aa#",
"......bbb.#.bbbbb.#a#aa#",
".........#a#.bbb..#a#aa#",
"........#a#a#.....#a#aa#",
".......#aa#a#.....#a#aa#",
"......#aa#aa#.....#aa#a#",
"......#aa#aa#......#a#a#",
"......#aa#a#.......#aaa#",
".......#aaa#........##aa"};
