/* XPM */
static char *gnome[]={
"24 24 4 1",
"a c #000000",
"b c #0000ff",
"# c #ff0000",
". c #ffffff",
"........................",
".............####.......",
"............##...#......",
"...........####.........",
"..........######........",
".a.aaaa..########.......",
"..aaa.....b....b........",
".aaaa....b.a.a..b.......",
".aaaaa..bb......bb......",
".a...aa.bbb....bbbb.....",
".a....aabbbbbbbbbbbb....",
"......baabbbbbbbbbbb....",
"......bbaabbbbbbbbbbb...",
"......bbbaabbbbbbbbbb...",
"......bbbbaa..bbbbbb....",
"......bbb..a.bbbbbb.....",
".......b....bbbbbbb.....",
"........bbbbbbbbbb......",
"..........bbbbbbb.......",
"...........bb..aa.......",
"...........aa..aaaa.....",
".........aaaa..aaaaa....",
"........aaaaa...........",
"........................"};
