/* XPM */
static char *greetings[]={
"24 24 3 1",
"# c #000000",
"a c #0000ff",
". c #ffffff",
"........................",
"........................",
"..............######....",
".............########...",
".............#..######..",
".............#..######..",
".............##..#.###..",
"............#......###..",
"............##....###...",
".............##...##....",
".............#...##.a...",
".............#####.aaa..",
"................#.aa#aa.",
"...............a.aaaa#a.",
"..............aaaaaaa#aa",
"..............aaaaaaa#aa",
".............aaaa#aaa#aa",
"...###.......aaaaaaaa#aa",
"####.##aaaaa.aaaa#aaa#aa",
"#.....#aaaaa.aaaaaaaa#aa",
".#....#aaaaa.aaaa#aaa#aa",
"..####aaaaaa.aaaaaaaa#aa",
"......aaaaaa.aaaa#aaa#aa",
".............aaaaaaaa#aa"};
