/* XPM */
static char *guard[]={
"24 24 3 1",
"# c #000000",
"a c #ff0000",
". c #ffffff",
"...#..#.................",
"..###.#..#..............",
".########..#............",
".#######..###...........",
"..###.#..##.##..........",
"...#..#...#.#..#####....",
"......#..a###a##...##...",
"......#.#aaaaa#.....#...",
"......###aa.aa#..a..#...",
".....####a...a#.aaa.#...",
".....####aa.aa#..a..#...",
".....##.#aa.aa#..a..#...",
".....##.#aa.aa#..a..#...",
"......###aaaaa#..a..#...",
"......#.#aaaaa#..a..#...",
"......#.#aaaaa##.a.##...",
"......#..#####.#...#....",
"......#..##.##.##.##....",
"......#..##.##..###.....",
"......#..##.##...#......",
"......#..##.##..........",
"......#..##.##..........",
"......#.###.###.........",
"......#####.####........"};
