/* XPM */
static char *gumby[]={
"24 24 3 1",
"# c #000000",
"a c #00ff00",
". c #ffffff",
"........................",
"...........############.",
"...........#aaaaaaaa#a#.",
"...####...#aaaaaaaaa#a#.",
"..#aaa#...#aa#aa#aa#aa#.",
"..#aaa#..##aaaaaaaa#aa#.",
"..#aaa#..#aaa#aa#aa#a#..",
"..#aaa####aaaa##aa#a###.",
"...#aaaaaaaaaaaaaaaaaaa#",
"....#aaaaaaaaaaaaaaaaaaa",
".....#####aaaaa######aaa",
"........#aaaaaa#a#..#aaa",
".......#aaaaaaa#a#..#aaa",
"......#aaaaaaaa#a#...###",
"......#aaaaaaaa#a#......",
".....#aaaa#aaaa#a#......",
".....#aaaa#aaaa#a#......",
"....#aaaaa#aaaa#a#......",
"...#aaaaa##aaaa#aa#.....",
"..#aaaaaa##aaaaa#aa#....",
".#aa###aa##a###aa#a#....",
".#aaaaaa#a#aaaaaa#a#....",
".#aaaaaa#a#aaaaaa#a#....",
".###################...."};
