/* XPM */
static char *hourglass[]={
"24 24 3 1",
". c #000000",
"a c #0000ff",
"# c #ffffff",
"........................",
"........................",
"#..##.############.##..#",
"#..#..############..#..#",
"#..#.##############.#..#",
"#..#.###a######a###.#..#",
"#..#..#aaa####aa##..#..#",
"#..##.aaaaaa#aaaaa.##..#",
"#..###.aaaaaaaaaa.###..#",
"#..####..aaaaaa..####..#",
"#..######..aa..######..#",
"#..########..########..#",
"#..########..########..#",
"#..######..##..######..#",
"#..#####..##a#..#####..#",
"#..####..######..####..#",
"#..###..###a####..###..#",
"#..##..####aa####..##..#",
"#..#..####aaaa####..#..#",
"#..#.#a#aaaaaaaa#a#.#..#",
"#..#.aaaaaaaaaaaaaa.#..#",
"#..##.aaaaaaaaaaaa.##..#",
"........................",
"........................"};
