/* XPM */
static char *image[]={
"24 24 3 1",
"# c #000000",
"a c #0000ff",
". c #ffffff",
"...........###..........",
".......##########.......",
"########........########",
"#aaaaaa#.########aaaaaa#",
"#a####.##########.####a#",
"#a##.#............#.##a#",
"#a#.#..#...........#.#a#",
"#a##....#....a......##a#",
"#a#....##...aaa......#a#",
"#a#....#...aaaaa.....#a#",
"#a#.......a.a.a.aaa..#a#",
"#a#...aaa.aaaaaaa.a..#a#",
"#a#....aaaaaaaaaa.a..#a#",
"#a#.....aaaaaaaaa.a..#a#",
"#a#......aaaaaaaaa...#a#",
"#a#.......aaaaaaa....#a#",
"#a#........aaaaa.....#a#",
"#a#..................#a#",
"#a#..................#a#",
"#a####################a#",
"#aaaaaaaaaaaaaaaaaaaaaa#",
"########################",
"...###################..",
"..#####################."};
