/* XPM */
static char *key[]={
"24 24 3 1",
"# c #000000",
"a c #00ff00",
". c #ffffff",
"........................",
"........................",
"................#####...",
"...............#aaaaa#..",
"..............#aaaaaaa#.",
"...........#.#aaaaaaaa#.",
".##########a#aaaaaaa#aa#",
"#aaaaaaaaaaaaaaaaaa#.#a#",
".#aaaaaaaaaaaaaaaaa#.#a#",
"..###########aaaaaaa#aa#",
"...#a##aa#a#.#aaaaaaaa#.",
"....#..##.#...#aaaaaaa#.",
"...............#aaaaa#..",
"...........#..#########.",
"...#################.###",
".##################...##",
"###################...##",
".###################.###",
"...#...##.##..##########",
"...............########.",
"................######..",
".................####...",
"........................",
"........................"};
