/* XPM */
static char *knight[]={
"24 24 4 1",
"# c #000000",
"a c #0000ff",
"b c #ff0000",
". c #ffffff",
"...#....................",
"...#.....####...........",
"..###...######..........",
"..###...#....#..........",
"...#....######..........",
"...#.....#..#...........",
"...#..###....###........",
"...#.#aa######aa######..",
"...#.#aaa####aa##bbbb##.",
"...#.##aa####aa#b.bbbb#.",
"...#####aaaaaa##b..bbb#.",
"...###..#aaaa#.#bb..bb#.",
"..###...#....#.#bbb..b#.",
"..###...#aaaa#.#bbbb.b#.",
"...#...###aa###.#bbbb#..",
"...#...########.#bbbb#..",
"...#...###..###.#bbbb#..",
"...#...###..###..#bb#...",
"...#...###..###..#bb#...",
".......###..###...##....",
".......###..###.........",
".......###..###.........",
".......###..###.........",
"......####..####........"};
