/* XPM */
static char *library2[]={
"24 24 4 1",
"# c #000000",
"b c #0000ff",
"a c #ff0000",
". c #ffffff",
"........................",
"........................",
"...####.##....###.###...",
"..#....#..####...#...#..",
".#....#..#....#..#....#.",
"########################",
"#...a##..#aaaa#b#.#aa#.#",
"#..aa#b.b######b.##aaa.#",
"##.aa#b.b#....#b..#aa.##",
"#.#.a#..b######b..#a.#.#",
"###########..###########",
"#aaaa#bbb######bbb#aaaa#",
"#aaaa#bbb######bbb#aaaa#",
"#aaaa#bbb######bbb#aaaa#",
"#aaaa#bbb######bbb#aaaa#",
"#aaaa#bbb#aaaa#bbb#aaaa#",
"#aaaa#bbb#a#.a#bbb#aaaa#",
".####.####a#.a####.####.",
".........#a#.a#.........",
".........#a#.a#.........",
".........#a#.a#.........",
".........#aaaa#.........",
".........#aaaa#.........",
"..........####.........."};
