/* XPM */
static char *library[]={
"24 24 4 1",
"# c #000000",
"b c #0000ff",
"a c #ff0000",
". c #ffffff",
"........................",
"........................",
"........................",
"........................",
"..........####..........",
".......####..####.......",
".......#a.#bb#..#.......",
"....####aa#..#..#.......",
"....#..#a.#bb#..#.......",
"....#..#a.#bb#..#####...",
"....#..#a.#bb#..#aaa#...",
"....#..#a.#bb#..#...#...",
"...##..#a.#bb#..#aaa##..",
"...##..#a.#bb#..#a.a##..",
"...##..#a.#bb#..#a.a##..",
"...##..#aa#bb#..#a.a##..",
".####..#aa#bb#..#aaa####",
"########################",
"########################",
".a.a#.#a.a.a.a.a.a#.#a.a",
"....#a#...........#a#...",
"....#.#...........#.#...",
"....###...........###...",
"........................"};
