/* XPM */
static char *mail_in[]={
"24 24 4 1",
"# c #000000",
"b c #0000ff",
"a c #ff0000",
". c #ffffff",
".........############...",
".....############...#...",
".....#..........#aa.#...",
"....b#.###...#a.#a#.#bbb",
"...bb#.......aa.#...##bb",
"..bbb#..####....#...bbbb",
".bb#b#..........#..bbbbb",
"bb##b#..##..##..#.bbb#bb",
"bbbbbbbbbbbbbbbbbbbb#.bb",
"bb##b.b.b.b.b.b.b.bb..bb",
"bbbbbbbbbbbbbbbbbbbb..bb",
"bb..##............bb..bb",
"bb..#b............bb..bb",
"bb..#b............bb..bb",
"bb..#b############bb##bb",
"bb..#b.b.b.bb.bb##bbb#bb",
"bb.#bb.bb.bb.b.b.#bbb#bb",
"bb#bb.b..bb.b.b.b.bbb#bb",
"bbbb.b.bbb.bbb.b.bbb#.bb",
"bb##b######b######bb..bb",
"bb................bb....",
"bb................bb....",
"bb................bb....",
"........................"};
