/* XPM */
static char *medical[]={
"24 24 3 1",
"# c #000000",
". c #ff0000",
"a c #ffffff",
"...........##...........",
"..........#aa#..........",
".........#aaaa#.........",
"....###..#aaaa#...###...",
"..##aaa#.#aaaa#.##aaa#..",
".#aa#aaa#.#aa#.#aaa#aa#.",
"#aa#aa#a#..##.#aaaaa#aa#",
".#########.##.#########.",
"......##aa##a##aa##.....",
"......#aa#a#a#a#aa#.....",
".....#aaaa##a##aaaa#....",
".....#aa##.#a#.#aaa#....",
".....#aaa#######aa#.....",
"......#aaaaaaaa#a#......",
".......#######aa#.......",
"........#a##a#aa#.......",
".......#aaa####a#.......",
"........#aaaa###........",
".........###aa##........",
".........#a##aa#........",
".........##aa#a#........",
".........#aa#aa#........",
".........#a###a#........",
"..........#aa##........."};
