/* XPM */
static char *money[]={
"24 24 3 1",
"# c #000000",
"a c #00ff00",
". c #ffffff",
"........................",
"........................",
"########################",
"#a#aa##a#a#aaa##a##aa#a#",
"##.#a#a#######a##aaa#.##",
"##.#aaaaa#aa#aaaaa#a#.##",
"#a#aa..aaa##a##a###aa#a#",
"#a#aa#.aaa#..a##...#a#a#",
"##.#aaa####aa##.....#.##",
"##.#aa#....#aa##...##.##",
"#a#aa#......#a#.###.##a#",
"#######....#####...#####",
".....#.####....####.#...",
".....##..##....##..##...",
".....#.###.####.###.#...",
".....##..##....##..##...",
".....#.###.####.###.#...",
"......#..##....##..#....",
".......###.####.###.....",
"..........#....#........",
"...........####.........",
"........................",
"........................",
"........................"};
