/* XPM */
static char *monster[]={
"24 24 3 1",
"# c #000000",
"a c #00ff00",
". c #ffffff",
"...........##.#.........",
"..........######........",
".........######a#.......",
"........###########.....",
".......######..##.##....",
"......###a##....#..#....",
".....###aaa##...##......",
"....###aa######.........",
"....###aaa#.####........",
"...##.#####....#####....",
"..##..#aaa#......#..#...",
".#..#.#####......##.....",
".#..#.#aaa#.........###.",
"..#...#####........##.##",
"......#aaa##.#....##...#",
"......######..##.##...##",
"......##aaa##..###...###",
".....#########.....####.",
"....####aaaa####..####..",
"...###.######.###.###...",
"...####.#aaa##.##.......",
"...####.######.###.###..",
".#.#####.#aaa#.###.####.",
"##.######.#####.##.####."};
