/* XPM */
static char *note[]={
"24 24 4 1",
"# c #000000",
". c #0000ff",
"a c #ff0000",
"b c #ffffff",
"....#####...............",
"...#aaaaa#..............",
"..#aaaaaaa#.............",
"...#aabba#...##.........",
"....#####..##bb#........",
"...##aaa###bbbb#........",
"..#a#aba#a#bbbbb#.......",
".#aa#aba#aa#bbbb##......",
".#aaa###aaa#bbbbb#......",
".##aaabbaa#bbbbbb#......",
"#bb#aaaaa#bbbbbbbb#.....",
"#b#b#####bbbbbbbbb#.....",
".#b#b##bbbbbbbbbbbb#....",
".#bb#b#bbbbbbbbbbbb#....",
"..#bb#bbbbbbbbbbbbbb#...",
"..#bbbbbbbbbbbbbbbbbb###",
"...#bbbbbbbbbbbbbbbbbbb#",
"....#bbbbbbbbbbbbbbbbb#.",
"....#bbbbbbbbbbbbbbbb#..",
".....###bbbbbbbbbbb##...",
".....##b####bbbbb##.....",
"......#bbbbb#b###.......",
".......##bbbb##.........",
".........####..........."};
