/* XPM */
static char *puzzle[]={
"24 24 4 1",
". c #000000",
"a c #0000ff",
"# c #00ff00",
"b c #ffffff",
"........................",
".#####.aa.###.a..bbb.aa.",
".####.aaaa.#..a...bb.aa.",
".#....aa.b.#.aa.b.b.#.a.",
"..abb..a.b.#....bb.###..",
".aa..#.a...##.bbbb.####.",
".aaa.###.b.##.bbbbb.###.",
".aaa#####.b...bbbbbb..#.",
".bb...###.bbbbbbbbbbbb..",
".bb.aa....bbbbbbbbbbbbbb",
".b.#.a.bbbbbb.....bbbbbb",
"..###.....bb..bbb..bbbbb",
".#####.b.#...bbbbb..bbbb",
".#####.b.##.b..bbbb..bbb",
".###..a..#...bb.bbbb....",
"....b.aaa.b.b..bbbbbbb..",
".bbbb....bb..bbbbbbbbb..",
".b....bbbbbb..bbbbbbbb..",
".b.##......bb...........",
"...##.aaaa.bbbbbbbbbb...",
".aa.##.aaa.bbbbbbbbbbbbb",
".aaa.#....b..bbbbbbbbbbb",
".aaaa.bbbbbb.bbbbbbbbbbb",
".............bbbbbbbbbbb"};
