/* XPM */
static char *snake2[]={
"24 24 3 1",
"# c #000000",
"a c #0000ff",
". c #ffffff",
"................#####...",
"...........####.....#...",
"..........##............",
".........##.....####....",
".........#..####...##...",
"...........##..#aa..#...",
"...........#aa..#a..#...",
"...........#aa..#..##...",
"..a........##..#a##a....",
".aaa........###aaaaaaa..",
"#aa#....aaa...#aaaaaaaa#",
"#aa....aaaaa...#aa#aaaaa",
"#aa...aaaaaa....#aa#aaaa",
"#aa..#aaaaaaa...#aaa###.",
"#aa..#aaaaaaa...#aaa....",
"#aa..#aaaaaaa...#aaa....",
"#aa..#aaa#aaaa..#aaa....",
"#aaa.#aaa.#aaa..#aaa....",
"#aaa.#aaa.#aaa..#aaa....",
"#aaa#aaaa.#aaaa#aaaa....",
"#aaaaaaaa.#aaaaaaaaa....",
".#aaaaaa...#aaaaaaaa....",
"..#aaaaa....#aaaaaa.....",
"...####......#####......"};
