/* XPM */
static char *snoopy[]={
"24 24 4 1",
"# c #000000",
". c #0000ff",
"b c #ff0000",
"a c #ffffff",
"..................#aaaaa",
"..a...a.a..a......#aaaaa",
"....a..........a..#aaaaa",
"a....#...a....aaa..#aaaa",
"....###....a...a....#aaa",
".a.#aaa#..........a..###",
"..#aaaaa#....a..........",
"..#aaaaa#.a......a....a.",
"...#aaaa#...###....##...",
".#.#aaa#...#aaa#..#aa#..",
"..##aaa#..#aaaaa#.#a##.a",
"..#a#aa#.#aaaaaa#.#aa#..",
"a.#aaaaa#aa####aaaaaa#..",
"...###aa#aaaaa#aaaaaa#a.",
"..##########aa########..",
"..#b##bbbbbb##bbbbbbb#.a",
"a.#b###bbbbbbbbbbbbbb#..",
".#b####bbbbbbbbbbbbbbb#.",
".######################.",
".#b####bbbbbbbbbbbbbbb#.",
".#bb##bbbbbbbbbbbbbbbb#.",
"#bbbbbbbbbbbbbbbbbbbbbb#",
"########################",
"#bbbbbbbbbbbbbbbbbbbbbb#"};
