/* XPM */
static char *stopsign[]={
"24 24 3 1",
"# c #000000",
"a c #ff0000",
". c #ffffff",
"......############......",
".....##..........##.....",
"....##.aaaaaaaaaa.##....",
"...##.aaaaaaaaaaaa.##...",
"..##.aaaaaaaaaaaaaa.##..",
".##.aaaaaaaaaaaaaaaa.##.",
"##.aaaaaaaaaaaaaaaaaa.##",
"#.aa..aa...aa..aa...aa.#",
"#.a.aa.aa.aa.aa.a.aa.a.#",
"#.a.aa.aa.aa.aa.a.aa.a.#",
"#.a.aaaaa.aa.aa.a.aa.a.#",
"#.aa.aaaa.aa.aa.a...aa.#",
"#.aaa.aaa.aa.aa.a.aaaa.#",
"#.aaaa.aa.aa.aa.a.aaaa.#",
"#.a.aa.aa.aa.aa.a.aaaa.#",
"#.a.aa.aa.aa.aa.a.aaaa.#",
"#.aa..aaa.aaa..aa.aaaa.#",
"##.aaaaaaaaaaaaaaaaaa.##",
".##.aaaaaaaaaaaaaaaa.##.",
"..##.aaaaaaaaaaaaaa.##..",
"...##.aaaaaaaaaaaa.##...",
"....##.aaaaaaaaaa.##....",
".....##..........##.....",
"......############......"};
