/* XPM */
static char *strawberry[]={
"24 24 4 1",
"a c #000000",
"# c #00ff00",
"b c #ff0000",
". c #ffffff",
"........................",
".............#.aaa......",
"............#a#.aa......",
"....bbbb...#a#aa.a......",
"...bb.bbb.aa#aa.aa......",
"..bbbbb.bba#a#.aaa......",
".bbb.bbbbbba#ab.bbbbb...",
".bbbbb.b.bbbbbbb.bb.bb..",
"bbb.bbbbbb.bbb.bb.bbbbb.",
"bbbbb.b.bbbb.bbbbb.b.bbb",
"bbbb.bbbb.bbbbb.bb.bbb.b",
"bb.bbb.bbbb.b.bbbb.b.bbb",
"bbbb.bbb.bbbbbbb.b.bbbbb",
"b.bbbb.bbb.b.bbbbb.b.b.b",
"bbb.bbbbb.bbbb.bb.bbbbbb",
"bbbbb.b.bbbb.bbbb.b.b.b.",
"bb.bbbbbb.bbbbbb.bbbbbb.",
".bbb.b.bbb.b.bb.b.b.bb..",
".bbbbbbb.bbbbb.bbbbbb...",
"..bbbb.bbbbb..b.b.bb....",
"...bbbbbbb..bbbbbbb.....",
".....bbb..bbb.b.bb......",
"............bbbbb.......",
"........................"};
