/* XPM */
static char *teddy[]={
"24 24 3 1",
"# c #000000",
"a c #0000ff",
". c #ffffff",
"........##.....###......",
".......#..######..#.....",
".......#.aaaaaaaa.#.....",
".......##a#aaa#aa#......",
"........#aaaaaaa#.......",
".......#aaa##aaa###.....",
".......#a#aaaa#a#aa#....",
"......##aa####aa#aaa#...",
".....#aa#aaaaaa#aaaaa#..",
"....#aaaaa####aaaaaaa#..",
"....#aa#aaa..aaa#aaaa#..",
"....#aa#aa....aa#aaa#...",
"....#aa#a......a#aaa#...",
".....#aaa......a#aa#....",
"......##a......aa###....",
".......#aa....aaaaa#....",
".......#aaa..aa#aaa#....",
"...####aaaa###aaaa#.....",
"..#a#a#aaa#a#a#aaa#.....",
".#aa..aaa#aa..aaa#......",
".#a....a##a....a#.......",
".#a....#.#a....#........",
"..#a..##.#aa..##........",
"...####...#####........."};
