/* XPM */
static char *tool[]={
"24 24 4 1",
"# c #000000",
"b c #0000ff",
"a c #ff0000",
". c #ffffff",
"........................",
"........................",
"........................",
"........................",
"........................",
"........................",
"........................",
"......###...............",
".....#.#.#.......##.####",
".....#.#.#.......#######",
"....#..#..#......####.##",
"....#..#..#.......##..#.",
"#####.....#########...#.",
"#aaaa#.b.#aaaaaa#.....#.",
"#aaaa#...#aaaaaa#.....#.",
"#####..#..#########...#.",
"...#..#.#..#......#####.",
"...#.##.##.#......#...#.",
"...bbb...bbb.....##..#..",
"...bbb...bbb....##.##...",
"...bbb...bbb...####.....",
"...bbb...bbb............",
"...bbb...bbb............",
"....bb...bb............."};
