/* XPM */
static char *vines[]={
"24 24 4 1",
". c #000000",
"a c #00ff00",
"b c #ff0000",
"# c #ffffff",
"...###############.....#",
".aa.#.####bb####..aaaaa.",
".aaa.a.#bbbbb##.aaa...aa",
"#.a.aaa.bb##b#.aa..aaa.a",
"#.aa.aa.bbbbb#.aaaaa.aa.",
"##.aa.a.#bbb#.a..aaaaa.#",
"###.a.a..#b#.a........##",
"###.aaaaa...aaaaaa.####.",
"####...aa.aa......a.##.a",
"#####...aa..####...a.#.a",
"###...a.a.###...aa..a..a",
"##.aaa.aa.##.aaaaa..aa..",
"#.aa.a.a.##.aa..aa.a..aa",
"#.a.aa.a.#.aa.aaa..a.#..",
".aa.aa.a..aa.aaa.##a.###",
".a.aaa.a..aa.aa.##..a..#",
".a.aa..a.#.aaaa.####.aa.",
"aaaa.##.a.#.a..#....#..a",
"aaaa.##.a.#.a...aaaa.#.a",
".aa.####.a..aaaaa.aaa.#.",
"#..######.aa....aa.aaa.#",
"##..######.a.##.aaa.aa.#",
"#.aa...###.a.##..aaaaa.#",
".a.aaaa.##.a.####..aa.##"};
