#define abc_width 24
#define abc_height 24
static unsigned char abc_bits[] = {
   0xf8, 0x3f, 0x00, 0x04, 0x38, 0x00, 0xc4, 0x39, 0x00, 0xe4, 0x3b, 0x00,
   0x24, 0x3a, 0x00, 0xe4, 0x3b, 0x00, 0xe4, 0x3b, 0x00, 0x24, 0xfa, 0x1f,
   0x04, 0x04, 0x1c, 0xfc, 0x7b, 0x1c, 0x00, 0xca, 0x1c, 0x00, 0x7a, 0x1c,
   0x00, 0xca, 0x1c, 0x00, 0xfa, 0x1c, 0x00, 0x7a, 0x1c, 0xf0, 0x03, 0x0c,
   0x08, 0xfe, 0x03, 0xe8, 0x73, 0x00, 0x28, 0x72, 0x00, 0x28, 0x70, 0x00,
   0x28, 0x72, 0x00, 0xe8, 0x73, 0x00, 0x08, 0x30, 0x00, 0xf8, 0x1f, 0x00};
