#define bee_width 24
#define bee_height 24
static unsigned char bee_bits[] = {
   0x00, 0x00, 0x00, 0x00, 0x00, 0x00, 0xe0, 0xc9, 0x03, 0x00, 0x5d, 0x00,
   0x00, 0x2a, 0x00, 0x00, 0x3e, 0x00, 0x38, 0x1c, 0x0e, 0xde, 0xc9, 0x3d,
   0x51, 0x3e, 0x45, 0x91, 0xeb, 0x44, 0xde, 0x9c, 0x3d, 0x38, 0x22, 0x0e,
   0x00, 0x3e, 0x00, 0x00, 0x7f, 0x00, 0x00, 0x41, 0x00, 0x00, 0x7f, 0x00,
   0x00, 0x3e, 0x00, 0x00, 0x22, 0x00, 0x00, 0x1c, 0x00, 0x00, 0x08, 0x00,
   0x00, 0x08, 0x00, 0x00, 0x08, 0x00, 0x00, 0x00, 0x00, 0x00, 0x00, 0x00};
