#define camera2_width 24
#define camera2_height 24
static unsigned char camera2_bits[] = {
   0x00, 0x38, 0x00, 0x00, 0x44, 0x00, 0xde, 0xba, 0x0c, 0xfe, 0xff, 0x0f,
   0x06, 0x00, 0x10, 0xfe, 0xbb, 0x3f, 0xfe, 0xff, 0x3f, 0xfe, 0xc7, 0x3f,
   0xce, 0xbb, 0x3f, 0xce, 0x45, 0x3f, 0xce, 0x45, 0x3f, 0xfe, 0xbb, 0x3f,
   0xfe, 0xc7, 0x3f, 0xfe, 0xff, 0x3f, 0xfe, 0xff, 0x1f, 0x00, 0x3e, 0x00,
   0x00, 0x7f, 0x00, 0x80, 0xff, 0x00, 0xc0, 0xdd, 0x01, 0xe0, 0x9c, 0x03,
   0x70, 0x1c, 0x07, 0x38, 0x1c, 0x0e, 0x18, 0x1c, 0x0c, 0x00, 0x00, 0x00};
