#define compass_width 24
#define compass_height 24
static unsigned char compass_bits[] = {
   0x00, 0x08, 0x00, 0x00, 0x08, 0x00, 0x00, 0x1c, 0x00, 0x00, 0x1c, 0x00,
   0x00, 0x3e, 0x00, 0x00, 0x3a, 0x00, 0x00, 0x3a, 0x00, 0x00, 0x3a, 0x00,
   0x80, 0xfb, 0x01, 0x80, 0x1c, 0x01, 0xf0, 0xb9, 0x0f, 0xfc, 0xb1, 0x38,
   0xff, 0xa5, 0x7f, 0x1c, 0x8d, 0x1f, 0xf0, 0x9d, 0x03, 0x80, 0x28, 0x01,
   0x80, 0xef, 0x01, 0x00, 0x2e, 0x00, 0x00, 0x2e, 0x00, 0x00, 0x3e, 0x00,
   0x00, 0x1c, 0x00, 0x00, 0x1c, 0x00, 0x00, 0x08, 0x00, 0x00, 0x08, 0x00};
