#define chair_lounge_width 24
#define chair_lounge_height 24
static unsigned char chair_lounge_bits[] = {
   0x07, 0xe0, 0x00, 0xfd, 0xbf, 0x00, 0xfd, 0xbf, 0x00, 0xfd, 0xbf, 0x00,
   0xfd, 0xbf, 0x00, 0x05, 0xa0, 0x00, 0xff, 0xa1, 0x00, 0x01, 0xe1, 0x0f,
   0xff, 0x20, 0x08, 0xa5, 0xe0, 0x0f, 0xa5, 0xa0, 0x05, 0xbd, 0xff, 0x05,
   0xbf, 0xff, 0x0d, 0xfe, 0xff, 0x0f, 0xf8, 0xff, 0x1f, 0xb0, 0xc7, 0x00,
   0x60, 0x63, 0x10, 0xc0, 0x3f, 0x38, 0xc0, 0x1d, 0x34, 0xe0, 0x3f, 0x74,
   0x30, 0x66, 0x78, 0x18, 0xcf, 0x58, 0x8c, 0x99, 0xfd, 0xc0, 0x00, 0xff};
