#define dragon_width 24
#define dragon_height 24
static unsigned char dragon_bits[] = {
   0x00, 0x0c, 0x00, 0x00, 0x18, 0x00, 0x00, 0xfc, 0x00, 0x0c, 0xfe, 0x20,
   0x3c, 0x7f, 0x3e, 0xfc, 0x7d, 0x7f, 0xfc, 0xff, 0x0f, 0xfa, 0xff, 0x0f,
   0x06, 0xff, 0x0f, 0x34, 0xde, 0x07, 0xc6, 0xcf, 0x05, 0x8e, 0xef, 0x00,
   0x80, 0x5f, 0x0e, 0xc0, 0xff, 0x3f, 0xee, 0xff, 0x7f, 0xff, 0xff, 0x7f,
   0xfd, 0xff, 0x7f, 0xf5, 0xff, 0x3f, 0xf1, 0xff, 0x7f, 0xf8, 0xff, 0x7f,
   0xfc, 0xff, 0x7f, 0xfe, 0xfd, 0x3f, 0x9e, 0xdf, 0x1f, 0x00, 0x00, 0x00};
