#define dynamite_width 24
#define dynamite_height 24
static unsigned char dynamite_bits[] = {
   0x80, 0x00, 0x00, 0x80, 0x00, 0x00, 0xa0, 0x02, 0x00, 0x40, 0x01, 0x00,
   0xb8, 0x0e, 0x00, 0x40, 0x01, 0x00, 0xa0, 0x02, 0x00, 0xb0, 0x00, 0x00,
   0x90, 0x00, 0x00, 0x18, 0x00, 0x00, 0x0c, 0x00, 0x00, 0x04, 0x00, 0x00,
   0x04, 0x00, 0x00, 0xfc, 0xff, 0x3f, 0x9c, 0x86, 0x26, 0xfe, 0xff, 0x7f,
   0x3e, 0x0b, 0x4b, 0xfc, 0xff, 0x7f, 0x9c, 0x86, 0x26, 0xf8, 0xff, 0x3f,
   0x00, 0x00, 0x00, 0x00, 0x00, 0x00, 0x00, 0x00, 0x00, 0x00, 0x00, 0x00};
