#define elf_width 24
#define elf_height 24
static unsigned char elf_bits[] = {
   0x00, 0x00, 0x00, 0xc0, 0x06, 0x00, 0x00, 0x8f, 0x01, 0x00, 0x0b, 0x03,
   0x00, 0x0f, 0x06, 0x00, 0x06, 0x0c, 0xc0, 0x1f, 0x0c, 0xe0, 0x7f, 0x18,
   0xf0, 0xff, 0x1d, 0xf0, 0xbf, 0x1f, 0x80, 0x0f, 0x18, 0x80, 0x0f, 0x0c,
   0x00, 0x05, 0x0c, 0x80, 0x07, 0x06, 0x80, 0x0f, 0x03, 0xc0, 0x8f, 0x01,
   0xc0, 0x1c, 0x00, 0xe0, 0x38, 0x00, 0x60, 0x30, 0x00, 0x60, 0x30, 0x00,
   0x30, 0x30, 0x00, 0x30, 0x10, 0x00, 0x30, 0x70, 0x00, 0x00, 0x00, 0x00};
