#define eye_width 24
#define eye_height 24
static unsigned char eye_bits[] = {
   0xf0, 0x01, 0x00, 0xfe, 0x1f, 0x00, 0xff, 0xff, 0x01, 0x00, 0xff, 0x03,
   0x00, 0xf0, 0x0f, 0x00, 0x80, 0x3f, 0x00, 0x00, 0x7e, 0x00, 0x00, 0xfc,
   0x9f, 0x00, 0xe0, 0xfb, 0x01, 0x80, 0x01, 0x00, 0x00, 0xff, 0x02, 0x00,
   0xff, 0x0f, 0x00, 0xff, 0x3f, 0x00, 0xff, 0xf7, 0x00, 0xff, 0x8f, 0x03,
   0xff, 0x3f, 0x06, 0xfb, 0x7f, 0x0c, 0xeb, 0xc3, 0x09, 0x0e, 0xc0, 0x13,
   0x38, 0x00, 0x07, 0xe0, 0x01, 0x05, 0x00, 0x7e, 0x04, 0x00, 0x00, 0x00};
