#define letter_width 24
#define letter_height 24
static unsigned char letter_bits[] = {
   0xff, 0xff, 0xff, 0xff, 0xff, 0xff, 0x03, 0x98, 0xc0, 0x03, 0xae, 0xc0,
   0x83, 0x33, 0xdf, 0xe3, 0x6c, 0xdb, 0x3b, 0x76, 0xda, 0x0f, 0xec, 0xd6,
   0x03, 0xb8, 0xdd, 0x01, 0xf8, 0xdc, 0x01, 0x70, 0xd8, 0x01, 0x20, 0xd8,
   0x01, 0x00, 0xf0, 0x01, 0x00, 0xf0, 0x01, 0x00, 0xe0, 0x01, 0x03, 0xe0,
   0x61, 0x01, 0xc0, 0x31, 0x08, 0xc0, 0x1d, 0x06, 0x80, 0x07, 0x03, 0x80,
   0xe1, 0x31, 0xc0, 0x39, 0x1c, 0xf0, 0x0d, 0x02, 0xfc, 0xff, 0xff, 0xff};
