#define mail_edit_width 24
#define mail_edit_height 24
static unsigned char mail_edit_bits[] = {
   0x80, 0x3f, 0x00, 0xc0, 0x71, 0x00, 0x60, 0xdb, 0x00, 0x30, 0x8e, 0x01,
   0xfe, 0xff, 0x3f, 0x0e, 0x00, 0x30, 0x1a, 0x00, 0x38, 0x33, 0x00, 0x2c,
   0x63, 0x00, 0x26, 0xc3, 0x00, 0x63, 0x82, 0x81, 0xe1, 0x02, 0xc3, 0xe0,
   0x02, 0x66, 0xe0, 0x02, 0x3c, 0x60, 0x02, 0x18, 0x20, 0x02, 0x00, 0x20,
   0xfe, 0xff, 0x3f, 0xf8, 0xff, 0x3f, 0x00, 0x06, 0x07, 0x00, 0x8c, 0x03,
   0x00, 0xd8, 0x01, 0x00, 0xf0, 0x00, 0x00, 0x60, 0x00, 0x00, 0x00, 0x00};
