#define paper_plane_width 24
#define paper_plane_height 24
static unsigned char paper_plane_bits[] = {
   0x00, 0x00, 0x00, 0x00, 0x00, 0x00, 0x00, 0x00, 0x00, 0x06, 0x00, 0x00,
   0x1e, 0x00, 0x00, 0x7e, 0x00, 0x00, 0xee, 0x00, 0x00, 0xde, 0x03, 0x00,
   0xbe, 0x0f, 0x00, 0x7c, 0x3e, 0x00, 0xfc, 0xfc, 0x00, 0xfc, 0xf1, 0x01,
   0xf8, 0xe3, 0x07, 0xf8, 0xc7, 0x1f, 0xf8, 0x0f, 0x7f, 0xf0, 0x9f, 0xfd,
   0xf0, 0x9f, 0xc0, 0xf0, 0x8b, 0x00, 0xe0, 0xb1, 0x00, 0xe0, 0x60, 0x00,
   0x20, 0x40, 0x00, 0x00, 0x00, 0x00, 0x00, 0x00, 0x00, 0x00, 0x00, 0x00};
