#define pencil3_width 24
#define pencil3_height 24
static unsigned char pencil3_bits[] = {
   0x00, 0x00, 0xe7, 0x00, 0x80, 0x73, 0x00, 0xc0, 0x39, 0x00, 0xe0, 0x1c,
   0x00, 0x70, 0x8e, 0x00, 0x38, 0xc7, 0x00, 0x9c, 0xe3, 0x00, 0xcc, 0x71,
   0x00, 0xfe, 0x38, 0x00, 0xe6, 0x9c, 0x00, 0x83, 0xcf, 0x00, 0x01, 0xe7,
   0x80, 0x01, 0x76, 0x80, 0x00, 0x3e, 0xc0, 0x00, 0x1e, 0x40, 0x00, 0x07,
   0x60, 0x80, 0x03, 0xe0, 0xe0, 0x00, 0xf0, 0x31, 0x00, 0xf0, 0x1f, 0x00,
   0xf8, 0x07, 0x00, 0xf8, 0x03, 0x00, 0xfc, 0x00, 0x00, 0xfe, 0xff, 0x07};
