#define picture_width 24
#define picture_height 24
static unsigned char picture_bits[] = {
   0x00, 0x00, 0x00, 0x1f, 0x00, 0xf8, 0xff, 0xff, 0xff, 0x03, 0x00, 0xc0,
   0xfb, 0xff, 0xdf, 0x8b, 0x03, 0xd0, 0xca, 0x06, 0x50, 0x6a, 0x1c, 0x50,
   0x3a, 0x30, 0x50, 0x1a, 0x04, 0x51, 0x0a, 0x8e, 0x53, 0x0a, 0xca, 0x56,
   0x0a, 0x64, 0x5d, 0xca, 0xae, 0x5a, 0x7a, 0xa4, 0x5b, 0x1a, 0xae, 0x5a,
   0x0a, 0x0a, 0x50, 0x0a, 0x00, 0x50, 0x1b, 0x00, 0xd0, 0xfb, 0xff, 0xdf,
   0x03, 0x00, 0xc0, 0xff, 0xff, 0xff, 0x1f, 0x00, 0xf8, 0x00, 0x00, 0x00};
