#define radar_width 24
#define radar_height 24
static unsigned char radar_bits[] = {
   0x00, 0x00, 0x00, 0xe0, 0x01, 0x00, 0x30, 0x07, 0x00, 0x10, 0x0c, 0x00,
   0x30, 0x18, 0x03, 0x50, 0xb0, 0x04, 0x30, 0xe0, 0x03, 0x70, 0xe0, 0x00,
   0xf0, 0xf4, 0x01, 0xd0, 0x38, 0x03, 0xa0, 0x0f, 0x06, 0xe0, 0x07, 0x0c,
   0xa0, 0x0f, 0x08, 0xe0, 0x5f, 0x18, 0xe0, 0x3f, 0x10, 0xf0, 0x7f, 0x30,
   0xd0, 0xff, 0x21, 0xe0, 0xff, 0x33, 0x40, 0xef, 0x1f, 0x80, 0x15, 0x00,
   0x00, 0x15, 0x00, 0xe0, 0xff, 0x03, 0x50, 0xef, 0x07, 0xf0, 0xff, 0x07};
