#define root_width 24
#define root_height 24
static unsigned char root_bits[] = {
   0x00, 0x00, 0x00, 0x00, 0x16, 0x01, 0x00, 0x0f, 0x01, 0x00, 0x7f, 0x01,
   0x00, 0x3f, 0x01, 0x00, 0x0f, 0x01, 0x00, 0x3f, 0x01, 0x00, 0x3f, 0x01,
   0x00, 0x3f, 0x01, 0x00, 0x3f, 0x01, 0x00, 0x7f, 0x01, 0x80, 0xff, 0x03,
   0xc0, 0xff, 0x07, 0xe0, 0xff, 0x1f, 0xf8, 0x7d, 0x36, 0x3c, 0x66, 0x26,
   0x16, 0x63, 0x48, 0x12, 0x43, 0x50, 0x9a, 0x47, 0x48, 0x9a, 0xe0, 0xbc,
   0x9a, 0x26, 0x65, 0x84, 0x60, 0x25, 0x80, 0x20, 0x00, 0x00, 0x00, 0x00};
