#define terminal2_width 24
#define terminal2_height 24
static unsigned char terminal2_bits[] = {
   0x00, 0x00, 0x00, 0xfe, 0xff, 0x0f, 0x02, 0x00, 0x18, 0xfa, 0xff, 0x2b,
   0x0a, 0x84, 0x4a, 0x6a, 0xb4, 0x4a, 0x0a, 0x94, 0x4b, 0xfa, 0x87, 0x4a,
   0x0a, 0xb4, 0x4b, 0xea, 0x84, 0x4a, 0x0a, 0xb4, 0x4b, 0x0a, 0x84, 0x4b,
   0xfa, 0xff, 0x4b, 0xfa, 0xff, 0x4b, 0x02, 0x00, 0x28, 0xfe, 0xff, 0x7f,
   0xf0, 0xff, 0x5b, 0x0c, 0x00, 0x6c, 0xfe, 0xff, 0x33, 0x02, 0x00, 0x1a,
   0x02, 0x00, 0x0e, 0xfe, 0xff, 0x07, 0x00, 0x00, 0x00, 0x00, 0x00, 0x00};
