#define _width 20
#define _height 20

static unsigned char _bits[] = {
 0x00, 0x00, 0x0c, 0x00, 0x00, 0x0f, 0x00, 0xc0, 0x0b, 0x00, 0xf0, 0x08,
 0x00, 0x3c, 0x08, 0x00, 0x0f, 0x08, 0xc0, 0x03, 0x08, 0xc0, 0x00, 0x08,
 0x40, 0x80, 0x0b, 0x40, 0xc0, 0x0f, 0x40, 0xe0, 0x0f, 0x40, 0xe0, 0x0f,
 0x40, 0xe0, 0x0f, 0x5c, 0xc0, 0x07, 0x7e, 0x80, 0x03, 0x7f, 0x00, 0x00,
 0x7f, 0x00, 0x00, 0x7f, 0x00, 0x00, 0x3e, 0x00, 0x00, 0x1c, 0x00, 0x00
 };
