#define balloon3_width 20
#define balloon3_height 20
static unsigned char balloon3_bits[] = {
   0x00, 0x00, 0x00, 0xc0, 0x3f, 0x00, 0xf0, 0xf6, 0x00, 0x78, 0xe6, 0x01,
   0x3c, 0xcf, 0x03, 0x1e, 0x8f, 0x07, 0x1e, 0x8f, 0x07, 0x1e, 0x8f, 0x07,
   0x1e, 0x8f, 0x07, 0x1e, 0x8f, 0x07, 0x1e, 0x8f, 0x07, 0x3c, 0xc6, 0x03,
   0x78, 0xe6, 0x00, 0xe0, 0x7f, 0x00, 0xc0, 0x30, 0x00, 0x80, 0x1f, 0x00,
   0x80, 0x15, 0x00, 0x80, 0x1a, 0x00, 0x80, 0x1f, 0x00, 0x00, 0x00, 0x00};
