#define bee_width 20
#define bee_height 20
static unsigned char bee_bits[] = {
   0xff, 0xff, 0x0f, 0xcf, 0x9d, 0x0f, 0x9f, 0xc8, 0x0f, 0x7f, 0xf5, 0x0f,
   0x7f, 0xf0, 0x0f, 0xe3, 0x38, 0x0e, 0x95, 0x4d, 0x0d, 0x76, 0x70, 0x0b,
   0x95, 0x48, 0x0d, 0xe3, 0x38, 0x0e, 0x7f, 0xf7, 0x0f, 0x3f, 0xe0, 0x0f,
   0xbf, 0xef, 0x0f, 0x3f, 0xe0, 0x0f, 0x7f, 0xf7, 0x0f, 0xff, 0xf8, 0x0f,
   0xff, 0xfd, 0x0f, 0xff, 0xfd, 0x0f, 0xff, 0xff, 0x0f, 0xff, 0xff, 0x0f};
