#define bug2_width 20
#define bug2_height 20
static unsigned char bug2_bits[] = {
   0x80, 0x3b, 0x00, 0xc0, 0x6a, 0x00, 0x30, 0x9f, 0x01, 0x80, 0x24, 0x00,
   0x00, 0x1f, 0x00, 0x60, 0xce, 0x00, 0xf0, 0xee, 0x01, 0x98, 0x3b, 0x03,
   0x60, 0xdf, 0x00, 0xf0, 0xfb, 0x01, 0x18, 0x0e, 0x03, 0x00, 0x1b, 0x00,
   0x80, 0x3f, 0x00, 0xc0, 0x71, 0x00, 0xe0, 0xff, 0x00, 0xb0, 0xb1, 0x01,
   0xb0, 0xbf, 0x01, 0x10, 0x1b, 0x01, 0x38, 0x9f, 0x03, 0x00, 0x00, 0x00};
