#define c++_width 20
#define c++_height 20
static char c++_bits[] = {
  0x00, 0x00, 0x00, 0x00, 0x1f, 0x00, 0xc0, 0x7f, 0x00, 0xe0, 0xff, 0x01, 
  0xf0, 0xe1, 0x03, 0x78, 0x80, 0x03, 0x3c, 0x00, 0x00, 0x3c, 0x18, 0x03, 
  0x1e, 0x18, 0x03, 0x1e, 0xfe, 0x0f, 0x1e, 0xfe, 0x0f, 0x1e, 0x18, 0x03, 
  0x3c, 0x18, 0x03, 0x3c, 0x00, 0x00, 0x78, 0x80, 0x03, 0xf0, 0xe1, 0x03, 
  0xe0, 0xff, 0x01, 0xc0, 0x7f, 0x00, 0x00, 0x1f, 0x00, 0x00, 0x00, 0x00, 
  };
