#define caesar_width 20
#define caesar_height 20
static unsigned char caesar_bits[] = {
   0x00, 0x00, 0x00, 0x00, 0x7f, 0x00, 0xc0, 0xfb, 0x03, 0xb0, 0xdf, 0x05,
   0xf8, 0x7e, 0x0f, 0xf4, 0xfb, 0x03, 0xdc, 0xff, 0x01, 0xfe, 0x40, 0x00,
   0x7a, 0x3f, 0x00, 0xbf, 0x61, 0x00, 0xdf, 0x40, 0x00, 0x6f, 0xe0, 0x00,
   0x27, 0x96, 0x00, 0x20, 0x2b, 0x00, 0x20, 0x2b, 0x00, 0x40, 0x56, 0x00,
   0xc0, 0x65, 0x00, 0x20, 0x06, 0x00, 0xf0, 0x03, 0x00, 0x00, 0x00, 0x00};
