#define camera_width 20
#define camera_height 20
static unsigned char camera_bits[] = {
   0x00, 0x00, 0x00, 0x00, 0x00, 0x00, 0x80, 0x0f, 0x00, 0xc0, 0x1f, 0x00,
   0x60, 0xb5, 0x03, 0xfe, 0xff, 0x07, 0x7f, 0xf0, 0x07, 0x3b, 0xe5, 0x0f,
   0x9b, 0x4a, 0x0e, 0x5b, 0xd5, 0x0f, 0x9b, 0xca, 0x0f, 0x5b, 0xd5, 0x0f,
   0x9b, 0xca, 0x0f, 0x3f, 0x65, 0x0e, 0x7f, 0xf0, 0x0f, 0xff, 0xff, 0x0f,
   0xfe, 0xff, 0x0f, 0xfc, 0xff, 0x07, 0x00, 0x00, 0x00, 0x00, 0x00, 0x00};
