#define chess_piece_width 20
#define chess_piece_height 20
static char chess_piece_bits[] = {
  0x00, 0x0e, 0x00, 0x00, 0x11, 0x00, 0x00, 0x10, 0x00, 0x00, 0x11, 0x00, 
  0x00, 0x0e, 0x00, 0xc0, 0x7f, 0x00, 0x20, 0x80, 0x00, 0xf0, 0xff, 0x01, 
  0x20, 0x80, 0x00, 0xc0, 0x7e, 0x00, 0x20, 0x80, 0x00, 0xe0, 0xff, 0x00, 
  0x80, 0x20, 0x00, 0x00, 0x1d, 0x00, 0x80, 0x20, 0x00, 0xc0, 0x7f, 0x00, 
  0x20, 0x80, 0x00, 0xf0, 0xff, 0x01, 0x08, 0x00, 0x02, 0xf0, 0xff, 0x01, 
  };
