#define clipboard_width 20
#define clipboard_height 20
static char clipboard_bits[] = {
  0xff, 0xf1, 0x0f, 0xff, 0xf5, 0x0f, 0xff, 0xe0, 0x0f, 0x5f, 0x40, 0x0f, 
  0xcf, 0x7f, 0x0e, 0x0f, 0x3e, 0x0e, 0x0f, 0x7f, 0x0e, 0x8f, 0xff, 0x0e, 
  0xcf, 0x7f, 0x0e, 0xef, 0x3f, 0x0e, 0xcf, 0x1f, 0x0e, 0x8f, 0x0f, 0x0e, 
  0x0f, 0x07, 0x0e, 0x0f, 0x02, 0x0e, 0x0f, 0x00, 0x0e, 0x0f, 0x00, 0x0e, 
  0x0f, 0x00, 0x0e, 0x0f, 0x00, 0x0e, 0x0f, 0x00, 0x0e, 0x1f, 0x00, 0x0f, 
  };
