#define _width 20
#define _height 20

static unsigned char _bits[] = {
 0x08, 0x82, 0x00, 0x1c, 0xc7, 0x01, 0x14, 0x45, 0x01, 0xa6, 0x69, 0x02,
 0xa2, 0x28, 0x02, 0xbe, 0xef, 0x03, 0xbe, 0xef, 0x03, 0xa2, 0x28, 0x02,
 0xa6, 0x69, 0x02, 0xae, 0xeb, 0x02, 0xae, 0xeb, 0x02, 0xae, 0xeb, 0x02,
 0xae, 0xeb, 0x02, 0xae, 0xeb, 0x02, 0xae, 0xeb, 0x02, 0xae, 0xeb, 0x02,
 0xa6, 0x69, 0x02, 0xa2, 0x28, 0x02, 0xbe, 0xef, 0x03, 0xbe, 0xef, 0x03
 };
