#define cup_width 20
#define cup_height 20
static char cup_bits[] = {
  0xff, 0xfe, 0x0f, 0xff, 0xfd, 0x0f, 0xbf, 0xfb, 0x0f, 0xff, 0xfb, 0x0f, 
  0xff, 0xfa, 0x0f, 0xff, 0xfd, 0x0f, 0x1f, 0xe5, 0x0f, 0xcf, 0xcd, 0x0f, 
  0xef, 0x5f, 0x0e, 0xcf, 0x4f, 0x0c, 0x0f, 0xc0, 0x08, 0x0f, 0xc0, 0x09, 
  0x0f, 0xc0, 0x09, 0x0f, 0xc0, 0x09, 0x0f, 0xc0, 0x08, 0x0f, 0x40, 0x0c, 
  0x0f, 0x40, 0x0e, 0x0f, 0xc0, 0x0f, 0x1f, 0xe0, 0x0f, 0x3f, 0xf0, 0x0f, 
  };
