#define darlek_width 20
#define darlek_height 20
static char darlek_bits[] = {
  0x00, 0x10, 0x00, 0x00, 0xef, 0x01, 0x80, 0x29, 0x03, 0x80, 0xd6, 0x02, 
  0x88, 0x00, 0x02, 0xf8, 0x03, 0x02, 0x88, 0x00, 0x02, 0xc2, 0xff, 0x07, 
  0x7e, 0x92, 0x04, 0x7e, 0x92, 0x04, 0xc2, 0xff, 0x07, 0x40, 0x00, 0x04, 
  0x40, 0x92, 0x04, 0x60, 0xdb, 0x0e, 0x20, 0x00, 0x08, 0x60, 0x92, 0x0c, 
  0x60, 0xdb, 0x0e, 0x20, 0x00, 0x08, 0xe0, 0xff, 0x0f, 0xe0, 0xff, 0x0f, 
  };
