#define dragon_small_width 20
#define dragon_small_height 20
static unsigned char dragon_small_bits[] = {
   0xc0, 0x81, 0x07, 0xe7, 0xc3, 0x0d, 0x7c, 0xe7, 0x08, 0x38, 0x76, 0x0c,
   0x34, 0x77, 0x04, 0xbe, 0x3b, 0x06, 0xdf, 0x1d, 0x03, 0xa6, 0xff, 0x01,
   0xa0, 0xba, 0x03, 0x60, 0x21, 0x07, 0xc0, 0x9f, 0x0c, 0x00, 0xf0, 0x0f,
   0xf0, 0x07, 0x0c, 0xf8, 0x0f, 0x0a, 0x0c, 0x3c, 0x0a, 0xfd, 0xeb, 0x0d,
   0xf9, 0xb7, 0x06, 0x02, 0xec, 0x03, 0x76, 0x18, 0x00, 0xdc, 0x0f, 0x00};
