#define elf_width 20
#define elf_height 20
static unsigned char elf_bits[] = {
   0x00, 0x00, 0xf0, 0xb0, 0x01, 0xf0, 0xc0, 0x63, 0xf0, 0xc0, 0xc3, 0xf0,
   0x80, 0x81, 0xf1, 0xe0, 0x07, 0xf3, 0xf0, 0xbf, 0xf3, 0xf8, 0xff, 0xf3,
   0xc0, 0x03, 0xf3, 0xc0, 0x03, 0xf3, 0x80, 0x81, 0xf1, 0xc0, 0xc3, 0xf0,
   0xe0, 0x63, 0xf0, 0x60, 0x07, 0xf0, 0x70, 0x0e, 0xf0, 0x30, 0x0c, 0xf0,
   0x30, 0x0c, 0xf0, 0x18, 0x04, 0xf0, 0x18, 0x1c, 0xf0, 0x00, 0x00, 0xf0};
