#define _width 20
#define _height 20

static unsigned char _bits[] = {
 0x00, 0x0f, 0x00, 0xc0, 0x3f, 0x00, 0xf0, 0xff, 0x00, 0xf8, 0xf9, 0x01,
 0xfc, 0xf0, 0x03, 0xfc, 0xf0, 0x03, 0xfe, 0xf0, 0x07, 0xfe, 0xf0, 0x07,
 0xff, 0xf0, 0x0f, 0xff, 0xf0, 0x0f, 0xff, 0xf9, 0x0f, 0xff, 0xf9, 0x0f,
 0xfe, 0xff, 0x07, 0xfe, 0xff, 0x07, 0xfc, 0xf9, 0x03, 0xfc, 0xf0, 0x03,
 0xf8, 0xf9, 0x01, 0xf0, 0xff, 0x00, 0xc0, 0x3f, 0x00, 0x00, 0x0f, 0x00
 };
