#define face_cyclops_width 20
#define face_cyclops_height 20
static unsigned char face_cyclops_bits[] = {
   0xff, 0xff, 0x0f, 0x3f, 0xe0, 0x0f, 0xcf, 0x9f, 0x0f, 0xf7, 0x7f, 0x0f,
   0xfb, 0xff, 0x0e, 0x7d, 0xf0, 0x0d, 0xbd, 0xef, 0x0d, 0xbe, 0xe8, 0x0b,
   0xbe, 0xef, 0x0b, 0x7e, 0xf0, 0x0b, 0xde, 0xdf, 0x0b, 0xee, 0xbf, 0x0b,
   0xd5, 0x5f, 0x0d, 0x3d, 0xe0, 0x0d, 0x7b, 0xf5, 0x0e, 0x77, 0x77, 0x0f,
   0xcf, 0x98, 0x0f, 0x3f, 0xe0, 0x0f, 0xff, 0xff, 0x0f, 0xff, 0xff, 0x0f};
