#define font_width 20
#define font_height 20
static unsigned char font_bits[] = {
   0x00, 0x00, 0x00, 0x00, 0x00, 0x06, 0x00, 0x00, 0x07, 0x00, 0x80, 0x07,
   0x00, 0xc0, 0x06, 0x00, 0x60, 0x06, 0x20, 0x30, 0x06, 0x70, 0xf8, 0x07,
   0x78, 0x0c, 0x06, 0xf8, 0x1e, 0x0f, 0xec, 0x00, 0x00, 0xcc, 0xc1, 0x01,
   0xc6, 0xe1, 0x03, 0x86, 0x33, 0x03, 0xff, 0x33, 0x03, 0x03, 0x37, 0x03,
   0x03, 0x37, 0x03, 0x00, 0x30, 0x03, 0x00, 0xf0, 0x0f, 0x00, 0x60, 0x06};
