#define fruit_width 20
#define fruit_height 20
static unsigned char fruit_bits[] = {
   0x00, 0x00, 0x00, 0x00, 0x00, 0x00, 0x00, 0x00, 0x00, 0x00, 0x00, 0x00,
   0x00, 0x38, 0x0e, 0x00, 0x48, 0x09, 0x18, 0xf0, 0x07, 0x30, 0x80, 0x01,
   0x20, 0xe0, 0x00, 0xec, 0x58, 0x03, 0xf2, 0x07, 0x06, 0xc1, 0x07, 0x0f,
   0xc1, 0x07, 0x0f, 0xe9, 0xa7, 0x0f, 0xfa, 0xe7, 0x0f, 0xfe, 0xfb, 0x07,
   0xfc, 0xf9, 0x03, 0xf8, 0xf0, 0x01, 0x00, 0x00, 0x00, 0x00, 0x00, 0x00};
