#define keyboard_width 20
#define keyboard_height 20
static unsigned char keyboard_bits[] = {
   0x00, 0x80, 0x00, 0x00, 0xc0, 0x01, 0x00, 0x80, 0x03, 0x00, 0x00, 0x02,
   0x70, 0x77, 0x03, 0xc8, 0xdd, 0x01, 0x04, 0x00, 0x00, 0xff, 0xff, 0x0f,
   0x01, 0x00, 0x08, 0xfd, 0xff, 0x0b, 0xfd, 0xff, 0x0b, 0x01, 0x00, 0x08,
   0xfd, 0xbf, 0x0b, 0xfd, 0xbf, 0x0b, 0xfd, 0xbf, 0x0b, 0xfd, 0xbf, 0x0b,
   0x01, 0x00, 0x08, 0xff, 0xff, 0x0f, 0x00, 0x00, 0x00, 0x00, 0x00, 0x00};
