#define ladybug_width 20
#define ladybug_height 20
static unsigned char ladybug_bits[] = {
   0x00, 0x00, 0xf0, 0x00, 0x00, 0xf0, 0x80, 0x3f, 0xf0, 0xf0, 0x68, 0xf0,
   0x18, 0xc7, 0xf0, 0x08, 0x8c, 0xf1, 0x1c, 0xdb, 0xf1, 0x34, 0x13, 0xf3,
   0x36, 0x30, 0xf2, 0x8e, 0x61, 0xf2, 0x9e, 0x43, 0xf2, 0x36, 0x41, 0xf3,
   0x1e, 0x80, 0xf1, 0xfe, 0xc0, 0xf3, 0xfc, 0xff, 0xf3, 0xf0, 0xff, 0xf1,
   0x80, 0x67, 0xf0, 0x00, 0x00, 0xf0, 0x00, 0x00, 0xf0, 0x00, 0x00, 0xf0};
