#define letter_width 20
#define letter_height 20
static unsigned char letter_bits[] = {
   0xff, 0xff, 0x0f, 0xff, 0xff, 0x0f, 0x03, 0x33, 0x0c, 0xc3, 0x6d, 0x0c,
   0x73, 0xce, 0x0d, 0x1f, 0xdd, 0x0d, 0x07, 0x96, 0x0d, 0x03, 0xbe, 0x0d,
   0x01, 0x1c, 0x0d, 0x01, 0x08, 0x0f, 0x01, 0x00, 0x0f, 0x01, 0x00, 0x0e,
   0x61, 0x00, 0x0c, 0x31, 0x00, 0x0c, 0x19, 0x00, 0x0c, 0x0f, 0x00, 0x08,
   0x63, 0x00, 0x08, 0x31, 0x02, 0x0c, 0x19, 0x01, 0x0f, 0xff, 0xff, 0x0f};
