#define letter2_width 20
#define letter2_height 20
static char letter2_bits[] = {
  0x00, 0x00, 0x00, 0x00, 0x00, 0x00, 0x00, 0x00, 0x00, 0x00, 0x00, 0x00, 
  0x00, 0x00, 0x00, 0xff, 0xff, 0x0f, 0x01, 0x00, 0x08, 0x1d, 0x00, 0x0b, 
  0x01, 0x00, 0x0b, 0x0d, 0x00, 0x08, 0x81, 0x3f, 0x08, 0x01, 0x00, 0x08, 
  0x81, 0x6f, 0x08, 0x01, 0x00, 0x08, 0x01, 0x00, 0x08, 0xff, 0xff, 0x0f, 
  0x00, 0x00, 0x00, 0x00, 0x00, 0x00, 0x00, 0x00, 0x00, 0x00, 0x00, 0x00, 
  };
