#define _width 20
#define _height 20

static unsigned char _bits[] = {
 0xfc, 0xff, 0x03, 0x66, 0x00, 0x06, 0x81, 0x00, 0x0c, 0x81, 0xfe, 0x09,
 0x81, 0xe0, 0x09, 0x81, 0xe0, 0x09, 0x81, 0xe0, 0x09, 0x81, 0xe0, 0x09,
 0x81, 0x00, 0x08, 0x81, 0x00, 0x08, 0x81, 0x00, 0x08, 0x81, 0x00, 0x08,
 0xff, 0xff, 0x0f, 0x00, 0x3e, 0x00, 0x00, 0x32, 0x00, 0x00, 0x22, 0x00,
 0x00, 0x22, 0x00, 0x00, 0x22, 0x00, 0x00, 0x22, 0x00, 0x00, 0x3e, 0x00
 };
