#define martini_width 20
#define martini_height 20
static unsigned char martini_bits[] = {
   0x00, 0x00, 0xf0, 0x00, 0x00, 0xf0, 0x00, 0x40, 0xf0, 0x00, 0x20, 0xf0,
   0xff, 0xff, 0xff, 0x06, 0x10, 0xf6, 0xfc, 0xff, 0xf3, 0x18, 0x88, 0xf1,
   0x30, 0xdc, 0xf0, 0x60, 0x7e, 0xf0, 0xc0, 0x3c, 0xf0, 0x80, 0x19, 0xf0,
   0x00, 0x0f, 0xf0, 0x00, 0x06, 0xf0, 0x00, 0x06, 0xf0, 0x00, 0x06, 0xf0,
   0x00, 0x06, 0xf0, 0x00, 0x06, 0xf0, 0x80, 0x19, 0xf0, 0xf0, 0xff, 0xf0};
