#define _width 20
#define _height 20

static unsigned char _bits[] = {
 0xfe, 0xff, 0x0f, 0x02, 0x04, 0x08, 0x03, 0x04, 0x08, 0xf3, 0xe4, 0x0f,
 0x83, 0x24, 0x08, 0x83, 0x24, 0x08, 0xf3, 0xe7, 0x09, 0x03, 0x00, 0x08,
 0x03, 0x00, 0x08, 0xf3, 0x3c, 0x0f, 0x93, 0x20, 0x09, 0x93, 0x20, 0x09,
 0x93, 0x27, 0x09, 0x93, 0x20, 0x09, 0x93, 0x20, 0x09, 0x93, 0x3c, 0x09,
 0x13, 0x00, 0x08, 0x13, 0x00, 0x08, 0xff, 0xff, 0x0f, 0xff, 0xff, 0x03
 };
