#define pencil3_width 20
#define pencil3_height 20
static unsigned char pencil3_bits[] = {
   0x00, 0x60, 0xf6, 0x00, 0x30, 0xf3, 0x00, 0x98, 0xf1, 0x00, 0xcc, 0xf8,
   0x00, 0x66, 0xfc, 0x00, 0x33, 0xf6, 0x80, 0x19, 0xf3, 0x80, 0x9f, 0xf1,
   0x80, 0xf8, 0xf8, 0xc0, 0x70, 0xfc, 0x40, 0xe0, 0xf6, 0x60, 0xc0, 0xf3,
   0x60, 0xc0, 0xf1, 0x30, 0x70, 0xf0, 0x10, 0x1c, 0xf0, 0x38, 0x06, 0xf0,
   0x78, 0x03, 0xf0, 0xfc, 0x01, 0xf0, 0x7c, 0x00, 0xf0, 0xfe, 0x7f, 0xf0};
