#define picture_width 20
#define picture_height 20
static unsigned char picture_bits[] = {
   0x00, 0x00, 0x00, 0xff, 0xff, 0x0f, 0x01, 0x00, 0x08, 0xfd, 0xff, 0x0b,
   0x05, 0x00, 0x0a, 0x05, 0x00, 0x0a, 0x05, 0x00, 0x0a, 0x05, 0x20, 0x0a,
   0x05, 0x70, 0x0a, 0x05, 0xd9, 0x0a, 0x85, 0x8a, 0x0a, 0x35, 0xa9, 0x0b,
   0x9d, 0xab, 0x0a, 0x0d, 0x01, 0x0a, 0x85, 0x02, 0x0a, 0x05, 0x00, 0x0a,
   0xfd, 0xff, 0x0b, 0x01, 0x00, 0x08, 0xff, 0xff, 0x0f, 0x00, 0x00, 0x00};
