#define root_width 20
#define root_height 20
static unsigned char root_bits[] = {
   0x00, 0x00, 0x00, 0x80, 0x25, 0x00, 0x80, 0x2f, 0x00, 0x80, 0x2f, 0x00,
   0x80, 0x27, 0x00, 0x80, 0x2f, 0x00, 0x80, 0x2f, 0x00, 0x80, 0x27, 0x00,
   0x80, 0x3f, 0x00, 0xc0, 0x7f, 0x00, 0xe0, 0xff, 0x00, 0xf0, 0xff, 0x03,
   0x7c, 0xdf, 0x02, 0x8e, 0x89, 0x05, 0xca, 0x10, 0x05, 0x4a, 0x11, 0x09,
   0x49, 0x98, 0x07, 0x54, 0xa9, 0x00, 0x04, 0x09, 0x00, 0x00, 0x00, 0x00};
