#define runner_width 20
#define runner_height 20
static unsigned char runner_bits[] = {
   0x00, 0x00, 0xf0, 0x00, 0x00, 0xf0, 0x00, 0x38, 0xf0, 0x00, 0x38, 0xf0,
   0xc0, 0xb7, 0xf1, 0xf0, 0xcf, 0xf1, 0x38, 0xfe, 0xf0, 0x18, 0x77, 0xf0,
   0x80, 0x03, 0xf0, 0x80, 0x03, 0xf0, 0xc0, 0x0f, 0xf0, 0xc0, 0x1e, 0xf0,
   0xe0, 0x38, 0xf0, 0x60, 0x1c, 0xf0, 0x70, 0x0e, 0xf0, 0x30, 0x07, 0xf0,
   0x38, 0x02, 0xf0, 0x1c, 0x00, 0xf0, 0x0c, 0x00, 0xf0, 0x00, 0x00, 0xf0};
