#define sage_width 20
#define sage_height 20
static unsigned char sage_bits[] = {
   0x00, 0x00, 0xf0, 0x00, 0x1c, 0xf0, 0x00, 0x32, 0xf0, 0x00, 0x3e, 0xf0,
   0x00, 0x5b, 0xf0, 0x80, 0xcf, 0xf0, 0xc0, 0x86, 0xf0, 0x60, 0x90, 0xf0,
   0xb0, 0xd3, 0xf0, 0x58, 0x5a, 0xf0, 0x38, 0xca, 0xf0, 0x10, 0xad, 0xf0,
   0x10, 0xb5, 0xf0, 0x10, 0x9d, 0xf0, 0x10, 0x81, 0xf1, 0x10, 0x91, 0xf1,
   0x90, 0x11, 0xf1, 0x90, 0x80, 0xf1, 0x90, 0xff, 0xf1, 0x00, 0x00, 0xf0};
