#define scissors_width 20
#define scissors_height 20
static char scissors_bits[] = {
  0x00, 0x00, 0x00, 0x00, 0x00, 0x00, 0x78, 0x00, 0x00, 0xf0, 0x00, 0x00, 
  0xe0, 0x01, 0x00, 0xc0, 0x03, 0x00, 0x80, 0x87, 0x07, 0x00, 0xcf, 0x0f, 
  0x00, 0xce, 0x0c, 0x00, 0xfc, 0x0c, 0xff, 0xef, 0x0f, 0xfe, 0xff, 0x07, 
  0xfc, 0xe7, 0x00, 0x00, 0xf0, 0x01, 0x00, 0x30, 0x03, 0x00, 0x30, 0x03, 
  0x00, 0xf0, 0x03, 0x00, 0xe0, 0x01, 0x00, 0x00, 0x00, 0x00, 0x00, 0x00, 
  };
