#define space_width 20
#define space_height 20
static unsigned char space_bits[] = {
   0xf9, 0xe7, 0x0f, 0xf9, 0xc3, 0x0f, 0xff, 0xc3, 0x0f, 0xef, 0xe7, 0x0f,
   0xff, 0xff, 0x03, 0xff, 0xff, 0x03, 0xdf, 0xff, 0x0f, 0xff, 0x7f, 0x0f,
   0xff, 0x3f, 0x0e, 0x9f, 0x7f, 0x0f, 0x9f, 0xfb, 0x0f, 0xff, 0xff, 0x0f,
   0xff, 0xff, 0x0f, 0xff, 0xff, 0x0f, 0xff, 0xff, 0x0f, 0xe3, 0xff, 0x0f,
   0xe3, 0xcf, 0x0f, 0xe3, 0xcf, 0x0f, 0xff, 0xff, 0x0f, 0xff, 0xff, 0x0f};
