#define tape_width 20
#define tape_height 20
static unsigned char tape_bits[] = {
   0x00, 0x00, 0x00, 0x00, 0x00, 0x00, 0xf0, 0x07, 0x00, 0xdc, 0x0e, 0x00,
   0xf6, 0x1b, 0x00, 0xfa, 0x37, 0x00, 0xff, 0x3f, 0x00, 0xfd, 0x2f, 0x00,
   0x3f, 0x3f, 0x00, 0x1f, 0xfe, 0x07, 0x1f, 0x1e, 0x0c, 0x3f, 0xef, 0x0f,
   0xfd, 0x5f, 0x0d, 0xff, 0xaf, 0x0a, 0xfb, 0x57, 0x0d, 0xf6, 0xab, 0x06,
   0xdc, 0x56, 0x03, 0xf0, 0xff, 0x01, 0x00, 0x00, 0x00, 0x00, 0x00, 0x00};
