#define terminal_tty_width 20
#define terminal_tty_height 20
static unsigned char terminal_tty_bits[] = {
   0x00, 0x00, 0x00, 0xfc, 0xff, 0x03, 0x02, 0x00, 0x04, 0xfa, 0xff, 0x05,
   0x0a, 0xfc, 0x05, 0xfa, 0xff, 0x05, 0xca, 0xff, 0x05, 0xfa, 0xff, 0x05,
   0x9a, 0x24, 0x05, 0xfa, 0xff, 0x05, 0x4a, 0xff, 0x05, 0xfa, 0xff, 0x05,
   0x02, 0x00, 0x04, 0xfc, 0xff, 0x03, 0x02, 0x00, 0x04, 0x02, 0x00, 0x04,
   0xfe, 0xff, 0x07, 0xab, 0xaa, 0x0a, 0x55, 0x55, 0x0d, 0xff, 0xff, 0x0f};
