#define tetris_width 20
#define tetris_height 20
static unsigned char tetris_bits[] = {
   0x00, 0x00, 0xf0, 0x00, 0x1e, 0xf0, 0x00, 0x12, 0xf0, 0x00, 0x12, 0xf0,
   0xff, 0xf3, 0xf7, 0x41, 0x10, 0xf4, 0x41, 0x10, 0xf4, 0x79, 0x1e, 0xf4,
   0x49, 0x12, 0xf4, 0x49, 0x12, 0xf4, 0xc9, 0xf3, 0xf7, 0x09, 0x92, 0xf0,
   0x09, 0x92, 0xf0, 0x7f, 0x92, 0xf0, 0x48, 0x92, 0xf0, 0x48, 0x92, 0xf0,
   0xcf, 0x93, 0xf7, 0x01, 0x12, 0xf4, 0x01, 0x12, 0xf4, 0xff, 0xff, 0xf7};
