#define _width 20
#define _height 20

static unsigned char _bits[] = {
 0x00, 0x02, 0x00, 0x00, 0x02, 0x00, 0x00, 0x07, 0x00, 0x80, 0x0d, 0x00,
 0x00, 0x07, 0x00, 0x80, 0x0a, 0x00, 0xc0, 0x1f, 0x00, 0x80, 0x0f, 0x00,
 0x40, 0x17, 0x00, 0xe0, 0x3d, 0x00, 0xc0, 0x1f, 0x00, 0xe0, 0x3f, 0x00,
 0xd8, 0xdf, 0x00, 0x70, 0x77, 0x00, 0xf8, 0xfd, 0x00, 0xfe, 0xff, 0x03,
 0x00, 0x00, 0x00, 0xc0, 0x1f, 0x00, 0x80, 0x0f, 0x00, 0x00, 0x00, 0x00
 };
