#define bandaid_width 24
#define bandaid_height 24
static unsigned char bandaid_bits[] = {
   0x00, 0x00, 0x06, 0x00, 0x00, 0x0f, 0x00, 0x80, 0x1f, 0x00, 0xc0, 0x3f,
   0x00, 0xe0, 0x7f, 0x00, 0xd8, 0xff, 0x00, 0xbc, 0xff, 0x00, 0x6e, 0x7f,
   0x00, 0xbb, 0x3e, 0x80, 0xee, 0x1d, 0xc0, 0xbb, 0x0b, 0xe0, 0xee, 0x06,
   0xa0, 0xbb, 0x07, 0xd0, 0xee, 0x02, 0xb8, 0xbb, 0x01, 0x7c, 0xef, 0x00,
   0xfe, 0x7a, 0x00, 0xff, 0x2d, 0x00, 0xff, 0x1b, 0x00, 0xfe, 0x07, 0x00,
   0xfc, 0x03, 0x00, 0xf8, 0x01, 0x00, 0xf0, 0x00, 0x00, 0x60, 0x00, 0x00};
