#define beer_width 24
#define beer_height 24
static unsigned char beer_bits[] = {
   0x00, 0x00, 0x00, 0x00, 0x0c, 0x00, 0x80, 0xf7, 0x00, 0xe0, 0x40, 0x07,
   0x20, 0x96, 0x0a, 0xe0, 0x3d, 0x09, 0x80, 0xe7, 0x11, 0xf0, 0x41, 0x37,
   0x98, 0x92, 0x24, 0x8c, 0x24, 0x25, 0xe4, 0x24, 0x15, 0xb4, 0x24, 0x1d,
   0x94, 0x24, 0x0d, 0x94, 0x24, 0x05, 0x94, 0x24, 0x05, 0xb4, 0x24, 0x05,
   0xe4, 0x24, 0x05, 0x8c, 0x24, 0x05, 0x98, 0x24, 0x05, 0xf0, 0x92, 0x04,
   0x80, 0x00, 0x04, 0x80, 0xff, 0x07, 0x00, 0xff, 0x03, 0x00, 0x00, 0x00};
