#define bug_width 24
#define bug_height 24
static unsigned char bug_bits[] = {
   0x00, 0x00, 0x00, 0x00, 0x00, 0x00, 0x00, 0xc0, 0x01, 0x00, 0xf0, 0x07,
   0x00, 0x98, 0x0d, 0x00, 0xcc, 0x08, 0x00, 0x66, 0x18, 0x00, 0x32, 0x18,
   0x00, 0x1b, 0x08, 0xc0, 0x09, 0x1c, 0xf0, 0x0f, 0x36, 0x70, 0x17, 0x67,
   0xf0, 0xfc, 0x4d, 0xa0, 0xab, 0x19, 0xe0, 0x3f, 0x33, 0xb0, 0x1d, 0x26,
   0x18, 0x0f, 0x08, 0x08, 0x02, 0x0c, 0x00, 0x02, 0x04, 0x00, 0x03, 0x00,
   0xc0, 0x01, 0x00, 0x00, 0x00, 0x00, 0x00, 0x00, 0x00, 0x00, 0x00, 0x00};
