#define dragon_small_width 24
#define dragon_small_height 24
static unsigned char dragon_small_bits[] = {
   0x80, 0x07, 0x3c, 0xce, 0x0f, 0x6e, 0xd8, 0x1c, 0x47, 0xf0, 0x98, 0x63,
   0x78, 0x98, 0x33, 0x74, 0xdc, 0x19, 0x7c, 0xee, 0x0c, 0x3e, 0xe7, 0x04,
   0x9f, 0xf3, 0x0c, 0xc6, 0xff, 0x1f, 0xc0, 0x4a, 0x3d, 0x80, 0x25, 0x79,
   0x00, 0xff, 0xe4, 0x00, 0xc0, 0xdf, 0x80, 0x1f, 0xd0, 0xe0, 0x7f, 0xb0,
   0xf0, 0xd8, 0xa0, 0x38, 0xb0, 0xb9, 0x19, 0x60, 0xcf, 0xf9, 0xcf, 0x75,
   0xf3, 0xbf, 0x3f, 0x02, 0x70, 0x00, 0xee, 0x61, 0x00, 0x38, 0x3f, 0x00};
