#define dynamite2_width 24
#define dynamite2_height 24
static unsigned char dynamite2_bits[] = {
   0x00, 0x00, 0x00, 0x00, 0x00, 0x01, 0x00, 0x00, 0x02, 0x00, 0xc0, 0x1d,
   0x00, 0x00, 0x32, 0x00, 0x00, 0x21, 0x00, 0x60, 0x30, 0x00, 0xf0, 0x1f,
   0x00, 0xf8, 0x03, 0x00, 0xdc, 0x03, 0x00, 0x8c, 0x07, 0x00, 0xe6, 0x07,
   0x00, 0xf2, 0x03, 0x00, 0xfb, 0x01, 0x80, 0xf1, 0x01, 0xc0, 0xfd, 0x00,
   0x40, 0x7e, 0x00, 0x60, 0x7c, 0x00, 0x70, 0x3f, 0x00, 0x38, 0x1f, 0x00,
   0x98, 0x0f, 0x00, 0x90, 0x0f, 0x00, 0xe0, 0x07, 0x00, 0xc0, 0x03, 0x00};
