#define face_cyclops_width 24
#define face_cyclops_height 24
static unsigned char face_cyclops_bits[] = {
   0x00, 0x00, 0x00, 0x00, 0x00, 0x00, 0x80, 0xff, 0x00, 0xf0, 0x80, 0x07,
   0x18, 0x00, 0x0c, 0x0c, 0x00, 0x18, 0x06, 0x7f, 0x30, 0x82, 0xc1, 0x20,
   0x83, 0x9c, 0x60, 0x81, 0x9c, 0x40, 0x81, 0xc1, 0x40, 0x01, 0x7f, 0x40,
   0x01, 0x00, 0x40, 0x21, 0x00, 0x42, 0x63, 0x00, 0x63, 0xc2, 0x80, 0x21,
   0x86, 0xff, 0x30, 0x0c, 0x2a, 0x18, 0x18, 0x22, 0x0c, 0xf0, 0x9c, 0x07,
   0x80, 0xff, 0x00, 0x00, 0x00, 0x00, 0x00, 0x00, 0x00, 0x00, 0x00, 0x00};
