#define font_width 24
#define font_height 24
static unsigned char font_bits[] = {
   0x00, 0x00, 0x00, 0x00, 0x00, 0x20, 0x00, 0x00, 0x30, 0x00, 0x00, 0x38,
   0x00, 0x00, 0x3c, 0x00, 0x00, 0x36, 0x00, 0x00, 0x33, 0x40, 0x80, 0x31,
   0xe0, 0xc0, 0x3f, 0xe0, 0x60, 0x30, 0xf0, 0x31, 0x30, 0xf0, 0x79, 0x78,
   0xf8, 0x03, 0x00, 0x98, 0x03, 0x0e, 0x9c, 0x07, 0x1f, 0x0c, 0x87, 0x3c,
   0xfe, 0x8f, 0x38, 0xfe, 0xcf, 0x30, 0x07, 0xde, 0x30, 0x03, 0xdc, 0x30,
   0x00, 0xc0, 0x30, 0x00, 0xc0, 0x38, 0x00, 0xc0, 0xf7, 0x00, 0x80, 0x63};
