#define fruit_width 24
#define fruit_height 24
static unsigned char fruit_bits[] = {
   0x00, 0x00, 0x00, 0x00, 0x00, 0x00, 0x00, 0x00, 0x00, 0x00, 0x00, 0x00,
   0x00, 0xe0, 0x00, 0x00, 0x20, 0x71, 0x00, 0x40, 0x4a, 0x10, 0x80, 0x2f,
   0x30, 0x00, 0x1c, 0x20, 0x00, 0x06, 0x58, 0xc3, 0x1f, 0xec, 0x66, 0x3a,
   0x42, 0x27, 0x70, 0x83, 0x1f, 0x70, 0x21, 0x1f, 0xfa, 0xc1, 0x1f, 0xf8,
   0xd3, 0x1f, 0xfe, 0xd6, 0xbf, 0xff, 0xfe, 0xa7, 0x7f, 0xfc, 0xe7, 0x3f,
   0xf8, 0xc3, 0x1f, 0xf0, 0x00, 0x07, 0x00, 0x00, 0x00, 0x00, 0x00, 0x00};
