#define lightbulb_width 24
#define lightbulb_height 24
static unsigned char lightbulb_bits[] = {
   0x00, 0x7e, 0x00, 0x80, 0xc3, 0x01, 0xc0, 0x00, 0x03, 0x40, 0x00, 0x02,
   0x60, 0x00, 0x06, 0x30, 0x00, 0x0c, 0x10, 0x18, 0x08, 0x10, 0x6e, 0x08,
   0x10, 0x42, 0x08, 0x30, 0x42, 0x0c, 0x60, 0x24, 0x06, 0xc0, 0x24, 0x02,
   0x80, 0x5e, 0x03, 0x80, 0x2c, 0x01, 0x80, 0xa5, 0x01, 0x00, 0xad, 0x00,
   0x00, 0xe7, 0x00, 0x00, 0x7e, 0x00, 0x00, 0x5a, 0x00, 0x00, 0x66, 0x00,
   0x00, 0x7e, 0x00, 0x00, 0x5a, 0x00, 0x00, 0x66, 0x00, 0x00, 0x3c, 0x00};
