#define magnify_width 24
#define magnify_height 24
static unsigned char magnify_bits[] = {
   0x00, 0x00, 0x00, 0x00, 0x00, 0x00, 0xc0, 0x03, 0x00, 0xf0, 0x0f, 0x00,
   0x78, 0x1e, 0x00, 0x1c, 0x38, 0x00, 0xdc, 0x70, 0x00, 0x6e, 0x70, 0x00,
   0xae, 0x60, 0x00, 0x4e, 0x60, 0x00, 0x2e, 0x60, 0x00, 0x0e, 0x70, 0x00,
   0x1c, 0x30, 0x00, 0x38, 0x3c, 0x00, 0xf8, 0x7f, 0x00, 0xe0, 0xff, 0x00,
   0xc0, 0xe3, 0x01, 0x00, 0xc0, 0x03, 0x00, 0x80, 0x07, 0x00, 0x00, 0x0f,
   0x00, 0x00, 0x1e, 0x00, 0x00, 0x1c, 0x00, 0x00, 0x08, 0x00, 0x00, 0x00};
