#define monster2_width 24
#define monster2_height 24
static unsigned char monster2_bits[] = {
   0xe0, 0xff, 0x0f, 0x30, 0x00, 0x18, 0xd0, 0xc7, 0x17, 0xd0, 0xef, 0x17,
   0x10, 0xef, 0x11, 0x98, 0xaa, 0x32, 0xb4, 0xaa, 0x5a, 0xa4, 0xab, 0x4b,
   0xa8, 0xab, 0x2b, 0x2c, 0x28, 0x68, 0x24, 0x6c, 0x48, 0x38, 0xaa, 0x38,
   0x10, 0x82, 0x10, 0x10, 0x7c, 0x10, 0x10, 0x00, 0x10, 0x14, 0xfe, 0x50,
   0x1e, 0x83, 0xf1, 0x7a, 0x00, 0xbc, 0xbe, 0x38, 0xfa, 0xa4, 0x01, 0x4b,
   0x20, 0x83, 0x09, 0x20, 0xc6, 0x08, 0x20, 0x7c, 0x08, 0x20, 0x00, 0x08};
