#define pin_width 24
#define pin_height 24
static unsigned char pin_bits[] = {
   0x00, 0xfc, 0x00, 0x00, 0xe6, 0x01, 0x00, 0xe7, 0x03, 0x00, 0xff, 0x03,
   0x80, 0xff, 0x07, 0x80, 0xff, 0x07, 0x80, 0xff, 0x07, 0x80, 0xff, 0x03,
   0x00, 0x7f, 0x03, 0x00, 0x8f, 0x01, 0x80, 0xfe, 0x00, 0x40, 0x7b, 0x00,
   0xa0, 0x01, 0x00, 0xd0, 0x00, 0x00, 0x68, 0x00, 0x00, 0x38, 0x00, 0x00,
   0x78, 0xf0, 0x02, 0xc0, 0xfd, 0x07, 0x00, 0x3e, 0x0d, 0x00, 0xdc, 0x16,
   0x00, 0x78, 0x0d, 0x00, 0xc8, 0x13, 0x00, 0x70, 0x0e, 0x00, 0xc0, 0x03};
