#define pirate_width 24
#define pirate_height 24
static unsigned char pirate_bits[] = {
   0x20, 0x8e, 0x08, 0xe0, 0xff, 0x08, 0x80, 0x2a, 0x08, 0x80, 0x31, 0x08,
   0x00, 0x1b, 0x08, 0x00, 0x0a, 0x08, 0xe0, 0x7f, 0x08, 0x38, 0xce, 0x08,
   0x0c, 0x84, 0x1d, 0x74, 0x40, 0x0f, 0xde, 0xe0, 0x0c, 0x82, 0xb1, 0x07,
   0x0a, 0x1f, 0x00, 0x0e, 0x15, 0x00, 0x84, 0x3f, 0x00, 0x80, 0x3f, 0x00,
   0xc0, 0x7f, 0x00, 0xc0, 0x71, 0x00, 0xc0, 0x71, 0x00, 0x80, 0xe0, 0x00,
   0x80, 0xe0, 0x00, 0x80, 0xc0, 0x00, 0x80, 0xc0, 0x01, 0x80, 0xc0, 0x01};
