#define rocket_width 24
#define rocket_height 24
static unsigned char rocket_bits[] = {
   0x00, 0x00, 0x00, 0x00, 0x00, 0x00, 0x00, 0x80, 0xff, 0x00, 0x00, 0xff,
   0x00, 0x00, 0xfe, 0x00, 0x00, 0xfd, 0x00, 0x80, 0xfe, 0x00, 0x40, 0xff,
   0x00, 0xa0, 0xff, 0x00, 0xd0, 0xcf, 0x00, 0xe8, 0x87, 0x00, 0xf4, 0x03,
   0x00, 0xfa, 0x03, 0x00, 0xfd, 0x03, 0x80, 0xfe, 0x01, 0x40, 0xff, 0x00,
   0xe0, 0x7f, 0x00, 0xc0, 0x3f, 0x00, 0x80, 0x1f, 0x00, 0x00, 0x0f, 0x00,
   0x00, 0x07, 0x00, 0x80, 0x03, 0x00, 0xc0, 0x01, 0x00, 0xe0, 0x00, 0x00};
