#define runner_width 24
#define runner_height 24
static unsigned char runner_bits[] = {
   0x00, 0x00, 0x00, 0x00, 0x80, 0x00, 0x00, 0xc0, 0x01, 0x00, 0xe0, 0x03,
   0x00, 0xc0, 0x19, 0x00, 0x9f, 0x1c, 0xc0, 0x3f, 0x0e, 0xc0, 0x78, 0x07,
   0x60, 0xfc, 0x03, 0x30, 0xd8, 0x01, 0x30, 0x16, 0x00, 0x00, 0x0f, 0x00,
   0x00, 0x1e, 0x00, 0x80, 0x39, 0x00, 0x80, 0x73, 0x00, 0xc0, 0xe1, 0x00,
   0xc0, 0x90, 0x00, 0xe0, 0x78, 0x00, 0x70, 0x38, 0x00, 0x70, 0x18, 0x00,
   0x38, 0x00, 0x00, 0x18, 0x00, 0x00, 0x1c, 0x00, 0x00, 0x0c, 0x00, 0x00};
