#define shapes_width 24
#define shapes_height 24
static unsigned char shapes_bits[] = {
   0x00, 0x00, 0x00, 0x00, 0x08, 0x00, 0x00, 0x08, 0x00, 0x00, 0x08, 0x00,
   0x00, 0x1c, 0x00, 0x00, 0x14, 0x3e, 0x00, 0x34, 0x63, 0x00, 0xb2, 0xc1,
   0x00, 0xb2, 0xe3, 0x00, 0xf2, 0xfe, 0x00, 0xf1, 0xe0, 0xf0, 0xe7, 0xf0,
   0x08, 0xf4, 0xe0, 0x04, 0xe6, 0xf0, 0x02, 0xf7, 0xe0, 0xff, 0xe7, 0xf0,
   0x01, 0xf7, 0xe0, 0x01, 0xe7, 0xf0, 0x01, 0xbf, 0xe0, 0x01, 0x87, 0xf0,
   0x01, 0x07, 0x61, 0x01, 0x03, 0x3e, 0x01, 0x03, 0x00, 0xff, 0x01, 0x00};
