#define skull_width 24
#define skull_height 24
static unsigned char skull_bits[] = {
   0x00, 0xfe, 0x00, 0x80, 0x83, 0x01, 0xc0, 0x00, 0x03, 0x60, 0x00, 0x06,
   0x20, 0x00, 0x04, 0x30, 0x00, 0x0c, 0x10, 0x00, 0x08, 0x10, 0x00, 0x0c,
   0x10, 0x00, 0x08, 0x70, 0x00, 0x0e, 0x20, 0x83, 0x04, 0xa0, 0xef, 0x05,
   0xa0, 0xe7, 0x05, 0xb0, 0xd3, 0x0c, 0x10, 0x38, 0x08, 0x60, 0x38, 0x0c,
   0xc0, 0x78, 0x07, 0xc0, 0x20, 0x07, 0xc0, 0x00, 0x06, 0xc0, 0xab, 0x03,
   0x80, 0xfe, 0x02, 0x80, 0x95, 0x01, 0x00, 0xc3, 0x00, 0x00, 0x7e, 0x00};
