#define spider_width 24
#define spider_height 24
static unsigned char spider_bits[] = {
   0x00, 0x00, 0x00, 0x00, 0x00, 0x00, 0x00, 0x00, 0x10, 0x10, 0x00, 0x18,
   0x10, 0x00, 0x0c, 0x10, 0x12, 0x04, 0x30, 0x1e, 0x46, 0x63, 0x1e, 0x73,
   0xc6, 0x0c, 0x19, 0x9c, 0xff, 0x0d, 0x30, 0x1e, 0x06, 0xe0, 0xff, 0x03,
   0x00, 0x3f, 0x00, 0xf8, 0xed, 0x07, 0xcc, 0xde, 0x1c, 0x66, 0xbf, 0x31,
   0xb3, 0x7f, 0x03, 0x98, 0x7f, 0x02, 0x8c, 0x7f, 0x02, 0x84, 0x7f, 0x06,
   0x86, 0x7f, 0x04, 0x02, 0x3f, 0x0c, 0x02, 0x1e, 0x08, 0x00, 0x00, 0x00};
