#define startrek_width 24
#define startrek_height 24
static unsigned char startrek_bits[] = {
   0x00, 0x00, 0x00, 0x00, 0x10, 0x00, 0x00, 0x30, 0x00, 0x00, 0x38, 0x00,
   0x00, 0x68, 0x00, 0x00, 0x4c, 0x00, 0x00, 0xcc, 0x00, 0x00, 0xc6, 0x01,
   0xc0, 0x87, 0x07, 0xf0, 0x87, 0x1f, 0xf8, 0x03, 0x3f, 0x3c, 0x02, 0x79,
   0x1c, 0x03, 0x73, 0x1c, 0x01, 0x36, 0xb8, 0x21, 0x3e, 0xf0, 0x71, 0x1e,
   0xe0, 0xf8, 0x0c, 0xc0, 0xfc, 0x0d, 0xc0, 0xfe, 0x0b, 0x40, 0x03, 0x0e,
   0x40, 0x01, 0x0c, 0xc0, 0x00, 0x08, 0x40, 0x00, 0x00, 0x00, 0x00, 0x00};
