#define tapes_width 24
#define tapes_height 24
static unsigned char tapes_bits[] = {
   0x00, 0x0c, 0x00, 0x00, 0x1e, 0x00, 0x00, 0x37, 0x03, 0x80, 0xe3, 0x07,
   0xc0, 0xdd, 0x0c, 0xe0, 0x76, 0x18, 0x70, 0xba, 0x37, 0x38, 0xde, 0x6c,
   0x1c, 0x4c, 0xcb, 0xce, 0x46, 0x8b, 0x67, 0xc3, 0xcc, 0xe7, 0x81, 0x67,
   0xce, 0x38, 0x31, 0xdc, 0xa9, 0x18, 0xb8, 0x7b, 0x0c, 0x78, 0x07, 0x06,
   0xec, 0x0e, 0x03, 0xd8, 0x9f, 0x01, 0xb0, 0xfb, 0x00, 0x60, 0x71, 0x00,
   0xc0, 0x38, 0x00, 0x80, 0x0d, 0x00, 0x00, 0x07, 0x00, 0x00, 0x02, 0x00};
