#define troll_width 24
#define troll_height 24
static unsigned char troll_bits[] = {
   0x00, 0x4c, 0x08, 0x00, 0xd8, 0x6c, 0x00, 0xb0, 0x36, 0x00, 0xac, 0xda,
   0x00, 0x58, 0x29, 0x00, 0xb0, 0x76, 0x06, 0xc0, 0xcb, 0x0f, 0x40, 0x36,
   0x1f, 0xff, 0xcb, 0x9f, 0x40, 0x34, 0xbe, 0xb8, 0xdd, 0x3c, 0x4f, 0x35,
   0x78, 0x20, 0x2c, 0xe0, 0x58, 0x08, 0xe0, 0x7f, 0x09, 0x40, 0x00, 0x09,
   0x80, 0xff, 0x08, 0x00, 0x08, 0x08, 0x00, 0x08, 0x0c, 0x00, 0x18, 0x04,
   0x00, 0xf0, 0x07, 0x00, 0x20, 0x03, 0x00, 0x78, 0x01, 0x00, 0xfc, 0x03};
