#define balloon_width 16
#define balloon_height 20
static unsigned char balloon_bits[] = {
   0xe0, 0x03, 0xf8, 0x0f, 0x8c, 0x1f, 0xe6, 0x3f, 0xf2, 0x3f, 0xfb, 0x7f,
   0xf9, 0x7f, 0xfd, 0x7f, 0xff, 0x7f, 0xff, 0x7f, 0xfe, 0x3f, 0xfe, 0x3f,
   0xfc, 0x1f, 0xf8, 0x0f, 0xf0, 0x03, 0xe0, 0x01, 0xc0, 0x00, 0xc0, 0x00,
   0x80, 0x00, 0x00, 0x01};
