#define _width 24
#define _height 18

static unsigned char _bits[] = {
 0xf8, 0xc7, 0x1f, 0x0c, 0x28, 0x30, 0x0a, 0x10, 0x50, 0x09, 0x18, 0x90,
 0x09, 0x10, 0x90, 0x09, 0x18, 0x90, 0x09, 0x10, 0x90, 0x09, 0x18, 0x90,
 0x09, 0x10, 0x90, 0x09, 0x18, 0x90, 0x09, 0x10, 0x90, 0x09, 0x18, 0x90,
 0x09, 0x10, 0x90, 0xf9, 0xd7, 0x9f, 0x05, 0x38, 0xa0, 0x03, 0x10, 0xc0,
 0xff, 0xc7, 0xff, 0x00, 0x7c, 0x00 };
