#define _width 24
#define _height 16

static unsigned char _bits[] = {
 0x00, 0x38, 0x00, 0xdf, 0x6c, 0x3e, 0xdf, 0xc6, 0x3e, 0xfe, 0xff, 0x7f,
 0x07, 0x00, 0xe0, 0xff, 0xbb, 0xff, 0xff, 0xff, 0xff, 0xff, 0xc7, 0xff,
 0xff, 0xbb, 0xff, 0xcf, 0x45, 0xff, 0xcf, 0x45, 0xff, 0xcf, 0x45, 0xff,
 0xff, 0xbb, 0xff, 0xff, 0xc7, 0xff, 0xff, 0xff, 0xff, 0xfe, 0xff, 0x7f
 };
