#define _width 16
#define _height 24

static unsigned char _bits[] = {
 0xf8, 0x1f, 0x04, 0x20, 0xf8, 0x7f, 0x10, 0x40, 0xf8, 0x4f, 0x04, 0x50,
 0x24, 0x52, 0x74, 0x57, 0x24, 0x52, 0x3e, 0x5f, 0x22, 0x51, 0xda, 0x56,
 0x0a, 0x54, 0x0a, 0x54, 0x0a, 0x54, 0x0a, 0x54, 0x0a, 0x54, 0x0a, 0x54,
 0x0a, 0x54, 0x0a, 0x54, 0x0a, 0x54, 0xfa, 0x57, 0x02, 0x30, 0xfe, 0x1f
 };
