#define _width 12
#define _height 20

static unsigned char _bits[] = {
 0xf0, 0x00, 0xf8, 0x01, 0xfc, 0x03, 0xfc, 0x03, 0xf8, 0x01, 0xf4, 0x02,
 0x08, 0x01, 0xf8, 0x01, 0xf8, 0x01, 0xf8, 0x01, 0xfc, 0x03, 0xfc, 0x03,
 0xfc, 0x03, 0xfe, 0x07, 0xfa, 0x05, 0x67, 0x0e, 0x9f, 0x0f, 0xfe, 0x07,
 0xfc, 0x03, 0xf0, 0x00 };
