#define _width 18
#define _height 22

static unsigned char _bits[] = {
 0x80, 0x03, 0x00, 0xfe, 0xfe, 0x00, 0x41, 0x04, 0x01, 0x7d, 0x7c, 0x01,
 0xc5, 0x47, 0x03, 0x05, 0x40, 0x03, 0x05, 0x40, 0x03, 0x05, 0x40, 0x03,
 0x05, 0x40, 0x03, 0x05, 0x40, 0x03, 0x05, 0x40, 0x03, 0x05, 0x40, 0x03,
 0x05, 0x40, 0x03, 0x05, 0x40, 0x03, 0x05, 0x40, 0x03, 0x05, 0x40, 0x03,
 0x05, 0x40, 0x03, 0x05, 0x40, 0x03, 0xfd, 0x7f, 0x03, 0x01, 0x00, 0x03,
 0xfe, 0xff, 0x03, 0xf8, 0xff, 0x01 };
