#define _width 20
#define _height 16

static unsigned char _bits[] = {
 0x00, 0x00, 0x00, 0xf0, 0xff, 0x00, 0xb0, 0xff, 0x07, 0xb0, 0xff, 0x0f,
 0xb0, 0xff, 0x0c, 0xb0, 0xff, 0x0c, 0xb0, 0xff, 0x0f, 0xb0, 0xff, 0x07,
 0xb0, 0xff, 0x00, 0x70, 0xff, 0x00, 0xe0, 0x7f, 0x00, 0x00, 0x00, 0x00,
 0xff, 0xff, 0x0f, 0xfe, 0xff, 0x07, 0xf8, 0xff, 0x01, 0x00, 0x00, 0x00
 };
