#define desk_width 32
#define desk_height 16
static char desk_bits[] = {
 0xfc,0xff,0xff,0x1f,0xfe,0xff,0xff,0x3f,0xff,0xff,0xff,0xff,0xff,0xff,0xff,
 0xff,0x00,0x00,0x00,0x00,0xfe,0xfd,0x7f,0x7f,0xce,0x3d,0x78,0x73,0xfe,0xfd,
 0x7f,0x7f,0x00,0x00,0x00,0x00,0xfe,0xfd,0x7f,0x7f,0xce,0xfd,0x7f,0x73,0xfe,
 0xfd,0x7f,0x7f,0x00,0xfc,0x7f,0x00,0xfe,0x05,0x40,0x7f,0xce,0x05,0x40,0x73,
 0xfe,0x01,0x00,0x7f };
