#define mage_width 16
#define mage_height 24
static char mage_bits[] = {
  0x0c, 0x00, 0xd2, 0x01, 0xf2, 0x03, 0x2c, 0x02, 0xac, 0x02, 0x7c, 0x07, 
  0xdc, 0x0b, 0xcc, 0x19, 0x8c, 0x10, 0x0c, 0x30, 0x0e, 0x20, 0x0a, 0x28, 
  0x1a, 0x28, 0x3e, 0x2c, 0xdc, 0x5a, 0x18, 0xe9, 0x18, 0x09, 0x18, 0x09, 
  0x98, 0x0a, 0x18, 0x09, 0x18, 0x10, 0x18, 0x10, 0xfc, 0x3f, 0x00, 0x00, 
  };
