#define mouse_width 22
#define mouse_height 9
static unsigned char mouse_bits[] = {
   0x20, 0x00, 0x10, 0x60, 0x7c, 0x20, 0x7c, 0xff, 0x21, 0xde, 0xff, 0x23,
   0xff, 0xff, 0x27, 0xfc, 0xff, 0x37, 0xb0, 0xff, 0x1d, 0x80, 0xba, 0x01,
   0xc0, 0x04, 0x03};
