#define noname_width 30
#define noname_height 15
static char noname_bits[] = {
 0x00,0x00,0x02,0x00,0x00,0x00,0x07,0x00,0x00,0x18,0x07,0x00,0x00,0x58,0x06,
 0x00,0x00,0xf0,0x3f,0x00,0xff,0xff,0xff,0x1f,0x00,0xfc,0xff,0x3f,0xc0,0x7f,
 0xd5,0x3f,0xf8,0xff,0xff,0x3f,0xfe,0xff,0xff,0x3f,0xff,0xff,0xff,0x3f,0x57,
 0x55,0x55,0x35,0xee,0xee,0xee,0x2e,0xec,0xee,0xee,0x1e,0x50,0x55,0x55,0x05};
