#define noname_width 14
#define noname_height 27
static char noname_bits[] = {
 0x55,0x3c,0x55,0x3e,0x55,0x3e,0x55,0x3e,0x55,0x3e,0x7f,0x3e,0x7f,0x3e,0x7f,
 0x3e,0x3e,0x3e,0x1c,0x3e,0x1c,0x3e,0x1c,0x3e,0x1c,0x3e,0x1c,0x3e,0x1c,0x3e,
 0x1c,0x38,0x1c,0x38,0x1c,0x38,0x1c,0x38,0x1c,0x38,0x1c,0x38,0x1c,0x38,0x1c,
 0x38,0x1c,0x38,0x1c,0x38,0x1c,0x38,0x1c,0x38};
