#define tractor_width 23
#define tractor_height 15
static char tractor_bits[] = {
 0x00,0x00,0x07,0x00,0x00,0x07,0x00,0x00,0x0f,0x00,0x10,0x1c,0xff,0x37,0x1c,
 0xff,0xd7,0x3f,0x03,0x2c,0x3f,0xf3,0xcd,0x3f,0xfa,0xcd,0x31,0xfe,0xed,0x60,
 0xf2,0xfd,0x64,0xe6,0xff,0x60,0x0f,0x80,0x31,0x0f,0x80,0x3f,0x06,0x00,0x0e
 };
