#define train2_width 32
#define train2_height 20
static char train2_bits[] = {
 0x00,0x00,0x00,0x00,0x00,0xe8,0xff,0x03,0x00,0x00,0x40,0x03,0x00,0x00,0x00,
 0x04,0x00,0x00,0x00,0x06,0xf8,0x1f,0x00,0x06,0xf0,0x1f,0x30,0x00,0xa0,0x1a,
 0x20,0x06,0xa0,0xfa,0xff,0x07,0xe0,0xff,0xff,0x07,0xe0,0xff,0xff,0x0f,0xf0,
 0xff,0xff,0x1f,0xf0,0xff,0xff,0x3f,0xf0,0xaa,0xff,0x7f,0xc0,0xf7,0xc1,0x03,
 0x80,0xe3,0x80,0x01,0xfe,0xff,0xff,0x7f,0xfe,0xff,0xff,0x7f,0x00,0x00,0x00,
 0x01,0x00,0x00,0x00,0x00 };
