#define _width 32
#define _height 16

static unsigned char _bits[] = {
 0x00, 0x00, 0x00, 0x00, 0x00, 0xff, 0xff, 0x4f, 0x00, 0x01, 0x00, 0x78,
 0x00, 0x55, 0xf5, 0x6f, 0x80, 0xa9, 0xfa, 0x7f, 0x8e, 0x55, 0x55, 0x4d,
 0xba, 0xaa, 0x1a, 0x08, 0xea, 0x00, 0x10, 0x08, 0xae, 0xaa, 0x5a, 0x0a,
 0xee, 0x00, 0x10, 0x08, 0xba, 0xaa, 0x1a, 0x08, 0x8e, 0xff, 0xff, 0x07,
 0x80, 0xfe, 0x11, 0x02, 0x00, 0xff, 0xff, 0x01, 0x00, 0x78, 0x1e, 0x00,
 0x00, 0x00, 0x00, 0x00 };
