/* XPM */
static char *xxx[]={
"16 16 3 1",
"# c #000000",
"b c #ff0000",
". c #ffffff",
"................",
"##............##",
"#b#..........#b#",
"bbb#.......##bb#",
"#bbb#.....#bbbb#",
"#bbbb#.##.#bbbb#",
"#bbb#b#bb##bbb#.",
".#b#b##bb#b#b#..",
"..#.###bb#b###..",
".....#b##b###bb#",
"....#bb#.#bb#.bb",
"...#bbb#.#bbb#..",
"...#bbb#..#bb#..",
"...#bb#....#bb#.",
"..#b##......#b#.",
"..##.........##."};
