/* XPM */
static char *butterfly2[]={
"16 16 3 1",
"# c #000000",
"a c #0000ff",
". c #ffffff",
"...........####.",
"..........#a..##",
".......#.#a..a.#",
"......#..#a.aa.#",
"......#.#aa.aa.#",
"......#.#a.aa.#.",
"...#####.aa.a.#.",
"..#...###.aaa.#.",
"....##.###.aaa.#",
"..##aaa.###.aa.#",
".#aaa.aa.##.aa.#",
"#a...a.aa..#.a.#",
"#..aaaaaaaa.####",
"#.aaa...aaaa#..#",
"##...###....#...",
".####...######.."};
