/* XPM */
static char *hand_out[]={
"16 16 3 1",
"# c #000000",
"a c #ff0000",
". c #ffffff",
"................",
"........###.....",
".......##.#.....",
"......##..#.....",
".....##..#####..",
"######..##....#.",
"...#.......#####",
"aaa#...........#",
"aaa#.......#####",
"aaa#..........#.",
"aaa###....#####.",
"####.###.....#..",
".......######...",
"................",
"................",
"................"};
