/* XPM */
static char *home3[]={
"16 16 3 1",
"# c #000000",
"a c #ff0000",
". c #ffffff",
"................",
"................",
".......##.......",
"......#aa#.###..",
"....##a##a##a#..",
"....#a#..#a#a#..",
"..##a#....#a##..",
".#aa#......#aa#.",
"#a##........##a#",
"###.###.####.###",
"..#.#a#.#a##.#..",
"..#.#a#.#.a#.#..",
"..#.#a#.####.#..",
"..#.#a#......#..",
"#.#.#a#......#.#",
"................"};
