/* XPM */
static char *monster[]={
"16 16 3 1",
"# c #000000",
"a c #00ff00",
". c #ffffff",
"........#.#.....",
".......###a#....",
".....########...",
"....####..##....",
"...##aaa#..##...",
"..########......",
".#..#aa#.####...",
"#.#.###....#....",
"#...#aa#.....##.",
".#..####.#..#..#",
"....#aa#..###.##",
"...#######...##.",
"..###aaa###a##..",
"..##.###.##aa#..",
".###.....###....",
"................"};
