#define hand_out_width 32
#define hand_out_height 20
static char hand_out_bits[] = {
 0x00,0x00,0x00,0x00,0x00,0x00,0x38,0x00,0x00,0x00,0x2e,0x00,0x00,0x80,0x23,
 0x00,0x00,0xf0,0x30,0x00,0x00,0x1c,0x18,0x00,0x00,0x06,0xfc,0x1f,0x7f,0x03,
 0x04,0x20,0xc0,0x01,0x80,0x28,0x40,0x00,0xe0,0x7f,0x40,0x00,0x00,0x40,0x40,
 0x00,0x80,0x44,0x55,0x00,0xe0,0x7f,0x7b,0x00,0x00,0x20,0xff,0x01,0x40,0x32,
 0xff,0x0f,0xf0,0x1f,0x3f,0x9c,0x00,0x04,0x00,0xf0,0x24,0x06,0x00,0x80,0xff,
 0x03,0x00,0x00,0x00,0x00 };
