#define icecream_width 16
#define icecream_height 24
static char icecream_bits[] = {
  0x00, 0x00, 0x00, 0x00, 0x00, 0x60, 0x00, 0xe0, 0x80, 0x70, 0xc0, 0x73, 
  0x60, 0x3e, 0xb0, 0x1c, 0x58, 0x1c, 0x8c, 0x12, 0x84, 0x30, 0x8c, 0x23, 
  0xf8, 0x3e, 0x58, 0x1b, 0xf0, 0x0e, 0xb0, 0x0d, 0x60, 0x0f, 0xe0, 0x06, 
  0xe0, 0x06, 0x40, 0x03, 0xc0, 0x03, 0xc0, 0x01, 0x80, 0x01, 0x80, 0x00, 
  };
