/* XPM */
static char *biplane[]={
"24 24 3 1",
"# c #000000",
"a c #ff0000",
". c #ffffff",
"..............#####.....",
".............##....##...",
"............#.#......#..",
"............#.#.aaa..#..",
"............#.#.a..a.#..",
"............#.#.a..a.#..",
"............#.#.aaa..#..",
"............#.#......#..",
"##..........#.#......#..",
"aa##...######....#...#.#",
"..a.###aaa.###..####.#a#",
"####......#...#..#...###",
"..a.###aaa.###..####.#a#",
"aa##...######....#...#.#",
"##..........#.#......#..",
"............#.#......#..",
"............#.#.aaa..#..",
"............#.#.a..a.#..",
"............#.#.a..a.#..",
"............#.#.aaa..#..",
"............#.#......#..",
".............##....##...",
"..............#####.....",
"........................"};
