/* XPM */
static char *bow[]={
"24 24 3 1",
"# c #000000",
"a c #ff0000",
". c #ffffff",
"........................",
"........................",
".....................#..",
".##................##a#.",
"#aa##.............#aaa##",
"#aaaa##..........#aaaaa#",
"#aaaaaa#........#aaaaa#.",
".#aa#####..###.###aaaa#.",
".#aaaaa####aaa##a#aaaa#.",
".#aaaaaa##aaaa#aaaaaa#a.",
"aa#a######aaaa######a#..",
"aaa#aaaaa#aaa##aaaaa#...",
"...##aa##########a###...",
".....##..#a#aa#aaaa.....",
"........#aa###a##aaaaa..",
".......#aa#..#aaa#aaaaaa",
"......#aaa#...#aaa#....a",
"......#aaa#...#aaaa#....",
".....#aaaa#....#aaaa#...",
".....#aaaa#.....#aaa#...",
"....#aaa##.......#aaa#..",
"....#aa#.........#aa##..",
"....#a#..........#aa#...",
"....##............##...."};
