/* XPM */
static char *bsd_daemon[]={
"24 24 3 1",
"a c #000000",
"# c #ff0000",
". c #ffffff",
"........###.............",
".......##a......#.......",
".......#a.......##......",
".......#######..##a.....",
"........##########a.....",
"........#.a#.a###aa.....",
"........#..#..##aa......",
".......#########a.......",
"......###..a####a.......",
"......###aa####a........",
"......##.##.##aa........",
".......##..##aa.........",
".###....####aa..........",
"...#.##..aaa#a..........",
"####a##a##a###a.........",
"...#.#a.#a###aa.........",
".###.....####aa.........",
"........#a##a#a.........",
"........##aa#######.....",
".........######aaaa###..",
".......###a###a....aaa#.",
".....####a###a.###....##",
".....##aa####a.##....#a.",
".........##aa..#.####a.."};
