/* XPM */
static char *dog3[]={
"24 24 3 1",
"# c #000000",
"a c #ff0000",
". c #ffffff",
"........................",
"............###.........",
"...........##aa###......",
"....##.....#aaaaa###....",
"...#aa#...#aaaaaaaa##...",
"...#aa##..#aaa#aaaa#....",
"..#aaaa#####aa###a#.....",
".#aaa##a###aaaaa##......",
".#aa#.#aa#.#aaaaa##.....",
"..###.###..###aaaaa#....",
".......#....#.##aaa#....",
"###..####.......aa###...",
"#aa##...........#aa#....",
"##aa............#a###...",
"#...............#a#.#...",
"#...............#a#.....",
"...............######...",
"...##.......###aaa##....",
"##..#......##a#aaaa##...",
".#####..##a.#aaaaaaa#...",
".....###aa.#aaaaaaaa##..",
"....##aa#.##aaa#aaaaa#..",
"....#aa####aaa##aaaaaa#.",
"....####aaaaaaa##aaaaa##"};
