/* XPM */
static char *dophin[]={
"24 24 3 1",
"# c #000000",
"a c #0000ff",
". c #ffffff",
"........................",
"........................",
"...........#............",
"..........##............",
".........###............",
"........####............",
".......######...........",
"......##########........",
"......##......###.......",
".....##..aaaaa..##......",
"....##.aa#####aa.##.....",
"...##.a#########a.##....",
"..##.a###########aa#....",
"..#.a###.a#.....###a##..",
".##a##a##.a#......######",
".#a##a#..###.......####.",
".###.#....##.......##...",
".##................##...",
".#.........####....#....",
"..........#aaaaa##....#.",
"##.......##aaaaaaaa...a#",
"aa###...#aaaa.aaaaaa#.aa",
"aaaaa#.#aaaaaaaaa.aaa#aa",
"aaaaaaaaaaaaaaaaaaaaaaaa"};
