/* XPM */
static char *easter[]={
"24 24 4 1",
"# c #000000",
"a c #0000ff",
"b c #00ff00",
". c #ffffff",
"........#####.#####.....",
"........#....#....#.....",
"........#....#....#.....",
"........#.####.####.....",
".......##......#........",
".......#..#.#..#........",
".......#.......#........",
".......#..#.#..#........",
".......##.###.#.........",
"........#.....###.......",
".......##.####..##......",
"....##.#.....#...#......",
"...#aa##.....#...#......",
"..#aaaa#......#.##......",
".#aaaaaa#...#####.......",
".#aaaaaa#..#b.b.b##.....",
"#aa.aaa.a##bb.b.bbb#....",
"#a.a.a.a.#bbb.b.bbbb#...",
"#.a.a.a.a#bbb.b.bbbbb#..",
"#a.a.a.a.#bbb.b.bbbbb#..",
"#.aaa.aaa#bbb.b.bbbb#...",
".#aaaaaa#.#bb.b.bbb#....",
"..#aaaa#...#b.b.b##.....",
"...####.....#####......."};
