/* XPM */
static char *jet[]={
"24 24 4 1",
"# c #000000",
"a c #0000ff",
"b c #ff0000",
". c #ffffff",
"...............##.......",
"..............#.a#......",
"............#.#.aa#.....",
"...........#.##.aa##....",
"..........#.aa#.a#..#...",
"..........#.aa#.#####...",
"..........#.a###aa##....",
"..........#.#.aaaa##....",
"..........##.aaaa#a#....",
"........###.aaaa#aaa#...",
".......#bb#aaaa#aaaaa#..",
"......#bb#aaaa#.......#.",
".....#bb#aaaa#########..",
".....###aaaa##..........",
"....##.aaaa##...........",
"...##.aaaa##............",
"..##.aaaa##.............",
"..#.aaa##...............",
".#.aa##.................",
"..###...................",
"........................",
"........................",
"........................",
"........................"};
