/* XPM */
static char *pencil3[]={
"24 24 4 1",
"# c #000000",
"a c #00ff00",
"b c #ff0000",
". c #ffffff",
"................##aaaa#a",
"...............##aaaa#aa",
"..............##aaaa#aaa",
".............##aaaa#aaaa",
"............##aaaa#aaaaa",
"...........##aaaa#aaaaaa",
"..........##aaaa#aaaaaa#",
"..........#aaaa#aaaaaa#a",
".........######aaaaaa#aa",
".........##...##aaaa#aaa",
"........##.....##aa#aaaa",
"........#.......###aaaa#",
".......##........#aaaa#.",
".......#.........#aaa#..",
"......##.........#a##...",
"......#.........###.....",
".....#b#.......###......",
".....#bb#....###........",
"....#bbbb#..##..........",
"....#bbbbb###...........",
"...#bbbbbb#.............",
"...#bbbb##..............",
"..#bbb##................",
".#bbbbbbbbbbbbbbbbb....."};
