#define skull_width 32
#define skull_height 32
static unsigned char skull_bits[] = {
   0x00, 0xf0, 0x1f, 0x00, 0x00, 0x1c, 0x30, 0x00, 0x00, 0x06, 0xe0, 0x00,
   0x00, 0x03, 0x80, 0x01, 0x80, 0x01, 0x00, 0x03, 0x80, 0x00, 0x00, 0x02,
   0xc0, 0x00, 0x00, 0x06, 0x40, 0x00, 0x00, 0x06, 0x40, 0x00, 0x00, 0x05,
   0x40, 0x00, 0x00, 0x04, 0x40, 0x00, 0x00, 0x07, 0x40, 0x00, 0x00, 0x04,
   0xc0, 0x01, 0x00, 0x07, 0x80, 0x00, 0x00, 0x02, 0x80, 0x3c, 0x78, 0x02,
   0x80, 0xfe, 0xfe, 0x02, 0x80, 0x7e, 0xfc, 0x02, 0xc0, 0x2e, 0xd8, 0x06,
   0x40, 0x1c, 0x73, 0x04, 0xc0, 0x80, 0x03, 0x06, 0x80, 0x80, 0x03, 0x03,
   0x80, 0xc3, 0x87, 0x03, 0x00, 0xc5, 0x46, 0x01, 0x00, 0x03, 0xc0, 0x01,
   0x00, 0x07, 0x80, 0x01, 0x00, 0x0d, 0x60, 0x01, 0x00, 0x5a, 0xb5, 0x00,
   0x00, 0xa6, 0xda, 0x00, 0x00, 0x4c, 0x64, 0x00, 0x00, 0x18, 0x30, 0x00,
   0x00, 0x30, 0x18, 0x00, 0x00, 0xe0, 0x0f, 0x00};
