#define sound2_width 32
#define sound2_height 32
static unsigned char sound2_bits[] = {
   0x00, 0x00, 0x00, 0x04, 0x00, 0x00, 0x00, 0x06, 0x00, 0x00, 0x00, 0x07,
   0x00, 0x00, 0x80, 0x05, 0x00, 0x00, 0xc0, 0x04, 0x00, 0x00, 0x60, 0x04,
   0x80, 0x3f, 0x20, 0x04, 0xc0, 0x60, 0x20, 0x04, 0x60, 0xce, 0x20, 0x27,
   0x30, 0x83, 0x21, 0x27, 0x90, 0x81, 0x39, 0x27, 0xd0, 0x80, 0x39, 0x20,
   0x50, 0x80, 0x39, 0x20, 0x50, 0x82, 0x01, 0x38, 0x10, 0x8e, 0x01, 0x28,
   0x10, 0x83, 0x01, 0x38, 0x80, 0xc1, 0x80, 0x03, 0x80, 0x60, 0x80, 0x03,
   0x80, 0x33, 0x80, 0x03, 0x80, 0x33, 0x80, 0x00, 0x00, 0x18, 0x80, 0x00,
   0x10, 0x18, 0x80, 0x00, 0x10, 0x0c, 0x80, 0x00, 0x10, 0x0c, 0x80, 0x00,
   0x30, 0x06, 0x00, 0x00, 0xe0, 0x03, 0x00, 0x00, 0xc0, 0x01, 0x00, 0x00,
   0x00, 0x00, 0x00, 0x00, 0x00, 0x00, 0x00, 0x00, 0x00, 0x00, 0x00, 0x00,
   0x00, 0x00, 0x00, 0x00, 0x00, 0x00, 0x00, 0x00};
