/* XPM */
static char *abc[]={
"16 16 4 1",
"b c #000000",
"a c #0000ff",
"# c #ff0000",
". c #ffffff",
".##.............",
"#..#............",
"#..#............",
"####............",
"#..#............",
"#..#..aaa.......",
"......a..a......",
"......a..a......",
"......aaa.......",
"......a..a......",
"......a..a...bbb",
"......aaa...b..b",
"............b...",
"............b...",
"............b..b",
".............bbb"};
