/* XPM */
static char *aladins_lamp[]={
"16 16 3 1",
"# c #000000",
"a c #0000ff",
". c #ffffff",
".....###........",
"...#########....",
".#############..",
".#####..#..#....",
".#...........aa.",
"............aaaa",
".a.....aaa..a..a",
".a...aaaaaaaa..a",
".aa..a.a.a.a...a",
"..aaaa.a.a.aaaaa",
"....aaaaaaaa.aa.",
".....aaaaaa.....",
".......aa.......",
".....aaaaaa.....",
"...aaaa..aaaa...",
"................"};
