/* XPM */
static char *apple[]={
"16 16 3 1",
"# c #00ff00",
"a c #ff0000",
". c #ffffff",
"................",
"...####.........",
"....####..###...",
".....###.###....",
".......###......",
"....aa..#..a....",
"...aaaaaaaaaa...",
"..aaaaaaaaaaa...",
"..aaaaaaaaaa....",
"..aaaaaaaaa.....",
"..aaaaaaaaa.....",
"..aaaaaaaaaa....",
"...aaaaaaaaaa...",
"...aaaaaaaaa....",
"....aa...aa.....",
"................"};
