/* XPM */
static char *ball[]={
"16 16 3 1",
"a c #000000",
"# c #ff0000",
". c #ffffff",
".....######.....",
"...##########...",
"..#a########a#..",
".###a######a###.",
".###a######a###.",
"####a######a####",
"#####a####a#####",
"#####a####a#####",
"aaaaaaaaaaaaaaaa",
"#####a####a#####",
"#####a####a#####",
".###a######a###.",
".###a######a###.",
"..#a########a#..",
"...##########...",
".....######....."};
