/* XPM */
static char *bear[]={
"16 16 3 1",
"# c #000000",
"a c #ff0000",
". c #ffffff",
"...........#....",
"..........#a#...",
"........##aa###.",
".......##.#aaa##",
".....###.a#aaaaa",
".####..####aaaa#",
".##.....##aaaa#.",
".#.......#aa#aa#",
".#......#aaa#a##",
"..###...#aaa#a#.",
"...#...#aaa#a##.",
"....#..#aaa#a#..",
"....###aaaaaa##.",
".....#aaaaaaaa#.",
"...##aaaaaaaaaa#",
".##aaaaaa#aaaaaa"};
