/* XPM */
static char *bomb[]={
"16 16 3 1",
"a c #000000",
"# c #ff0000",
". c #ffffff",
".........#.#.#..",
"..........###...",
"........###a###.",
"..........##a...",
".........#.#.a..",
"...........#.a..",
"....aaaaa....a..",
"...aaaaaaa..a...",
"..aaaaaaaaaa....",
"..aa.aaaaaa.....",
"..aa.aaaaaa.....",
"..aa..aaaaa.....",
"..aaa...aaa.....",
"...aaaaaaa......",
"....aaaaa.......",
"................"};
