/* XPM */
static char *bug_face[]={
"16 16 3 1",
"# c #000000",
"a c #00ff00",
". c #ffffff",
".####.....####..",
"#....#....#...#.",
".....#...#......",
"..##.#...#.##...",
".#aa##...##aa#..",
"#a.#a#####a.#a#.",
"#a##a#####a##a#.",
".#aa#######aa#..",
"..####...####...",
".######.######..",
".#############..",
".##.........##..",
"..###.....###...",
"...###...###....",
"....#######.....",
".....#####......"};
