/* XPM */
static char *bullseye[]={
"16 16 3 1",
"a c #000000",
"# c #ff0000",
". c #ffffff",
"......####......",
"....########....",
"...####..####...",
"..###......###..",
".###...##...###.",
".##..######..##.",
"###..##..##..###",
"##..##....##..##",
"##..##..aaaaa.##",
"###..##.aaa..###",
".##..###aaaa.##.",
".###...#a.aaa##.",
"..###...a..aaa..",
"...####..###aaa.",
"....########.a..",
"......####......"};
