/* XPM */
static char *clock2[]={
"16 16 3 1",
"# c #000000",
"a c #ff0000",
". c #ffffff",
"................",
".....#####......",
"...###...###....",
"..##...a...##...",
"..#....a....#...",
".##....a....##..",
".#.....a.....#..",
".#.....aaa...#..",
".#...........#..",
".##.........##..",
"..#.........#...",
"..##.......##...",
"...##.....##....",
"...#########....",
"..###########...",
"................"};
