/* XPM */
static char *cup[]={
"16 16 3 1",
"# c #000000",
"a c #0000ff",
". c #ffffff",
"................",
"......####......",
"..........#.....",
".....######.....",
"....#...........",
".....######.....",
"...aaaaaaaaaaa..",
"...aaaaaaaaaaaa.",
"...aaaaaaaa..aa.",
"...aaaaaaaa..aa.",
"...aaaaaaaaaaaa.",
"...aaaaaaaaaaa..",
"...aaaaaaaaa....",
"....aaaaaaa.....",
"................",
"..############.."};
