/* XPM */
static char *cup2[]={
"16 16 3 1",
"# c #000000",
"a c #00ff00",
". c #ffffff",
"................",
"...########.....",
"..#........##...",
".#.########.#...",
".#..........###.",
".#..........##.#",
".#aaaaaaaaaa#.##",
".#aaaaaaaaaa#.##",
".#aaaaaaaaaa#.##",
".#aaaaaaaaaa#.##",
".#aaaaaaaaaa####",
".#aaaaaaaaaa###.",
".##aaaaaaaa##...",
".#.#######..#...",
"..#........#....",
"...########....."};
