/* XPM */
static char *daemon[]={
"16 16 3 1",
"a c #000000",
"# c #ff0000",
". c #ffffff",
".......#.#......",
"......#...#.###.",
"......#####.##..",
"#.#.#.#a#a#.#.#.",
"#.#.#.#####...#.",
".###...##a....#.",
"..#...#####...#.",
"..#..######a..#.",
"..#########a..#.",
"..#aaaa##a#a.#..",
"..#...####a..#..",
"..#...####a##...",
"..#...####a.....",
"..#...#a.#a.....",
"......#a.#a.....",
"......#a.#a....."};
