/* XPM */
static char *door_run[]={
"16 16 3 1",
". c #000000",
"a c #ff0000",
"# c #ffffff",
".......#########",
"..####.#...#####",
".a.###.#...#####",
".aa.##.#..######",
".aa.##.###...###",
".aa.##.....#.###",
".aa.##.##..#.###",
".aa.##.##..#####",
".aa.##.##...####",
"..a....##.#..###",
"##..aaa#..##...#",
"###.aaaa.#####.#",
"####aaa..aa#####",
"#####aaaaaaaa###",
"######aaaaaaaaa#",
"#######aaaaaaaaa"};
