/* XPM */
static char *earth3[]={
"16 16 4 1",
"# c #000000",
"b c #0000ff",
"a c #00ff00",
". c #ffffff",
"......####......",
"....##abbb##....",
"...#aabaaaba#...",
"..#aaaaaabbba#..",
".#baaaaabbbbbb#.",
".#baaaaaabbbba#.",
"#bbbaabbabbbaaa#",
"#bbbaabbbbbbbaa#",
"#bbbbabaabbbbba#",
"#bbbbbaaaaabbbb#",
".#bbbbaaaaabbb#.",
".#bbbbbaaaabbb#.",
"..#bbbbbaabbb#..",
"...#bbbbabbb#...",
"....##bbba##....",
"......####......"};
