/* XPM */
static char *eye2[]={
"16 16 3 1",
"# c #000000",
"a c #0000ff",
". c #ffffff",
"................",
"................",
"......######....",
"...###########..",
".###.....#######",
"#...........####",
"...aaaaaaaaa....",
"..aa#######aaa..",
".a###########aa.",
"a##..aaaaa..##a.",
"#....aa.aa...##.",
".#...aaaaa..##..",
"..##..aaa..##...",
"...#########....",
"................",
"................"};
