/* XPM */
static char *firecracker[]={
"16 16 3 1",
"a c #000000",
"# c #ff0000",
". c #ffffff",
"......#.........",
"................",
"......#.........",
"....#...#.......",
"......#.........",
".#.#.#.aaaaaa...",
"......#.....aa..",
"....#...#....a..",
"......#......a..",
".............a..",
".............a..",
"###########..a..",
"####..#..##.aa..",
"###..#..###aa...",
"##..#..####.....",
"###########....."};
