/* XPM */
static char *fish8[]={
"16 16 4 1",
"# c #000000",
"a c #0000ff",
"b c #ff0000",
". c #ffffff",
"................",
"................",
"..............#.",
"........#....#a#",
".......#b#..#aa#",
"....###bb#..#aa#",
"..##abbbb#.#aa#.",
".#aaaabbaa#aaa#.",
"#a.aaaaabbbbb#..",
"#aaaaaabbbbbbb#.",
".#aaabbbbbbbbb#.",
"..#bbbbbbaa#aab#",
"...####baa#.#aa#",
".......#a#...#a#",
"........#.....#.",
"................"};
