/* XPM */
static char *fish7[]={
"16 16 3 1",
"a c #000000",
". c #ff0000",
"# c #ffffff",
".......#########",
"###......#######",
"###..aaa...#####",
".###..aa....####",
"..##..aaa....###",
"...#..aaa.....##",
"#......aaa..#.##",
"#......aaa.....#",
"#......aaa......",
"#......aaa.....#",
"...#..aaa.....##",
"..##..aaa....###",
".###..aa....####",
"####.aaa...#####",
"###.......######",
"........########"};
