/* XPM */
static char *flag[]={
"16 16 4 1",
"a c #000000",
"b c #00ff00",
"# c #ff0000",
". c #ffffff",
"................",
"................",
"................",
".......#a.......",
"......##a.......",
"....####a.......",
"......##a.......",
".......#a.......",
"........a.......",
"........a.......",
"........a.......",
"........a.......",
"........a.......",
"........a.......",
"bbbbbbbaaabbbbbb",
"bbbbbbbbbbbbbbbb"};
