/* XPM */
static char *football[]={
"16 16 3 1",
"# c #000000",
"a c #ff0000",
". c #ffffff",
".....######.....",
"...###aaaa###...",
"..##aaaaaaaa##..",
"..#aaaaaaaaaa##.",
".##aaaaaaaaaaa#.",
".###aaaaaaaaaa##",
"..####aaaaaaaaa#",
"....###aaaaaaaa#",
"....#.#aaaaaaaa#",
"....#.##aaaaaaa#",
"#######aaaaaaa##",
".#..##aa#aaaa##.",
".#.####aaaaa##..",
"####..##aa###...",
".......####.....",
"................"};
