/* XPM */
static char *ghost[]={
"16 16 3 1",
". c #000000",
"a c #ff0000",
"# c #ffffff",
"................",
"....#######.....",
"..###########...",
"..#aaa###aaa#...",
".#a###a#a###a#..",
".#a#aaa#a#aaa#..",
".#a#aaa#a#aaa#..",
".#a#aaa#a#aaa#..",
".#a###a#a###a#..",
".##aaa###aaa##..",
".#############..",
".#############..",
".###.#####.###..",
".##...###...##..",
".#.....#.....#..",
"................"};
