/* XPM */
static char *glasses[]={
"16 16 3 1",
"# c #000000",
"a c #00ff00",
". c #ffffff",
"................",
"................",
"....##########..",
"...############.",
"...##......##aa#",
"..........##aaa#",
"#.........#aaaa#",
"##.......##aaaa#",
"##.....#####aa##",
".##...##aa#.###.",
"..##.##aaaa#....",
"...###aaaaa#....",
"....##aaaaa#....",
".....##aaa#.....",
"......####......",
"................"};
