/* XPM */
static char *hand_reminder[]={
"16 16 3 1",
"# c #000000",
"a c #ff0000",
". c #ffffff",
"......##........",
"..aa.#..#.aa....",
".a..a#..#a..a...",
".aaaaaaaaaaaa...",
"....a#..#a......",
"..aa.#..#.aa....",
".....#..#.......",
".....#..###.....",
"..##.#..#.###...",
".#..##......###.",
".##.##........##",
"..#..#.........#",
"..##...........#",
"...#...........#",
"...##.........##",
"....##........#."};
