/* XPM */
static char *hourglass[]={
"16 16 3 1",
"# c #000000",
"a c #ff0000",
". c #ffffff",
".##############.",
".#............#.",
"..##..a.....##..",
"...##aaa.aa##...",
"....##aaaa##....",
".....##aa##.....",
"......####......",
".......##.......",
"......####......",
".....##..##.....",
"....##.a..##....",
"...##......##...",
"..##...a....##..",
".##...aaaa...##.",
".#...aaaaaa...#.",
".##############."};
