/* XPM */
static char *key[]={
"16 16 3 1",
"# c #000000",
"a c #0000ff",
". c #ffffff",
"................",
"..........#####.",
".........##aaa##",
".......###aaaaa#",
".#######aaaaa###",
"#aaaaaaaaaaaa#.#",
".#a######aaaa###",
"..#..##.##aaaa##",
".........###a##.",
".###############",
"#############.##",
".############.##",
"..#..###.#######",
"..........#####.",
"................",
"................"};
