/* XPM */
static char *knife[]={
"16 16 3 1",
"# c #000000",
"a c #ff0000",
". c #ffffff",
"......###.......",
".....##.#.......",
".....#..#.......",
"....##..#.......",
"...##..#........",
"..##...#........",
".##...#######...",
"#.############..",
"##aaaaaaaaaaaa#.",
"#aa#aa.aaaaa#aa#",
"#a##a...aaaa##a#",
"#aa#aa.aaaaa#aa#",
".#aaaaaaaaaaaa#.",
"..############..",
"................",
"................"};
