/* XPM */
static char *library[]={
"16 16 4 1",
"# c #000000",
"a c #0000ff",
"b c #ff0000",
". c #ffffff",
"................",
"................",
"................",
".......####.....",
"....####aa#.....",
"..###bb#..####..",
"..#.#.b#aa#bb#..",
"..#.#.b#.a#.b#..",
".##.#.b#.a#..##.",
".##.#bb#.a#.b##.",
".##.#.b#aa#bb##.",
"################",
"################",
"...#........#...",
"...#........#...",
"................"};
