/* XPM */
static char *lightbulb[]={
"16 16 3 1",
"# c #000000",
"a c #00ff00",
". c #ffffff",
".....######.....",
"....##....##....",
"...##..aa..##...",
"...#..aaaa..#...",
"...#.aa##aa.#...",
"...#.a#aa#a.#...",
"...#.a#aa#a.#...",
"...##.a##a.##...",
"....#..##..#....",
"....##.##.##....",
".....######.....",
"......####......",
"......#..#......",
"......####......",
"......#..#......",
"......####......"};
