/* XPM */
static char *magnify[]={
"16 16 3 1",
"# c #000000",
"a c #ff0000",
". c #ffffff",
".##############.",
"##............##",
"#..a...aaa.....#",
"#.aa..aa.aa..a.#",
"#.aa..a..aa....#",
"#.aa....aa...a.#",
"#.a....aa......#",
"#.a...aa..a.aa.#",
"#.aa.aaaaaa..a.#",
"##............##",
".##############.",
"...........###..",
".a...aa.aaa.###.",
"aa..a.a..aa..###",
".a...a....a...##",
"aaa.aaa.aa.....#"};
