/* XPM */
static char *martini_pour[]={
"16 16 4 1",
"# c #000000",
"b c #0000ff",
"a c #ff0000",
". c #ffffff",
"....##..........",
"....###.........",
"....#.##........",
"....#..##..aaa..",
"....#...##aa....",
"....#.aaa##.....",
"....#.aaa.##....",
"....#baaabbb#...",
"...##########b..",
"..###........b..",
"####.........b..",
".##..........bb.",
"..#..........bb.",
".............bb.",
".............bbb",
"............bbbb"};
