/* XPM */
static char *misc_pirate[]={
"16 16 3 1",
"# c #000000",
"a c #ff0000",
". c #ffffff",
"................",
".........#......",
".......###......",
".........#......",
"......#..#..#...",
"......#######...",
"....#####aa####.",
"....#aaa#aa#aa#.",
"....#aaa#aa#aa#.",
"....###########.",
"......#..#..#...",
".##############.",
"...##.##.##.###.",
"....###########.",
".....#########..",
"................"};
