/* XPM */
static char *misc_ship[]={
"16 16 3 1",
"# c #000000",
"a c #ff0000",
". c #ffffff",
"................",
"......#.........",
"......aaa.......",
"......#.aa......",
"......#.........",
"..a...a...a.....",
"..aa..aa..aa....",
"..aaa.aaa.aaa...",
"..aaa.aaa.aaa...",
"..aa..aa..aa....",
"..a...a...a.....",
".##############.",
".###.##.##.##...",
".###########....",
"..#########.....",
"................"};
