/* XPM */
static char *moon[]={
"16 16 3 1",
"# c #000000",
". c #0000ff",
"a c #ffffff",
".....######.....",
"...##aaaaa###...",
"..#aaaa#######..",
".#aa#a#########.",
".#aa#a#####aa##.",
"#aaaaa######a###",
"#aaaaa##########",
"#aaaaaaa########",
"#aaaa#aaaa######",
"#a#aa###########",
"#aa#############",
".#aaa##########.",
".#aaaaa########.",
"..#aaaaa###a##..",
"...##aaaaaa##...",
".....######....."};
