/* XPM */
static char *phone2[]={
"16 16 3 1",
"a c #000000",
"# c #ff0000",
". c #ffffff",
"................",
"....########a...",
"...###aaaa###a..",
"...###....###aa.",
"...............a",
"......#...#a...a",
".....#######a..a",
"....###.a.a##a.a",
"...###.a.a.a##a.",
"..###.a.a.a.a##a",
"..###aaaaaaaa##a",
"..#############a",
"..#############a",
"...aaaaaaaaaaaa.",
"................",
"................"};
