/* XPM */
static char *question[]={
"16 16 3 1",
"a c #000000",
"# c #ff0000",
". c #ffffff",
".....######.....",
"....########a...",
"...###aaa####a..",
"..###aaa..####a.",
"..####a...####a.",
"..####a..####aa.",
"...##aa..###aaa.",
"....aa..###aaa..",
".......###aaa...",
"......###aaa....",
"......##aaa.....",
"......##aa......",
"................",
"......##a.......",
"......##a.......",
".......aa......."};
