/* XPM */
static char *questions[]={
"16 16 4 1",
"# c #000000",
"b c #0000ff",
"a c #ff0000",
". c #ffffff",
".......###......",
"......#####.....",
"......##..##....",
"......#...##....",
"..........##....",
".aaa....###.....",
"aaaaa..###.bbb..",
"aa..aa.##.bbbbb.",
"a...aa....bb..bb",
"....aa.##.b...bb",
"..aaa..##.....bb",
".aaa........bbb.",
".aa........bbb..",
"...........bb...",
".aa.............",
".aa........bb..."};
