/* XPM */
static char *sleeping[]={
"16 16 3 1",
"a c #000000",
"# c #0000ff",
". c #ffffff",
"......####.#####",
"........#.....#.",
".......#.....#..",
"......####..#...",
"...........#####",
"aa..............",
"aa.aa...........",
"aaa..a......aaaa",
"aaaa..aaaaaaa.aa",
"aa..a.........aa",
"aaaaaaaaaaaaaaaa",
"aa############aa",
"aa############aa",
"aaaaaaaaaaaaaaaa",
"aa............aa",
"................"};
