/* XPM */
static char *snail[]={
"16 16 3 1",
"# c #000000",
"a c #00ff00",
". c #ffffff",
"................",
"................",
"................",
"...#####........",
"..#######..a..a.",
"..##aaa###.a..a.",
".##a###a##.a.a..",
".##a#a#a##.a.a..",
".##a##a###.aaa..",
".###a####..aa#a.",
"aa#######aaaaaaa",
"aaaa####aaaaaaaa",
"aaaaaaaaaaaaaaa.",
"................",
"................",
"................"};
