/* XPM */
static char *snake2[]={
"16 16 3 1",
"# c #000000",
"a c #0000ff",
". c #ffffff",
".......###.##...",
"......#...#..#..",
"......#.a.#a.#..",
"......#.a.#a.#..",
"......##.##.#...",
".......##aa#a...",
".aa.....#aaaaaa.",
"#a...aaa.#aa#aaa",
"#a..aaaaa.#aa##a",
"#a..aaaaaa.#aa..",
"#a.aaa##aa.#aa..",
"#a.aaa.#aa.#aa..",
"#aaaaa.#aa.#aa..",
"#aaaaa.#aaaaaa..",
".#aaa..#aaaaa...",
"..###...####...."};
