/* XPM */
static char *tape[]={
"16 16 3 1",
"# c #000000",
"a c #00ff00",
". c #ffffff",
"................",
"....###.........",
"..##aaa##.......",
".#aaaaaaa#......",
"#aaa###aaa#.....",
"#aa#####aa#.....",
"#a###.###a#.....",
"#a##...########.",
"#a##...##a#..#a#",
"#a###.###aa##aa#",
"#aa#####aaaaaaa#",
"#aaa###aaaaaaaa#",
".#aaaaaaaaaaaa#.",
"..#aaaaaaaaaa#..",
"...##########...",
"................"};
