/* XPM */
static char *tick[]={
"16 16 3 1",
"a c #000000",
"# c #ff0000",
". c #ffffff",
"..........#.....",
".........###....",
"........#####...",
"........######..",
".......######...",
"..#....#####.a..",
"..##..#####.aa..",
"..###.####.aa...",
"...######.aa....",
"..a.#####aa.....",
"..aa####.a......",
"...a.###aa......",
"...aa.#.a.......",
"....aa.aa.......",
".....aaa........",
"......a........."};
