/* XPM */
static char *timer[]={
"16 16 3 1",
"# c #000000",
"a c #00ff00",
". c #ffffff",
"............##..",
".....#####.####.",
"...#############",
"..###aaaaa######",
".###aaaaaaa####.",
".##aaaaaaaaa##..",
"##aaaaaaaaaaa##.",
"##aaaaaaaaaaa##.",
"##aa####aaaaa##.",
"##aaaaa#aaaaa##.",
"##aaaaa#aaaaa##.",
".##aaaa#aaaa##..",
".###aaa#aaa###..",
"..###aaaaa###...",
"...#########....",
".....#####......"};
