/* XPM */
static char *tongue[]={
"16 16 3 1",
"a c #000000",
"# c #ff0000",
". c #ffffff",
"................",
"................",
"....###.###.....",
"...#########....",
"..###aaaaa###...",
".##aaaaaaaaa##..",
"##aaaaaaaaaaa##.",
"#aaaaaaaaaaaaa#.",
"##aaa###a##aa##.",
".##a###a####a#..",
"..####a######...",
"...###a#####....",
"...###a####.....",
"...###a####.....",
"....######......",
".....####......."};
