/* XPM */
static char *turkey[]={
"16 16 3 1",
"# c #000000",
"a c #ff0000",
". c #ffffff",
"................",
"................",
"................",
"................",
"................",
"............##..",
"......####.#a##.",
"....##aaa##a#...",
"...#aaaa#aa##...",
"..#a##aa#aa#a#..",
".#a#aa#a###aa##.",
".#a#aaa#aaaaaa##",
"################",
".##..........##.",
"..############..",
"................"};
