/* XPM */
static char *umbrella[]={
"16 16 4 1",
"# c #000000",
"b c #0000ff",
"a c #ff0000",
". c #ffffff",
"........#.......",
"....#a#b#a#b#...",
"..##aa#b#a#bb#..",
".#aaa#bb#aa#bb#.",
"#aaa#bbb#aa#bbb#",
"#aaa#bbb#aa#bbb#",
"#...#...#..#...#",
"........#.......",
"........#.......",
"........#.......",
"........#.......",
"........#.......",
"........#.......",
"........#.#.....",
"........#.#.....",
".........#......"};
