/* XPM */
static char *watch[]={
"16 16 3 1",
"# c #000000",
"a c #00ff00",
". c #ffffff",
"...########.....",
"...########.....",
"...########.....",
"..##########....",
".##aaaa#aaa##...",
"##aaaaa#aaaa##..",
"#aaaaaa#aaaaa###",
"#aaaaa###aaaa###",
"#aaaaa###aaaa###",
"#aaaa#aaaaaaa###",
"##aa#aaaaaaa##..",
".##aaaaaaaa##...",
"..##########....",
"...########.....",
"...########.....",
"...########....."};
