/* XPM */
static char *wave[]={
"16 16 3 1",
". c #000000",
"# c #0000ff",
"a c #ffffff",
"................",
"..........####a.",
"........##aaa#.a",
".......##aa##aa.",
"......##aa###aaa",
"......#aa#####.a",
".....#aa#####...",
"....#aaa####....",
"...#aaaaaa##....",
"..#aaa####a#....",
".#aaaaa######...",
"#aa####a######..",
"aa.#############",
"..##############",
"################",
"################"};
