#define face_scowl_width 16
#define face_scowl_height 16
static unsigned char face_scowl_bits[] = {
   0x00, 0x00, 0xe0, 0x03, 0x38, 0x0e, 0x0c, 0x18, 0x06, 0x30, 0x22, 0x22,
   0x73, 0x67, 0x21, 0x42, 0x01, 0x40, 0xc1, 0x41, 0x63, 0x63, 0x32, 0x26,
   0x06, 0x30, 0x0c, 0x18, 0x38, 0x0e, 0xe0, 0x03};
