#define football_width 16
#define football_height 16
static unsigned char football_bits[] = {
   0xe0, 0x07, 0x38, 0x1c, 0x0c, 0x30, 0x04, 0x60, 0x06, 0x40, 0x0e, 0xc0,
   0x3c, 0x80, 0x70, 0x80, 0x50, 0x80, 0xd0, 0x80, 0x7f, 0xc0, 0x32, 0x61,
   0x7a, 0x30, 0xcf, 0x1c, 0x80, 0x07, 0x00, 0x00};
