#define pin_width 16
#define pin_height 16
static unsigned char pin_bits[] = {
   0x00, 0x1f, 0xf0, 0x30, 0x5c, 0x60, 0x26, 0xc0, 0x22, 0x80, 0x23, 0x80,
   0x21, 0x80, 0x21, 0xc0, 0x61, 0x40, 0xc1, 0x60, 0x81, 0x5f, 0x03, 0x6f,
   0x06, 0x20, 0x0e, 0x30, 0x3f, 0x1c, 0xf1, 0x07};
