#define startrek_width 16
#define startrek_height 16
static unsigned char startrek_bits[] = {
   0x00, 0x01, 0x00, 0x01, 0x80, 0x03, 0x80, 0x02, 0xc0, 0x06, 0x78, 0x1c,
   0x6c, 0x3c, 0x66, 0x6c, 0x26, 0x48, 0x2c, 0x79, 0x38, 0x33, 0x90, 0x17,
   0xd0, 0x1c, 0x70, 0x18, 0x30, 0x10, 0x10, 0x00};
