#define step2_width 16
#define step2_height 16
static char step2_bits[] = {
  0x00, 0x00, 0x80, 0x03, 0xc0, 0x07, 0xc6, 0x0f, 0xcf, 0x0f, 0x9f, 0x1f, 
  0x1f, 0x1f, 0x3f, 0x1e, 0x7e, 0x4c, 0x3c, 0xe0, 0x98, 0xf0, 0xc0, 0xf1, 
  0xe0, 0x61, 0xe0, 0x01, 0xc0, 0x00, 0x00, 0x00, };
