/* XPM */
static char *bow[]={
"20 20 3 1",
"# c #000000",
"a c #ff0000",
". c #ffffff",
"....................",
"....................",
".##..............##.",
"#aa#...........##aa#",
"#aaa#.........#aaaa#",
"#aaaa##......#aaaa#.",
"#aa#aaa#.##.####aa#.",
"#aaa#####aa#aaaaaa#.",
".#aaaaa#aaa#aaaaa#..",
".#aa####aaa####aa#..",
"..###aa##a#aaaaa#...",
".....###########....",
"......#aa##aa#aaaaaa",
".....#aaa#.#aa##..aa",
"....#aaa#...#aaa#...",
"....#aaa#....#aaa#..",
"...#aaa#.....#aaaa#.",
"...#aa#.......#aa#..",
"...#a#........#a#...",
"....#..........#...."};
