/* XPM */
static char *chest[]={
"20 20 3 1",
"# c #000000",
"a c #ff0000",
". c #ffffff",
".....############...",
"...##....#...#..##..",
"..#...##..#...#..a#.",
".##..a..a..#...#a..#",
".#aaa.aa.aa##aa#.a##",
"#aaaa.aa.aaa#a..##a#",
"#....a..a....#.a#aa#",
"#.....##.....#a##aa#",
"#a.a.a..a.a.a##a#.a#",
"##############aa#.a#",
"#aa........aa#a.#.a#",
"#a..........a#a.#.a#",
"#.##......##.#a.#aa#",
"#.#.######.#.#a.#a#.",
"#.#.######.#.#aa##..",
"#.##......##.#aa#...",
"#a..........a#a#....",
"#aa........aa##.....",
"##############......",
"...................."};
