/* XPM */
static char *monster[]={
"20 20 3 1",
"# c #000000",
"a c #ff0000",
". c #ffffff",
"..........#.#.......",
".........#####......",
"........#####a##....",
"......####..######..",
".....##.##...#..##..",
"....##aaa##..##.....",
"...###..#####.##....",
"...#.#aa#...##......",
"..##.#..#....###....",
".#.#.#aa#.#...#.#...",
".#...#..#..#........",
"..#..#aa#..##...##..",
".....#...#..##.##.#.",
"......#aa##..###.##.",
"....###...##....###.",
"...#####aa###..###..",
"..###..###.###.###..",
"..##....##..##..#...",
".###........###.....",
"...................."};
