/* XPM */
static char *paint2[]={
"20 20 4 1",
"# c #000000",
"b c #0000ff",
"a c #ff0000",
". c #ffffff",
"................#a##",
"...............#a###",
"..............#a###.",
".............#a###..",
"............#a###...",
"...........#a###....",
"..........#a###.....",
".........#a###......",
"........#a###.......",
".......#####........",
"......#bbb#.........",
"......#bbb#.........",
"....##bbbb#.........",
"...#bbbb##..........",
"..#bbbb....#########",
".......####.........",
"....###........aaaa.",
"...##.bbbbb...aaaa..",
"...#..bbbb....aaa...",
"...#...bb..........."};
