/* XPM */
static char *sound3[]={
"20 20 4 1",
"a c #000000",
"# c #0000ff",
"b c #ff0000",
". c #ffffff",
"....................",
"....................",
".......##...........",
"......###...........",
".....##.#...........",
"....##..#.....aaaa..",
"...##...#...aaa..aa.",
"...#....#..aa.....aa",
"...#..###..a..aaa...",
"...#..#.#..a.aaaaa..",
"...#...##..a...aa...",
".###.......a.a......",
".#.#.......a.aa.....",
"..##...bbb.aa.aaaa..",
"............aa.aaa..",
".....bbbbb..aaa.....",
"..............aa.aa.",
".....bbbbbbbb..aaa..",
"....................",
"...................."};
