/* XPM */
static char *sound2[]={
"20 20 4 1",
"a c #000000",
"# c #0000ff",
"b c #ff0000",
". c #ffffff",
"................#...",
"...............##...",
"..............###...",
".....aaa.....##.#...",
"....aa.aa....#..#...",
"...aa...aa...#.##.a.",
"...a.....aa.##.##.a.",
"..aa.aa...a.##....a.",
"..aa..a...a......aa.",
".....aa..aa......aa.",
"....a...aa....bb....",
"....aa..a.....bb....",
".....a.aa.....b.....",
"..a....a......b.....",
"..aa..aa......b.....",
"...a.aa.............",
"...aaa..............",
"....................",
"....................",
"...................."};
