#define bandaid_width 20
#define bandaid_height 20
static unsigned char bandaid_bits[] = {
   0x00, 0xc0, 0x00, 0x00, 0xe0, 0x01, 0x00, 0xf0, 0x03, 0x00, 0xf8, 0x07,
   0x00, 0xf6, 0x0f, 0x00, 0xef, 0x0f, 0x80, 0xdb, 0x07, 0xc0, 0xae, 0x03,
   0xa0, 0x7b, 0x01, 0xf0, 0xee, 0x00, 0xb0, 0xbb, 0x00, 0xe8, 0x6e, 0x00,
   0xdc, 0x3b, 0x00, 0xbe, 0x1e, 0x00, 0x7f, 0x0b, 0x00, 0xff, 0x06, 0x00,
   0xfe, 0x01, 0x00, 0xfc, 0x00, 0x00, 0x78, 0x00, 0x00, 0x30, 0x00, 0x00};
