#define bug_width 20
#define bug_height 20
static unsigned char bug_bits[] = {
   0x00, 0x00, 0xf0, 0x00, 0x00, 0xf0, 0x00, 0xfc, 0xf0, 0x00, 0xe6, 0xf1,
   0x00, 0x33, 0xf3, 0x80, 0x19, 0xf2, 0xc0, 0x0c, 0xf3, 0xe0, 0x86, 0xf3,
   0xf8, 0xc3, 0xf6, 0xe8, 0xe7, 0xf4, 0x78, 0x3f, 0xf5, 0xf0, 0x69, 0xf2,
   0xd8, 0xcc, 0xf2, 0x8c, 0x87, 0xf0, 0x84, 0x81, 0xf0, 0x80, 0xc1, 0xf0,
   0xc0, 0x00, 0xf0, 0x60, 0x00, 0xf0, 0x00, 0x00, 0xf0, 0x00, 0x00, 0xf0};
