#define catapiller_width 20
#define catapiller_height 20
static unsigned char catapiller_bits[] = {
   0x00, 0x00, 0xf0, 0x00, 0x00, 0xf0, 0x00, 0x00, 0xf0, 0x00, 0x00, 0xf0,
   0x0e, 0x00, 0xf0, 0x0b, 0x00, 0xf0, 0x09, 0x00, 0xf0, 0xec, 0x6e, 0xf3,
   0x16, 0x91, 0xf6, 0x13, 0x91, 0xf4, 0x09, 0x80, 0xfc, 0x0d, 0x10, 0xf8,
   0x01, 0x00, 0xf8, 0x11, 0x91, 0xf8, 0x11, 0x91, 0xfc, 0x9b, 0xd9, 0xf6,
   0xee, 0x6e, 0xf3, 0x00, 0x00, 0xf0, 0x00, 0x00, 0xf0, 0x00, 0x00, 0xf0};
