#define face_happy_width 20
#define face_happy_height 20
static char face_happy_bits[] = {
  0xff, 0xff, 0x0f, 0xff, 0xff, 0x0f, 0xff, 0xe0, 0x0f, 0x3f, 0x80, 0x0f, 
  0x1f, 0x00, 0x0f, 0x0f, 0x00, 0x0e, 0x07, 0x00, 0x0c, 0x87, 0x31, 0x0c, 
  0x83, 0x31, 0x08, 0x03, 0x00, 0x08, 0x03, 0x00, 0x08, 0x03, 0x00, 0x08, 
  0x23, 0x80, 0x08, 0x67, 0xc0, 0x0c, 0xc7, 0x60, 0x0c, 0x8f, 0x3f, 0x0e, 
  0x1f, 0x0e, 0x0f, 0x3f, 0x80, 0x0f, 0xff, 0xe0, 0x0f, 0xff, 0xff, 0x0f, 
  };
