#define gun_old_width 20
#define gun_old_height 20
static unsigned char gun_old_bits[] = {
   0x00, 0x00, 0xf0, 0x00, 0x38, 0xf0, 0x00, 0x70, 0xf0, 0x00, 0x48, 0xf0,
   0x00, 0x6f, 0xf0, 0x80, 0xc1, 0xf1, 0xc0, 0x0e, 0xf3, 0x60, 0x0c, 0xf6,
   0xb0, 0x3e, 0xfc, 0x58, 0x5f, 0xf8, 0xac, 0xaf, 0xfa, 0xd6, 0x69, 0xfb,
   0xeb, 0xc4, 0xfc, 0x75, 0x80, 0xf7, 0x3b, 0x00, 0xf3, 0x1e, 0x00, 0xf0,
   0x0c, 0x00, 0xf0, 0x00, 0x00, 0xf0, 0x00, 0x00, 0xf0, 0x00, 0x00, 0xf0};
