#define magnify_width 20
#define magnify_height 20
static unsigned char magnify_bits[] = {
   0x00, 0x00, 0xf0, 0x00, 0x00, 0xf0, 0xf0, 0x03, 0xf0, 0xf8, 0x07, 0xf0,
   0x1c, 0x0e, 0xf0, 0x0c, 0x0c, 0xf0, 0x56, 0x1c, 0xf0, 0x2e, 0x18, 0xf0,
   0x16, 0x18, 0xf0, 0x0e, 0x1c, 0xf0, 0x0c, 0x0c, 0xf0, 0x1c, 0x0f, 0xf0,
   0xf8, 0x1f, 0xf0, 0xe0, 0x39, 0xf0, 0x00, 0x70, 0xf0, 0x00, 0xe0, 0xf0,
   0x00, 0xc0, 0xf1, 0x00, 0x80, 0xf3, 0x00, 0x00, 0xf1, 0x00, 0x00, 0xf0};
