#define ninja_width 20
#define ninja_height 20
static unsigned char ninja_bits[] = {
   0x00, 0x18, 0x00, 0x60, 0x3c, 0x00, 0x60, 0x38, 0x00, 0x30, 0x3c, 0x00,
   0x18, 0x18, 0x00, 0x0c, 0xfe, 0x03, 0x04, 0x3f, 0x06, 0x8c, 0x1f, 0x04,
   0xf8, 0x9d, 0x04, 0xe0, 0x1c, 0x04, 0x00, 0x3c, 0x06, 0x00, 0xfe, 0x03,
   0x00, 0xfe, 0x00, 0x00, 0xe7, 0x00, 0x00, 0xc3, 0x01, 0x80, 0x81, 0x03,
   0x80, 0x01, 0x03, 0x80, 0x01, 0x07, 0x80, 0x01, 0x06, 0xc0, 0x01, 0x0e};
