#define pointer_width 20
#define pointer_height 20
static unsigned char pointer_bits[] = {
   0x00, 0x00, 0x0e, 0x00, 0x80, 0x09, 0x00, 0xe0, 0x08, 0x00, 0x38, 0x0e,
   0x00, 0x0e, 0x03, 0x00, 0xbf, 0x01, 0x80, 0xd0, 0x01, 0xc0, 0xc0, 0x03,
   0x60, 0xbc, 0x06, 0x38, 0x00, 0x0c, 0x3e, 0x4c, 0x0a, 0x37, 0x79, 0x0d,
   0x2f, 0xb3, 0x04, 0x6f, 0xc0, 0x03, 0xde, 0x60, 0x00, 0xde, 0x1f, 0x00,
   0xbc, 0x01, 0x00, 0xf8, 0x00, 0x00, 0x78, 0x00, 0x00, 0x70, 0x00, 0x00};
