#define sign_width 20
#define sign_height 20
static unsigned char sign_bits[] = {
   0x60, 0x00, 0xf0, 0xf0, 0x39, 0xf0, 0xd0, 0x6f, 0xf0, 0x18, 0x4f, 0xf0,
   0x08, 0x7c, 0xf0, 0x0c, 0xe0, 0xf0, 0x04, 0xc0, 0xf3, 0x04, 0x00, 0xf7,
   0x06, 0x00, 0xfe, 0x02, 0x00, 0xfe, 0x06, 0x00, 0xf7, 0x1c, 0x00, 0xf3,
   0xf0, 0x80, 0xf3, 0xa0, 0x81, 0xf1, 0x30, 0xc3, 0xf1, 0x98, 0xef, 0xf0,
   0x8c, 0x78, 0xf0, 0xc6, 0x00, 0xf0, 0x6c, 0x00, 0xf0, 0x38, 0x00, 0xf0};
