#define sound_width 20
#define sound_height 20
static unsigned char sound_bits[] = {
   0x00, 0x70, 0xf0, 0x00, 0x18, 0xf0, 0x00, 0xcd, 0xf0, 0x80, 0xe1, 0xf0,
   0xc0, 0xb1, 0xf0, 0x60, 0x91, 0xf0, 0x3e, 0xd1, 0xf0, 0x02, 0xd9, 0xf0,
   0x02, 0x19, 0xf0, 0x02, 0x81, 0xf0, 0x02, 0xbd, 0xf0, 0x02, 0x81, 0xf0,
   0x02, 0xc1, 0xf0, 0x3e, 0xc1, 0xf0, 0x60, 0x01, 0xf6, 0xc0, 0x1d, 0xf6,
   0x80, 0x31, 0xf2, 0x00, 0x61, 0xf2, 0x00, 0xc0, 0xf2, 0x00, 0x00, 0xf0};
