#define sound3_width 20
#define sound3_height 20
static unsigned char sound3_bits[] = {
   0x00, 0x00, 0xf0, 0x00, 0x00, 0xf0, 0x80, 0x01, 0xf0, 0xc0, 0x01, 0xf0,
   0x60, 0x01, 0xf0, 0x30, 0xc1, 0xf3, 0x18, 0x71, 0xf6, 0x08, 0x19, 0xfc,
   0xc8, 0xc9, 0xf1, 0x48, 0xe9, 0xf3, 0x88, 0x89, 0xf1, 0x0e, 0x28, 0xf0,
   0x0a, 0x68, 0xf0, 0x8c, 0xdb, 0xf3, 0x00, 0xb0, 0xf3, 0xe0, 0x73, 0xf0,
   0x00, 0xc0, 0xf6, 0xe0, 0x9f, 0xf3, 0x00, 0x00, 0xf0, 0x00, 0x00, 0xf0};
