#define spider_width 20
#define spider_height 20
static unsigned char spider_bits[] = {
   0x00, 0x00, 0x00, 0x00, 0x00, 0x02, 0x08, 0x00, 0x03, 0x08, 0x80, 0x01,
   0x88, 0x84, 0x00, 0x98, 0xc7, 0x0c, 0xb3, 0x67, 0x06, 0x66, 0x33, 0x03,
   0xdc, 0xdf, 0x01, 0xb0, 0x67, 0x00, 0xd8, 0x3f, 0x00, 0x6c, 0xdb, 0x01,
   0xb6, 0x37, 0x07, 0xdb, 0x6f, 0x00, 0xec, 0x5f, 0x00, 0xe4, 0x5f, 0x00,
   0xe6, 0xdf, 0x00, 0xc3, 0x8f, 0x00, 0x01, 0x87, 0x00, 0x00, 0x00, 0x00};
