#define troll_width 20
#define troll_height 20
static unsigned char troll_bits[] = {
   0x00, 0x00, 0xf0, 0x00, 0x92, 0xf1, 0x00, 0x74, 0xf3, 0x00, 0x2e, 0xf1,
   0x00, 0xfc, 0xfe, 0x06, 0x70, 0xf5, 0x0f, 0xc8, 0xf3, 0x8f, 0xcf, 0xf5,
   0x5f, 0xb0, 0xff, 0x9e, 0xa3, 0xf4, 0x38, 0x0c, 0xf1, 0xf0, 0x2f, 0xf1,
   0x30, 0x20, 0xf1, 0xc0, 0x3f, 0xf1, 0x00, 0x02, 0xf1, 0x00, 0x02, 0xf1,
   0x00, 0x82, 0xf0, 0x00, 0x7c, 0xf0, 0x00, 0x6e, 0xf0, 0x00, 0x77, 0xf0};
