/* XPM */
static char *xpm[]={
"20 20 4 1",
"# c #000000",
"b c #0000ff",
"a c #ff0000",
". c #ffffff",
"....................",
"...#########........",
"..##.......##.......",
"..#..######.##......",
"..#.########.#......",
".##.###...##.#######",
"##........##.......#",
"#..aaa...###bbbbbb.#",
"#.aaaa..###.bbbbbb.#",
"#.aaaa.###.....bb.##",
"#..aaa.#####..bb.##.",
"##.aaa.#####.bb...##",
".#.aaa.......bbbb..#",
".#.aaa.###.b...bbb.#",
".#.aaa.#.#.bb..bbb.#",
".#.aaa.#.##.bbbbb.##",
".#.....#..##.bbb.##.",
".#######...##...##..",
"............#####...",
"...................."};
