/* XPM */
static char *balloon3[]={
"20 20 4 1",
"b c #000000",
"# c #0000ff",
"a c #ff0000",
". c #ffffff",
"....................",
"......########......",
"....####a##a####....",
"...####aa##aa####...",
"..####aa####aa####..",
".####aaa####aaa####.",
".####aaa####aaa####.",
".####aaa####aaa####.",
".####aaa####aaa####.",
".####aaa####aaa####.",
".####aaa####aaa####.",
"..####aaa##aaa####..",
"...####aa##aa###....",
".....###a##a###.....",
"......##....##......",
".......bbbbbb.......",
".......b.bbbb.......",
".......b.bbbb.......",
".......bbbbbb.......",
"...................."};
