/* XPM */
static char *biplane[]={
"20 20 3 1",
"# c #000000",
"a c #ff0000",
". c #ffffff",
"............#####...",
"..........##.....#..",
".........#.#.aaa.#..",
".........#.#.a.a.#..",
".........#.#.aaa.#..",
".........#.#.....#..",
".#.......#.#.....#..",
"#a#...######..#..##.",
"#aa###aaaa.#.####aa#",
".##aaaaa#..#..#..#a#",
"#aa###aaaa.#.####aa#",
"#a#...######..#..##.",
".#.......#.#.....#..",
".........#.#.....#..",
".........#.#.aaa.#..",
".........#.#.a.a.#..",
".........#.#.aaa.#..",
"..........##.....#..",
"............#####...",
"...................."};
