/* XPM */
static char *book[]={
"20 20 3 1",
"# c #000000",
"a c #ff0000",
". c #ffffff",
"....................",
"..########.#######..",
".##.......#......##.",
"#a#......##......#a#",
"#a#.......#......#a#",
"#a#......##......#a#",
"#a#.......#......#a#",
"#a#......##......#a#",
"#a#.......#......#a#",
"#a#......##......#a#",
"#a#.......#......#a#",
"#a#......##......#a#",
"#a#.......#......#a#",
"#a#########.######a#",
"##aaaaaaaa.aaaaaaa##",
"#########...########",
"........#####.......",
"....................",
"....................",
"...................."};
