/* XPM */
static char *book_read[]={
"20 20 3 1",
"# c #000000",
"a c #0000ff",
". c #ffffff",
"....................",
"...######...#####...",
"..#......#.#.....#..",
"###.......#####..###",
"#.#.......#....#.#.#",
"#.#.####.##....#.###",
"#.##....###....#.#.#",
"#.a#....###....#.###",
"#a##....#.#####..#.#",
"a.a#....#.#......###",
"a.a.####..#......#.#",
"#a#a......#......###",
"#a#.a.....#......#.#",
"#.a#a###############",
"##a.a.#.#####.#.#.##",
"##a#a####...########",
"..a.a...#####.......",
"..a.aa..............",
".a...a..............",
"...aa..............."};
