/* XPM */
static char *book2[]={
"20 20 3 1",
". c #000000",
"a c #ff0000",
"# c #ffffff",
".................###",
"..#############..###",
".a..############..##",
"..aa................",
".#..a.#####aaa#####.",
"..##..#....#.#....#.",
".a..#.#.aaa.#.aaa.#.",
".aaa..#.aaaa.aaaa.#.",
"..aaa.#.aaaa.aaaa.#.",
".#..a.#.aa.a.a.aa.#.",
"..##..a#.aa.#.aa.#a.",
".a..#.a.#..#.#..#.a.",
".aaa..a#.aa.#.aa.#a.",
"..aaa.#.aa.a.a.aa.#.",
".#..a.#.aaaa.aaaa.#.",
"..##..#.aaaa.aaaa.#.",
".a..#.#.aaa.#.aaa.#.",
"#.aa..#....#.#....#.",
"##..a.#####aaa#####.",
"####................"};
