/* XPM */
static char *bridge[]={
"20 20 3 1",
"# c #000000",
"a c #ff0000",
". c #ffffff",
"....................",
"....................",
"....................",
"....#.........#.....",
"...#a#.......#a#....",
"..##a##.....##a##...",
".#.#a#.#...#.#a#.#..",
"#a.#a#.a#.#a.#a#.a#.",
".a.#a#.a.#.a.#a#.a.#",
"#a.#a#.a#a#a.#a#.a#a",
".#.#a#.#.a.#.#a#.#.a",
".a##a##a.a.a##a##a.a",
"aaaaaaaaaaaaaaaaaaaa",
"####################",
"...#a#.......#a#....",
"...#a#.......#a#....",
"...#a#.......#a#....",
"...#a#.......#a#....",
"...###.......###....",
"...................."};
