/* XPM */
static char *bulldozer[]={
"20 20 3 1",
"# c #000000",
"a c #ff0000",
". c #ffffff",
"....................",
"....................",
"....................",
"....................",
"....................",
"..........#######...",
"...........#####....",
".....#.....#...#....",
"......#....#...#....",
"......#....#...#....",
"......########.##...",
".....#.....#aa#..#..",
"###..###########.#..",
".#.#.#aaaaaaaaaa##..",
"..#a#a##########a#..",
".#.#.#aaaaaaaaaa#...",
"###...##########....",
"....................",
"....................",
"...................."};
