/* XPM */
static char *butterfly[]={
"20 20 3 1",
"# c #000000",
"a c #0000ff",
". c #ffffff",
"....................",
"......#.....#.......",
".###..#.....#..###..",
"#aaa#..#...#..#aaa#.",
"#aaaa#.#...#.#aaaa#.",
"#aaaa#..###..#aaaa#.",
"#aaaaa#.###.#aaaaa#.",
"##aaaaa#.#.#aaaaa##.",
".#aaaaa#####aaaaa#..",
".#aaaaaa###aaaaaa#..",
".##aaaaa###aaaaa##..",
"..#aaaa#####aaaa#...",
"..#aaa#..#..#aaa#...",
".#aaaa#.###.#aaaa#..",
".#aaaa#.###.#aaaa#..",
".#aaaa#.###.#aaaa#..",
".#aaa#..###..#aaa#..",
".#aaa#..###..#aaa#..",
"..#a#...###...#a#...",
"...#.....#.....#...."};
