/* XPM */
static char *c[]={
"20 20 3 1",
"a c #000000",
"# c #ff0000",
". c #ffffff",
"....................",
".............##.....",
".............##a....",
"...........######...",
"....aaaaa..######a..",
"...a#####a..a##aaa..",
"..a###a###a..##a....",
"..a##a.a##a...aa#...",
"..a##a.a##a....##a..",
"..a##a.a#a...######.",
"..a##a..a....######a",
"...a##a...aa..a##aaa",
"...a##a..a##a..##a..",
"...a###a.a##a...aa..",
"....a##a.a##a.......",
"....a##a..a#a.......",
"....a##a.a##a.......",
".....a##a###a.......",
".....a#####a........",
"......aaaaa........."};
