/* XPM */
static char *calendar[]={
"20 20 3 1",
"# c #000000",
"a c #ff0000",
". c #ffffff",
".....###...###......",
".#####.#####.#####..",
".#...#.#...#.#...##.",
"######.#####.#######",
"#....#.#...#.#....##",
"#...##.##.##.##...##",
"#....###...###....##",
"#.................##",
"#....aaa....aa....##",
"#...aaaaa..aaa....##",
"#...aa.aa.aaaa....##",
"#......aa...aa....##",
"#.....aaa...aa....##",
"#....aaa....aa....##",
"#...aaa.....aa....##",
"#...aaaaa...aa....##",
"#...aaaaa...aa....##",
"#.................##",
"####################",
".###################"};
