/* XPM */
static char *catapiller[]={
"20 20 3 1",
"# c #000000",
"a c #00ff00",
". c #ffffff",
"....................",
"....................",
"....................",
"....................",
".###................",
"##.#................",
"#..#................",
"..##.###.###.##.##..",
".#aa#aaa#aaa#aa#aa#.",
"#aaa#aaa#aaa#aa#aa#.",
"#aa#aaaaaaaaaaa#aaa#",
"#a##aaaaaaaa#aaaaaa#",
"#aaaaaaaaaaaaaaaaaa#",
"#aaa#aaa#aaa#aa#aaa#",
"#aaa#aaa#aaa#aa#aaa#",
"##a##aa##a###a##aa#.",
".###.###.###.##.##..",
"....................",
"....................",
"...................."};
