/* XPM */
static char *caution[]={
"20 20 3 1",
"a c #000000",
"# c #ff0000",
". c #ffffff",
"........##..........",
".......####.........",
".......#..##........",
"......##..##........",
"......#....##.......",
".....##....##.......",
".....#..aa..##......",
"....##.aaaa.##......",
"....#..aaaa..##.....",
"...##..aaaa..##.....",
"...#...aaaa...##....",
"..##....aa....##....",
"..#.....aa.....##...",
".##.....aa.....##...",
".#..............##..",
"##......aa......##..",
"#.......aa.......##.",
"#................##.",
"###################.",
"..################.."};
