/* XPM */
static char *chess[]={
"20 20 3 1",
"a c #000000",
"# c #ff0000",
". c #ffffff",
".......#............",
"......###...........",
"...##..#..##........",
"..###########.......",
".#############......",
"###############.....",
"###############.....",
"####.#####.####.....",
".##...###...##......",
"..###########aaa....",
"..#.#.#.#.#.aaaaa...",
"..#########aaaaaaa..",
"...........aaaaaaa..",
"............aaaaa...",
".............aaa....",
"............aaaaa...",
"............aaaaa...",
"...........aaaaaaa..",
"..........aaaaaaaaa.",
".........aaaaaaaaaaa"};
