/* XPM */
static char *clipboard[]={
"20 20 4 1",
"# c #000000",
"b c #0000ff",
"a c #ff0000",
". c #ffffff",
"........#...#.......",
"........#.#.#.......",
"......##.....##.....",
"....a##.......##a...",
"...a#.#########.#a..",
"...a#..a........#a..",
"...a#..a........#a..",
"...a#bbbbbbbbbbb#a..",
"...a#..a........#a..",
"...a#..a........#a..",
"...a#bbbbbbbbbbb#a..",
"...a#..a........#a..",
"...a#..a........#a..",
"...a#bbbbbbbbbbb#a..",
"...a#..a........#a..",
"...a#..a........#a..",
"...a#bbbbbbbbbbb#a..",
"...a#..a........#a..",
"...a#..a........#a..",
"....a###########a..."};
