/* XPM */
static char *crayons[]={
"20 20 4 1",
"# c #000000",
"b c #0000ff",
"a c #ff0000",
". c #ffffff",
"...#.....#.....#....",
"..###...###...###...",
"..#a#...#.#...#b#...",
".##aa#.##..#.##bb#..",
".#aaa#.#...#.#bbb#..",
".#####.#####.#####..",
".#####.#####.#####..",
".#aaa#.#...#.#bbb#..",
".##aa#.##..#.##bb#..",
".###a#.###.#.###b#..",
".###a#.###.#.###b#..",
".###a#.###.#.###b#..",
".###a#.###.#.###b#..",
".###a#.###.#.###b#..",
".###a#.###.#.###b#..",
".###a#.###.#.###b#..",
".##aa#.##..#.##bb#..",
".#aaa#.#...#.#bbb#..",
".#####.#####.#####..",
".#####.#####.#####.."};
