/* XPM */
static char *date_time[]={
"20 20 4 1",
"# c #000000",
"b c #0000ff",
"a c #ff0000",
". c #ffffff",
"....................",
"####################",
"#..................#",
"#.aaaaaaa.#.aaaaaa.#",
"#.........#........#",
"#....bb..#.#.bbb...#",
"#...bbb...#.bbbbb..#",
"#..bbbb...#.bb.bb..#",
"#....bb...#...bbb..#",
"#....bb...#..bbb...#",
"#...###########....#",
"#...#.........#bb..#",
"#...#....#....#bb..#",
"#...#....#....#....#",
"#...#....#....#....#",
"#####....###..######",
"....#.........#.....",
"....#.........#.....",
"....#.........#.....",
"....###########....."};
