/* XPM */
static char *dice[]={
"20 20 4 1",
"# c #000000",
"a c #0000ff",
"b c #ff0000",
". c #ffffff",
".............#a#....",
"............#a.a##..",
"...........#aaaaaa##",
"..........#aaa.aaaa#",
"......#..#aaaaaaa#a#",
"....##b#.##aaa.a#aa#",
"..##bbbb##a##aa#aaa#",
"##bbbb.bb#aaa##aa.a#",
"##bb.bbbbb#aaa#aaaa#",
"#b#bbbbb###..a#aaaa#",
"#bb#bb##bb#..a#a.aa#",
"#bbb##bbbb#aaa#aaa#.",
"#b.b#bbb.b##aa#aa#..",
"#b.b#b.bbb#.#a#a#...",
"#bbb#bbb.b#..###....",
".#bb#b.bbb#...#.....",
"..#b#bbb##..........",
"...##b##............",
"....##..............",
"...................."};
