/* XPM */
static char *dragon_small[]={
"20 20 3 1",
"a c #000000",
"# c #00ff00",
". c #ffffff",
"......###......aaaa.",
"aa#..#aaa#....aaa#aa",
"..aa##a.aa#..aaa###a",
"...##a...aa.aaa###aa",
"..#.#a..#aa.aaa###a.",
".###aa.#aa.aaa###aa.",
"###aa.#aa.aaa###aa..",
"..a..a#aaaaaaaaaa...",
".....a#a#a#aaa#aaa..",
".....aa#a####a##aa#.",
"......aaaaaaa##a####",
"............aaaaaaa#",
"...########.......aa",
"..#aaaaaaaa##....##a",
"..aa.....#aaa#...##a",
"a.aa#####a.a######aa",
"a..aaaaaa#a.aa#a#aa.",
".a..###...#a.aaaaa..",
".aa#a#a####aa.......",
"..aaa.aaaaaa........"};
