/* XPM */
static char *dynamite[]={
"20 20 3 1",
"a c #000000",
"# c #ff0000",
". c #ffffff",
"....................",
"....................",
"...............#....",
"..............#.....",
"......aaaaaaaa.##...",
"....aaa.......#.....",
"...aa..........#....",
"..aa................",
"..a.................",
"..a.................",
"..aaaaaaaaaaaaaaaaa.",
"..aa##aaa####aaa##a.",
".aaaaaaaaaaaaaaaaaaa",
".aaaa##aaa####aaa##a",
".aaaaaaaaaaaaaaaaaaa",
"..aa##aaa####aaa##a.",
"..aaaaaaaaaaaaaaaaa.",
"....................",
"....................",
"...................."};
