/* XPM */
static char *earth[]={
"20 20 3 1",
". c #000000",
"a c #0000ff",
"# c #ffffff",
".......######.......",
".....#########a.....",
"....aa#######aaaa...",
"...aaaaa###a##aaaa..",
"..aaaaaa###a###aaaa.",
".aaaaaa########aaaa.",
".aaaaa#########aaaaa",
"aaaaaaa#######aaaaaa",
"aaaaaaaa#a###aaaaaaa",
"aaaaaaaaa#a##aaaaaaa",
"aaaaaaaaaaaa#a###aaa",
"aaaaaaaaaaaa######aa",
"aaaaaaaaaaaa#######a",
".aaaaaaaaaaaa######.",
".aaaaaaaaaaaa######.",
"..aaaaaaaaaaaa####..",
"...aaaaaaaaaaa####..",
"....aaaaaaaaa####...",
".....aaaaaaaa##.....",
".......######......."};
