/* XPM */
static char *easter[]={
"20 20 4 1",
"# c #000000",
"b c #0000ff",
"a c #00ff00",
". c #ffffff",
".......####.........",
".......#..####......",
".......#.#....#.....",
"......#.....###.....",
"......#.#.#.#.......",
"......#..#..#.......",
".......#...#........",
"......#####.#.......",
"......#.#....#......",
"...###..#....#......",
"..#aaa#..#.##.......",
".#aaaaa#.######.....",
".#aaaaa#..#b.bb##...",
"#aaaaaaa##bbb.bbb#..",
"#.a.a.a.#bbb.bbbbb#.",
"#a.a.a.a#bbbb.bbbb#.",
"#aaaaaaa#bbb.bbbbb#.",
".#aaaaa#.#bbb.bbb#..",
"..#aaa#...#b.bb##...",
"...###.....####....."};
