/* XPM */
static char *edit_movie[]={
"20 20 4 1",
"# c #000000",
"a c #0000ff",
"b c #ff0000",
". c #ffffff",
"...#............#...",
"...#............#...",
"...##..........##...",
"aaaaaaaaaaaaaa.##.aa",
"a.a.a.a.a.a.a.##.a.a",
"aaaaaaaaaaaaa.##.aaa",
"aaaaaaaaaaaa.##.aaaa",
"a.a.a.a.a.a.##.a.a.a",
"aaaaaaaaaaa.##.aaaaa",
".......##..##.......",
"........##.##.......",
".........###........",
".........#.#........",
".......bb##bb.......",
".....bbbbb.bbb......",
"....b...bb.bbbb.....",
"...b...bbb.b...b....",
"...b..bbb..b...bb...",
"...bbbbb...bb..bb...",
"....bbb.....bbbb...."};
