/* XPM */
static char *eye[]={
"20 20 3 1",
"# c #000000",
"a c #0000ff",
". c #ffffff",
"....................",
"############........",
"##############......",
"################....",
"........##########..",
"............#######.",
"..............######",
"................####",
".aaaaaa...........##",
"#######aa..........#",
"#########aaa........",
"############a.......",
"#####a####.##a......",
"##a#a#######.#a.....",
"##aaa####a###.#a....",
"###aaa##aa#.##.a....",
"..##aaaaa#...##.....",
"...##aaaa.....##....",
"....####.......#....",
"........######......"};
