/* XPM */
static char *face_cyclops[]={
"20 20 4 1",
"# c #000000",
"a c #00ff00",
"b c #ff0000",
". c #ffffff",
"....................",
"......#######.......",
"....##aaaaaaa##.....",
"...#aaaaaaaaaaa#....",
"..#aaaaaaaaaaaaa#...",
".#aaaaa#####aaaaa#..",
".#aaaa#.....#aaaa#..",
"#aaaaa#.###.#aaaaa#.",
"#aaaaa#.....#aaaaa#.",
"#aaaaaa#####aaaaaa#.",
"#aaaa#aaaaaaa#aaaa#.",
"#aaa#aaaaaaaaa#aaa#.",
".#a#a#aaaaaaa#a#a#..",
".#aaaa#######aaaa#..",
"..#aaaa#b#b#aaaa#...",
"...#aaa#bbb#aaa#....",
"....##aa###aa##.....",
"......#######.......",
"....................",
"...................."};
