/* XPM */
static char *face_happy[]={
"20 20 3 1",
"# c #000000",
"a c #00ff00",
". c #ffffff",
"....................",
"........#####.......",
"......##aaaaa##.....",
".....#aaaaaaaaa#....",
"....#aaaaaaaaaaa#...",
"...#aaaaaaaaaaaaa#..",
"..#aaaaaaaaaaaaaaa#.",
"..#aaaa##aaa##aaaa#.",
".#aaaaa##aaa##aaaaa#",
".#aaaaa##aaa##aaaaa#",
".#aaaaaaaaaaaaaaaaa#",
".#aaaaaaaaaaaaaaaaa#",
".#aaaaaaaaaaaaaaaaa#",
"..#aa#aaaaaaaaa#aa#.",
"..#aaa#aaaaaaa#aaa#.",
"...#aaa#######aaa#..",
"....#aaaa###aaaa#...",
".....#aaaaaaaaa#....",
"......##aaaaa##.....",
"........#####......."};
