/* XPM */
static char *face_sad[]={
"20 20 3 1",
"# c #000000",
"a c #00ff00",
". c #ffffff",
"....................",
"........#####.......",
"......##aaaaa##.....",
".....#aaaaaaaaa#....",
"....#aaaaaaaaaaa#...",
"...#aaaaaaaaaaaaa#..",
"..#aaaaaaaaaaaaaaa#.",
"..#aaaa##aaa##aaaa#.",
".#aaaaa##aaa##aaaaa#",
".#aaaaaaaaaaaaaaaaa#",
".#aaaaaaaaaaaaaaaaa#",
".#aaaaaaaaaaaaaaaaa#",
".#aaaaaa#####aaaaaa#",
"..#aaaa#######aaaa#.",
"..#aaa##aaaaa##aaa#.",
"...#aa#aaaaaaa#aa#..",
"....#aaaaaaaaaaa#...",
".....#aaaaaaaaa#....",
"......##aaaaa##.....",
"........#####......."};
