/* XPM */
static char *falcon[]={
"20 20 3 1",
"a c #000000",
". c #ff0000",
"# c #ffffff",
"....................",
"....##############..",
"...#aaaaaaaaaaa#aa#.",
"..#aaaaaaaaaaaa#a#a#",
".#aaaaaaaaaaaaa#aaaa",
".#aaaaaaaaaaaaa#####",
"#aaaaaaaaaaaaaa##...",
"#aaa##aaaaaaaaa#a#..",
"#aa#.#aaaaaaaaa#aa#.",
"#a#..#aa#aaaaaa#aaa#",
".#...#a#aaaaaaa##aa#",
".....##aa#aaaaa#.#a#",
".....#aa#aa#aaa#..#.",
".....#aa#aa#aaa#....",
".....#a#aa#aaaa#....",
".....#a#aa#aa#aa#...",
"......##aa#aa#aa#...",
".......#a#aaa#aaa#..",
"........##aa#aaaa#..",
".........#########.."};
