/* XPM */
static char *fish_monster[]={
"20 20 4 1",
"# c #000000",
"a c #0000ff",
"b c #ff0000",
". c #ffffff",
"......#####..##...##",
"....##aa##a#.#a###a#",
"...#..##..##.#aaaaa#",
"..##.#a#.#aa#.#aaa#.",
".#a##aa##aaa#..#a#..",
"#aaaaaaaaaaaa#.#a#..",
"####a####aaaaa#aa#..",
"#bbb#bbbb#aaaaaaa#..",
".##bbb##bb#aa##aaa#.",
"..#######bb#aaa#aa#.",
"...#######b#aaaa#a#.",
"...#######b#aaa#a#..",
".########bb#a#a#a#..",
"#bb######b#aaa##a#..",
"#bbbb##bbb#aaaaaa#..",
"###bbbbb##aaaaaa#...",
".#a#####aaaaaaa#....",
"..#aaaaaaaaaaa#.....",
"...###aaaaa###......",
"......#####........."};
