/* XPM */
static char *font[]={
"20 20 4 1",
"a c #000000",
"b c #0000ff",
"# c #ff0000",
". c #ffffff",
"....................",
".................##.",
"................###.",
"...............####.",
"..............##.##.",
".............##..##.",
".....a......##...##.",
"....aaa....########.",
"...aaaa...##.....##.",
"...aaaaa.####...####",
"..aa.aaa............",
"..aa..aaa.....bbb...",
".aa...aaa....bbbbb..",
".aa....aaa..bb..bb..",
"aaaaaaaaaa..bb..bb..",
"aa......aaa.bb..bb..",
"aa......aaa.bb..bb..",
"............bb..bb..",
"............bbbbbbbb",
".............bb..bb."};
