/* XPM */
static char *football[]={
"20 20 3 1",
"# c #000000",
"a c #ff0000",
". c #ffffff",
"....................",
"......#########.....",
"....##aaaaaaaaa##...",
"...#aaaaaaaaaaaaa#..",
"...#aaaaaaaaaaaaaa#.",
"..#aaaaaaaaaaaaaaa#.",
"..#aaaaaaaaaaaaaaaa#",
".######aaaaaaaaaaaa#",
"..####a#aaaaaaaaaaa#",
".....#a#aaaaaaaaaaa#",
".....#a##aaaaaaaaaa#",
"......#a##aaaaaaaaa#",
"#########aaaaaaaaaa#",
".#...#aaaa#aaaaaaaa#",
".#...#aaa#.#aaaaa##.",
".#...#aaaa#aaaaa#...",
".#..#.#aaaaaaaa#....",
"####...#aaaaa##.....",
"........#####.......",
"...................."};
