/* XPM */
static char *fruit[]={
"20 20 4 1",
"a c #000000",
"# c #00ff00",
"b c #ff0000",
". c #ffffff",
"....................",
"....................",
"....................",
"....................",
"...........###...###",
"...........a###.###a",
"...aa.......a#####a.",
"....aa........a#aa..",
".....a......aa.a....",
"..aa.aaa...abbabba..",
".a##aa##a.abbbbbbba.",
"a########abbbbbbbaaa",
"a######aaabbbbbbaaaa",
"a####a##aabbbababaaa",
"a######aaaabbabaaaaa",
".aa##aaaaa.abaaaaaa.",
"..aaaaaaa..aaaaaaa..",
"...aaaaa....aaaaa...",
"....................",
"...................."};
