/* XPM */
static char *graduate[]={
"20 20 3 1",
"# c #000000",
"a c #ff0000",
". c #ffffff",
"....................",
"....................",
"....................",
"...........#########",
".....##############a",
"....#########aaaa#a.",
"...######aaaaa###a..",
"..##############aa..",
".##############a.a..",
"##########aaaaa.aaa.",
"aaaaaaaaaa#####.aaa.",
".....##########.....",
"......#######...aaa.",
"................aaa.",
"................aaa.",
"................aaa.",
"................aaa.",
"................aaa.",
"................aa..",
"...................."};
