/* XPM */
static char *gravestone[]={
"20 20 3 1",
"# c #000000",
"a c #00ff00",
". c #ffffff",
"........######......",
".......########.....",
".....####.....##....",
"....####.......##...",
"....###.........##..",
"...###...........#..",
"...###.##..#.##..#..",
"...###.#.#.#.#.#.#..",
"...###.##..#.##..#..",
"...###.#.#.#.#...#..",
"...###.#.#.#.#...#..",
"...###...........#..",
"...###...........#..",
"..a###...........#..",
"..a###...........#..",
".aaa##.aa..a.a.a.#a.",
".a#aaaaa#aaaa.a.aa..",
"aaa#aaaa#aaaaaa.aaaa",
".aa#a.aaa#aa#aaaa#.a",
"..aa.....aa.#aaa..a."};
