/* XPM */
static char *hand_lead[]={
"20 20 4 1",
"a c #000000",
". c #0000ff",
"# c #ff0000",
"b c #ffffff",
"....................",
"....................",
"....................",
"...................#",
".....aaa..........#.",
"...aabbaaaa......#..",
"..abababbbba....#...",
".abababbaaba...#....",
".ababababbaa..#.....",
"abbbbbbbbbbba#......",
"abbbbbbbaabb#aa.....",
"abbbbbbba.aaabba....",
"abbbbbba...abbba....",
"abbbbbba..abbba.....",
"abbbbbba.abbba......",
"abbbbbbbabbba.......",
"abbbbbbbbbbaa.......",
"abbbbbbbbbaa........",
"abbbbbbbbaa.........",
".abbbbbaaa.........."};
