/* XPM */
static char *hand_up[]={
"20 20 3 1",
"# c #000000",
"a c #ff0000",
". c #ffffff",
".........###........",
".......###.###......",
".......#.#.#.#......",
".......#.#.#.###....",
".......#.#.#.#.#....",
"....##.#.#.#.#.#....",
"....#.##.#.#.#.#....",
"....#..#.......#....",
"....##..#......#....",
".....##........#....",
"......##......##....",
".......#......#.....",
".......##....##.....",
"........#....#......",
"........#....#......",
".......########.....",
".......#aaaaaa#.....",
".......#aaaaaa#.....",
".......#aaaaaa#.....",
".......#aaaaaa#....."};
