/* XPM */
static char *home2[]={
"20 20 3 1",
"# c #000000",
"a c #ff0000",
". c #ffffff",
"..........#.........",
".........#a#........",
"........#aaa#.......",
".......#aaa#a#......",
"......#aa##a#a#.....",
".....###a#a##aa#....",
"....#a#a###aa#a##...",
"...#aaa##aa#a##aa#..",
"..#################.",
".###.............###",
"...#.###.....###.#..",
"...#.#.#.aaa.#.#.#..",
"...#.###.aaa.###.#..",
"...#.#.#.aaa.#.#.#..",
"...#.#.#.#aa.#.#.#..",
"...#.###.aaa.###.#..",
"...#.....aaa.....#..",
"...###############..",
"....................",
"...................."};
