/* XPM */
static char *kilroy[]={
"20 20 4 1",
"a c #000000",
"b c #00ff00",
"# c #ff0000",
". c #ffffff",
"....................",
"....................",
"......##.##.##......",
".....##a#a###a#.....",
"....#a#a#a##a###....",
"...##a##aaa#a####...",
"..#a##aabbbaaa#aa#..",
".###aabbbbbbbaaa##..",
".##abbaabbbaaba###..",
"..#aba..aba..aba#...",
"...bba..aba..aba....",
"..baba..aba..abab...",
".bababaabbbaababab..",
"abababaabbbaabababaa",
".bababaabbbaababab..",
".bababa.aaa.ababab..",
"....................",
"....................",
"....................",
"...................."};
