/* XPM */
static char *ladybug[]={
"20 20 3 1",
"# c #000000",
"a c #ff0000",
". c #ffffff",
"....................",
"....................",
".......#######......",
"....####aaa#a##.....",
"...##aaa###aaa##....",
"...#aaaaaa##aaa##...",
"..###aaa##a##a###...",
"..#a##aa##aa#aaa##..",
".##a##aaaaaa##aaa#..",
".###aaa##aaaa##aa#..",
".####aa###aaaa#aa#..",
".##a##aa#aaaaa#a##..",
".####aaaaaaaaaa##...",
".#######aaaaaa####..",
"..################..",
"....#############...",
".......####..##.....",
"....................",
"....................",
"...................."};
