/* XPM */
static char *letter[]={
"20 20 3 1",
". c #000000",
"a c #ff0000",
"# c #ffffff",
"....................",
".#########...######.",
".#######..##..#####.",
".#####...#aa#..####.",
".###...##aaaa#.####.",
".#...###a#.aa#..###.",
"...######a.#aa#.###.",
"..#######aa..a#..##.",
".#########aaa###.##.",
".##########a####..#.",
".###############....",
".################...",
".####..###########..",
".###..############..",
".##..#############..",
"....###############.",
"..###..############.",
".###..###.########..",
".##..###.#######....",
"...................."};
