/* XPM */
static char *lightbulb[]={
"20 20 3 1",
"# c #000000",
"a c #00ff00",
". c #ffffff",
".......######.......",
"......##....##......",
".....#........#.....",
"....##..a.....##....",
"....#..aaaaa...#....",
"....#..aaaaaa..#....",
"....#.aa####a..#....",
"....#.a#.aa.#a.#....",
"....##.a#aa#aa##....",
".....#.a#aa#a.#.....",
".....##.#.a#.##.....",
"......#.#..#.#......",
"......###..###......",
".......###.##.......",
".......######.......",
".......#.##.#.......",
".......##..##.......",
".......#.##.#.......",
".......##..##.......",
"........####........"};
