/* XPM */
static char *lips[]={
"20 20 3 1",
"# c #000000",
"a c #ff0000",
". c #ffffff",
"....................",
"....................",
"....................",
".....###............",
"..###aaa#...###.....",
"##aaaaaaa###aaa#....",
".#aaaaaaaaaaaaaa#...",
".#aa#aaaaaaaaaaaa#..",
"..aaa#aaaaaaaaaaaa##",
"..#aaa##aaaaaaa#a##.",
"...#aaaaa##a###aaa#.",
"...#aaaaaaaaaaaaa#..",
"....#aaaaaaa..aa#...",
".....#aaaa...aaa#...",
"......#aaaaaaaa#....",
"........#aaaa##.....",
".........####.......",
"....................",
"....................",
"...................."};
