/* XPM */
static char *martini[]={
"20 20 3 1",
"a c #000000",
"# c #ff0000",
". c #ffffff",
"....................",
"....................",
"..............#.....",
".............#......",
"aaaaaaaaaaaaa#aaaaaa",
".aa.........#....aa.",
"..aaaaaaaaa#aaaaaa..",
"...aa.....###..aa...",
"....aa...#####aa....",
".....aa..####aa.....",
"......aa..##aa......",
".......aa..aa.......",
"........aaaa........",
".........aa.........",
".........aa.........",
".........aa.........",
".........aa.........",
".........aa.........",
".......aa..aa.......",
"....aaaaaaaaaaaa...."};
