/* XPM */
static char *notebook[]={
"20 20 3 1",
"# c #000000",
"a c #00ff00",
". c #ffffff",
".....#############..",
"....##aaaaaaaaaaa##.",
"....#aaaaaaaaaaaa###",
"...##aaaaaaaaaaa####",
"...#aaa#######aa#.##",
"..##aaaaaaaaaaa#..##",
"..#aa######aaaa#aa##",
".##aaaaaaaaaaa#...##",
".#aaaaaaaaaaaa#aaa##",
"##aaaaaaaaaaa#....##",
"#aaaaaaaaaaaa#aaaa##",
"#aaaaaaaaaaa#.....##",
"#aaaaaaaaaa#aaaaaa##",
".###########......##",
"......#aaaaaaaaaaa##",
"......#.a.........##",
"......#aaaaaaaaaaa##",
"......#.a.........##",
".......#############",
"........###########."};
