/* XPM */
static char *picture[]={
"20 20 4 1",
"# c #000000",
"b c #00ff00",
"a c #ff0000",
". c #ffffff",
"....................",
"####################",
"#..................#",
"#.################.#",
"#.#..............#.#",
"#.#..............#.#",
"#.#..............#.#",
"#.#.........#....#.#",
"#.#........#a#...#.#",
"#.#...#...#aaa#..#.#",
"#.#..#.#.#aaaaa#.#.#",
"#.#...#...aa#aa..#.#",
"#.#..###..aa#aa..#.#",
"#.#bbb#bbbbbbbbbb#.#",
"#.#bb#b#bbbbbbbbb#.#",
"#.#bbbbbbbbbbbbbb#.#",
"#.################.#",
"#..................#",
"####################",
"...................."};
