/* XPM */
static char *pin[]={
"20 20 3 1",
"a c #000000",
"# c #ff0000",
". c #ffffff",
"........#####.......",
".......##..####.....",
"......##########....",
"......##########....",
"......##########....",
"......#######.##....",
"......######.##.....",
".......###...##.....",
"......aa######......",
".....aaa.###........",
"....aaa.............",
"...aaa..............",
"..aaa...............",
"..aa................",
"....aaa.....aaaa....",
"......aaa..aaaaaa...",
"........aaaaaaaaaa..",
".........aaaaaaaaa..",
"..........aaaaaaaa..",
"...........aaaaaa..."};
