/* XPM */
static char *puzzle[]={
"20 20 3 1",
". c #000000",
"# c #00ff00",
"a c #ffffff",
"....................",
".###..##.#.##.###.#.",
".#.#.##..#.#...#.##.",
"...#..#......a......",
".#...##.##.aaaa..##.",
".##.#...#..aaaaa..#.",
"....###...aaaaaaa...",
".###..#.aaaaaaaaaaaa",
".#.##...aaaaaaaaaaaa",
"......#.aaa.....aaaa",
".####.#.aa.aaaa..aaa",
".##..........aaa....",
".....##....aa.aaaa..",
".###....a.a..aaaaa..",
".#...aaaaa.aaaaaaa..",
".#.#..aaaaa.....aa..",
"...##.aa..aaaaa.....",
".#..#....#.aaaaaaaaa",
".##..##.##.aaaaaaaaa",
"...........aaaaaaaaa"};
