/* XPM */
static char *question2[]={
"20 20 3 1",
"# c #000000",
"a c #00ff00",
". c #ffffff",
"........#######.....",
"......##aaaaa###....",
".....#######aa###...",
"....#aaaaaaa#aa##...",
"...#aaaaaaaaa#aa##..",
"...#aaaaaaaaaa#a##..",
"..#aaaa###aaaa#a##..",
"..#aaa#...#aaa#a##..",
"..#aaa#...#aaa###...",
"..#####..#aaaa###...",
"........#aaaa###....",
".......#aaaa###.....",
".......#aaa####.....",
".......#aaa#a#......",
".......#####a.#.....",
"........#aaa###.....",
".......#####a##.....",
".......#aaa#a#......",
".......#aaa##.......",
".......#####........"};
