/* XPM */
static char *rubics_cube[]={
"20 20 4 1",
"# c #000000",
"a c #0000ff",
"b c #ff0000",
". c #ffffff",
"....................",
".....#############..",
"....#...#aaa#bbb##..",
"...#############b#..",
"..#bbb#...#aaa##b#..",
".#############.#b#..",
".#aaa#aaa#bbb#.###..",
".#aaa#aaa#bbb#.#.#..",
".#aaa#aaa#bbb###.#..",
".#############a#.#..",
".#...#bbb#...#a###..",
".#...#bbb#...#a#a#..",
".#...#bbb#...###a#..",
".#############b#a#..",
".#bbb#...#aaa#b##...",
".#bbb#...#aaa#b#....",
".#bbb#...#aaa##.....",
".#############......",
"....................",
"...................."};
