/* XPM */
static char *sign_exit[]={
"20 20 3 1",
"# c #000000",
"a c #ff0000",
". c #ffffff",
".##################.",
"##................##",
"#..................#",
"#..aaa.a..a.a.aaa..#",
"#..a...a..a.a..a...#",
"#..aa...aa..a..a...#",
"#..a...a..a.a..a...#",
"#..aaa.a..a.a..a...#",
"#..................#",
"#.......######.....#",
"#.........####.....#",
"#........#####.....#",
"#.......######.....#",
"#......#####.#.....#",
"#.....#####..#.....#",
"#....#####.........#",
"#.....###..........#",
"#......#...........#",
"##................##",
".##################."};
