/* XPM */
static char *smile[]={
"20 20 3 1",
"# c #000000",
"a c #00ff00",
". c #ffffff",
"....................",
"....................",
"....#####.....###...",
"...#aaaaa#...#aaa##.",
"..#aaaaaaa#.#aaaaaa#",
"..#aaaa#aaa#aaaaaaa#",
".#aaaa###aa#aa##aaa#",
".#aaaa###aa#a####aa#",
".#aaaaa#aaa#aa##aaa#",
"..#aaaaaaa##aaaaaaa#",
"...#aaaaa#..#aaaaa#.",
"....#####....#####..",
"....................",
".#........###......#",
".##......#####.....#",
"..##......###.....##",
"...###...........##.",
".....#####....####..",
".......##########...",
"...................."};
