/* XPM */
static char *snail[]={
"20 20 3 1",
"# c #000000",
"a c #00ff00",
". c #ffffff",
"....................",
"....................",
".......####.........",
".....###aa###.......",
"....##aaaaaa##......",
"...##aaa##aaa##.....",
"..##aa#####aaa#.....",
"..#aa##aaa##aa##....",
".##aa#aaaaa#aaa#....",
".#aaa#a##a##aa##....",
".#aaa#aa###aaa#..###",
".##aa##aaaaa###.##..",
"..#aaa###aa######.#.",
"..##aaaa####aa######",
"...##aaaaaaaaaa#####",
"....##aaaaaaa##.##..",
".....############...",
"......#########.....",
"....................",
"...................."};
