/* XPM */
static char *snake3[]={
"20 20 4 1",
"# c #000000",
"a c #00ff00",
"b c #ff0000",
". c #ffffff",
"........#######.....",
"......##aaaaaaa#....",
".....#aaa.aa.aaa#...",
"....#aaa.#..#.aaa#..",
"....#aaa.#..#.aaa#..",
"...#aaaaa.aa.aaaaa#.",
"..#aaaaaaaaaaaaaaa#.",
".#aaaaaaaaaaaaaaaa#.",
".#aaaaaaaaaaaaaaaa#.",
".#aaaaaaaaaaaaaaaa#.",
".#aaaaaaaaaa###aaa#.",
"..#aaaaaa####aaaaa#.",
"...######bbb#aaaa#..",
"...#bbbbbbb#aaaaa#..",
"....#b#bbb#a##aa#...",
".....#######aaaa#...",
"....##....#aaaa#....",
"...##.....#aaa#.....",
"..##.....#aaaa#.....",
".#.#....#aaaa#......"};
