/* XPM */
static char *snoopy[]={
"20 20 4 1",
"a c #000000",
"# c #0000ff",
"b c #ff0000",
". c #ffffff",
".########.######....",
"##.###.######.##....",
"####.######.#####...",
"#.######.######.##..",
"#####a####.##.######",
"##.#...#########.##.",
"####...####..#######",
"##a#...###....####.#",
".##a...##.....#..###",
"##a.a.a#......#..###",
"##a....a.aaa.....###",
"##.aa..a....a....###",
"#aaaaaaaaa..aaaaaaa#",
"#bbaaabbbbaabbbbbbb#",
"#baaaabbbbbbbbbbbbb#",
"#baaaabbbbbbbbbbbbb#",
"aaaaaaaaaaaaaaaaaaaa",
"bbaaaabbbbbbbbbbbbbb",
"bbbaabbbbbbbbbbbbbbb",
"bbbbbbbbbbbbbbbbbbbb"};
