/* XPM */
static char *sound[]={
"20 20 4 1",
"a c #000000",
"b c #0000ff",
"# c #ff0000",
". c #ffffff",
"............###.....",
"...........##.......",
"........a.##..bb....",
".......aa....bbb....",
"......aaa...bb.b....",
".....aa.a...b..b....",
".aaaaa..a...b.bb....",
".a......a..bb.bb....",
".a......a..bb.......",
".a......a......#....",
".a......a.aaaa.#....",
".a......a......#....",
".a......a.....##....",
".aaaaa..a.....##....",
".....aa.a........aa.",
"......aaa.bbb....aa.",
".......aa...bb...a..",
"........a....bb..a..",
"..............bb.a..",
"...............bbb.."};
