/* XPM */
static char *tape[]={
"20 20 3 1",
"# c #000000",
"a c #00ff00",
". c #ffffff",
"....................",
"....................",
"...########.........",
"..#aaaaaaaa#........",
".#aa......aa#.......",
".#a.######.a##......",
"#aa########.a#......",
"aa.#########a#......",
"a.####..####a#......",
"a.###....##########.",
"a####....####.aaaa##",
"aa####..####.#######",
"#a.########.#aaaaaaa",
"#aa.#######.aaaaaaaa",
"#aa.######..aaaaaaa#",
".#aaa.....aaaaaaaa#.",
"..#aaaaaaaaaaaaaa#..",
"...##############...",
"....................",
"...................."};
