/* XPM */
static char *tetris[]={
"20 20 4 1",
"b c #0000ff",
"a c #00ff00",
"# c #ff0000",
". c #ffffff",
"....................",
"....................",
"..........###.......",
"..........###.......",
"..........###.......",
".aaaaaa######bbbbbb.",
".aaaaaa######bbbbbb.",
".aaaaaa######bbbbbb.",
".aaabbb###aaabbbbbb.",
".aaabbb###aaabbbbbb.",
".aaabbb###aaabbbbbb.",
".aaabbbbbbaaa###....",
".aaabbbbbbaaa###....",
".aaabbbbbbaaa###....",
"....###bbbaaa###....",
"....###bbbaaa###....",
"....###bbbaaa###....",
".#########aaa######.",
".#########aaa######.",
".#########aaa######."};
