/* XPM */
static char *xmas_tree[]={
"20 20 4 1",
"b c #000000",
"# c #00ff00",
"a c #ff0000",
". c #ffffff",
".........#..........",
".........#..........",
"........###.........",
".......#####........",
"........###.........",
".......#aaa#........",
"......#######.......",
".......#####........",
"......#a###a#.......",
".....###aaa###......",
"......#######.......",
".....#########......",
"...##a#######a##....",
"....##aa###aa##.....",
"...#####aaa#####....",
".#################..",
"....###########.....",
"......bbbbbbb.......",
".......bbbbb........",
"...................."};
