#define aladins_lamp_width 16
#define aladins_lamp_height 16
static unsigned char aladins_lamp_bits[] = {
   0x1f, 0xff, 0x07, 0xf0, 0x01, 0xc0, 0xc1, 0xf6, 0xfd, 0x9f, 0xff, 0x6f,
   0x7d, 0x6e, 0x1d, 0x70, 0x5b, 0x75, 0x43, 0x65, 0x0f, 0x90, 0x1f, 0xf8,
   0x7f, 0xfe, 0x1f, 0xf8, 0x87, 0xe1, 0xff, 0xff};
