#define binoculars_width 16
#define binoculars_height 16
static unsigned char binoculars_bits[] = {
   0x00, 0x00, 0x7e, 0x3f, 0x72, 0x39, 0x7a, 0x3d, 0x7a, 0x39, 0x76, 0x3f,
   0x7a, 0x3d, 0xfe, 0x39, 0xf2, 0x39, 0xfa, 0x3f, 0xfa, 0x3d, 0x74, 0x1b,
   0x7c, 0x1f, 0x38, 0x0e, 0x7c, 0x1f, 0x00, 0x00};
