#define bomb_width 16
#define bomb_height 16
static unsigned char bomb_bits[] = {
   0x00, 0x2a, 0x00, 0x14, 0x00, 0x6b, 0x00, 0x14, 0x00, 0x2a, 0x00, 0x20,
   0xf0, 0x21, 0xf8, 0x13, 0xfc, 0x0f, 0xec, 0x07, 0xec, 0x07, 0xcc, 0x07,
   0x1c, 0x07, 0xf8, 0x03, 0xf0, 0x01, 0x00, 0x00};
