#define chess3_width 16
#define chess3_height 16
static unsigned char chess3_bits[] = {
   0xff, 0xff, 0x41, 0x80, 0xc1, 0x80, 0xc1, 0x81, 0xa1, 0x87, 0xf1, 0x8f,
   0xf9, 0x9f, 0xfd, 0xbf, 0x1f, 0xbf, 0x89, 0xbe, 0x85, 0xff, 0xc1, 0xff,
   0xe1, 0xdf, 0xe1, 0xff, 0xf1, 0xff, 0xff, 0xff};
