#define clock2_width 16
#define clock2_height 16
static char clock2_bits[] = {
  0xff, 0xff, 0xff, 0xff, 0x1f, 0xfc, 0x87, 0xf0, 0x87, 0xf0, 0x83, 0xe0, 
  0x83, 0xe0, 0x83, 0xe3, 0x03, 0xe0, 0x03, 0xe0, 0x07, 0xf0, 0x07, 0xf0, 
  0x1f, 0xfc, 0xff, 0xff, 0x07, 0xf0, 0x03, 0xe0, };
