#define clock_width 16
#define clock_height 16
static unsigned char clock_bits[] = {
   0xc0, 0x03, 0x2c, 0x04, 0xec, 0x07, 0xc8, 0x03, 0xe8, 0x1f, 0x38, 0x3c,
   0x0c, 0x3e, 0x04, 0x7b, 0x86, 0x71, 0xc2, 0x70, 0xc2, 0x70, 0x86, 0x71,
   0x04, 0x79, 0x0c, 0x38, 0x3e, 0x7e, 0xf6, 0x6f};
