#define copyright_width 16
#define copyright_height 16
static unsigned char copyright_bits[] = {
   0x3f, 0xfe, 0xcf, 0xf9, 0xf3, 0xe7, 0x1b, 0xee, 0xcd, 0xd9, 0xe5, 0xd1,
   0xe6, 0xbf, 0xe6, 0xbf, 0xe6, 0xbf, 0xe5, 0xd1, 0xcd, 0xd9, 0x1b, 0xee,
   0xf3, 0xe7, 0xcf, 0xf9, 0x3f, 0xfe, 0xff, 0xff};
