#define ghost_width 16
#define ghost_height 16
static char ghost_bits[] = {
  0xff, 0xff, 0xff, 0xf3, 0xf1, 0xe1, 0xf1, 0xe4, 0x61, 0xf0, 0x03, 0x18, 
  0x07, 0x00, 0x0f, 0x80, 0x0f, 0xc0, 0x0f, 0xf0, 0x07, 0xfc, 0x03, 0xf8, 
  0x01, 0xf8, 0x01, 0xf0, 0x3f, 0xf0, 0xff, 0xff, };
