#define ghost_right_width 16
#define ghost_right_height 16
static char ghost_right_bits[] = {
  0xff, 0xff, 0x0f, 0xf8, 0x03, 0xe0, 0x3b, 0xee, 0x45, 0xd1, 0x75, 0xdd, 
  0x75, 0xdd, 0x75, 0xdd, 0x45, 0xd1, 0x39, 0xce, 0x01, 0xc0, 0x01, 0xc0, 
  0x11, 0xc4, 0x39, 0xce, 0x7d, 0xdf, 0xff, 0xff, };
