#define gumby_width 16
#define gumby_height 16
static char gumby_bits[] = {
  0x03, 0xff, 0x07, 0xfe, 0x0c, 0xfc, 0x48, 0xf9, 0x0c, 0xf8, 0xcc, 0xf9, 
  0x00, 0xc0, 0x03, 0x80, 0x0f, 0x98, 0x0f, 0x98, 0x8f, 0x88, 0x8f, 0x98, 
  0x8f, 0xf8, 0x87, 0xf0, 0x83, 0xe0, 0x83, 0xe0, };
