#define hourglass_width 16
#define hourglass_height 16
static unsigned char hourglass_bits[] = {
   0xfe, 0x7f, 0x02, 0x40, 0x0c, 0x30, 0x58, 0x1c, 0xf0, 0x0f, 0xe0, 0x07,
   0xc0, 0x03, 0x80, 0x01, 0xc0, 0x03, 0x60, 0x06, 0xb0, 0x0c, 0x18, 0x18,
   0x8c, 0x30, 0xc6, 0x63, 0xe2, 0x47, 0xfe, 0x7f};
