#define mail_width 16
#define mail_height 16
static unsigned char mail_bits[] = {
   0xfc, 0x3f, 0x0c, 0x30, 0xfe, 0x7f, 0x06, 0x60, 0xff, 0xff, 0x03, 0xc0,
   0x07, 0xe0, 0x0d, 0xb0, 0x19, 0x98, 0x31, 0x8c, 0x61, 0x86, 0xc1, 0x83,
   0x81, 0x81, 0xff, 0xff, 0x00, 0x00, 0x00, 0x00};
