#define moon_width 16
#define moon_height 16
static char moon_bits[] = {
  0xff, 0x07, 0x1f, 0x1c, 0x87, 0x3f, 0xd3, 0x7f, 0xd3, 0x67, 0xc1, 0xef, 
  0xc1, 0xff, 0x01, 0xff, 0x21, 0xfc, 0xe5, 0xff, 0xf9, 0xff, 0xe3, 0x7f, 
  0x83, 0x7f, 0x07, 0x37, 0x1f, 0x18, 0xff, 0x07, };
