#define mouse_width 16
#define mouse_height 16
static char mouse_bits[] = {
  0xff, 0xff, 0xff, 0xff, 0x3f, 0xf8, 0x17, 0xf0, 0x03, 0xf0, 0x05, 0x80, 
  0x00, 0x70, 0xdf, 0x7b, 0xff, 0xbf, 0xff, 0xc0, 0x7f, 0xff, 0xff, 0xfe, 
  0xff, 0xfd, 0xff, 0xfe, 0xff, 0xff, 0xff, 0xff, };
