#define pirate_width 16
#define pirate_height 16
static unsigned char pirate_bits[] = {
   0xc0, 0x03, 0xe0, 0x07, 0xf0, 0x0f, 0xb0, 0x0d, 0xb0, 0x0d, 0xf0, 0x0f,
   0xe0, 0x07, 0xc0, 0x03, 0x42, 0x42, 0xc7, 0xe3, 0x9e, 0x79, 0x78, 0x1e,
   0xc0, 0x03, 0x70, 0x0e, 0x1e, 0x78, 0x07, 0xe0};
