#define skull_width 16
#define skull_height 16
static char skull_bits[] = {
  0xff, 0xff, 0xff, 0xff, 0xff, 0xff, 0xfc, 0x3f, 0x18, 0x18, 0x03, 0xc0, 
  0x0f, 0xf0, 0x4f, 0xf2, 0x1f, 0xf8, 0x9f, 0xf9, 0x13, 0xc8, 0xd8, 0x1b, 
  0x3c, 0x3c, 0xff, 0xff, 0xff, 0xff, 0xff, 0xff, };
