#define snake_width 16
#define snake_height 16
static char snake_bits[] = {
  0xff, 0xff, 0x0f, 0xff, 0x27, 0xfe, 0x02, 0xfc, 0xfd, 0xfc, 0x7f, 0xfe, 
  0x1f, 0xff, 0x8f, 0xdf, 0xe7, 0xbf, 0xe7, 0xb0, 0x73, 0x80, 0x33, 0xce, 
  0x13, 0xff, 0x83, 0xff, 0xc7, 0xff, 0xff, 0xff, };
