#define snake2_width 16
#define snake2_height 16
static unsigned char snake2_bits[] = {
   0x80, 0x1b, 0xc0, 0x26, 0x40, 0x2d, 0x40, 0x2d, 0xc0, 0x14, 0x80, 0x1f,
   0x06, 0x7f, 0x63, 0xfe, 0xf3, 0xdc, 0xf3, 0x39, 0xbb, 0x39, 0xbb, 0x39,
   0xbf, 0x3b, 0xbf, 0x3f, 0x9e, 0x1f, 0x1e, 0x0f};
