#define telephone_width 16
#define telephone_height 16
static unsigned char telephone_bits[] = {
   0xc0, 0x03, 0xe0, 0x07, 0xf0, 0x07, 0xf8, 0x03, 0xbc, 0x01, 0x1e, 0x00,
   0x4f, 0x04, 0xdf, 0x0f, 0xaf, 0x1a, 0x57, 0x35, 0x9a, 0x32, 0xf9, 0x7f,
   0xfd, 0xbf, 0xfa, 0xbf, 0xf0, 0x9f, 0x20, 0x48};
