#define trashcan_width 16
#define trashcan_height 16
static unsigned char trashcan_bits[] = {
   0xc0, 0x03, 0x7c, 0x3e, 0xcc, 0x3f, 0x08, 0x1f, 0xc8, 0x1f, 0x88, 0x1f,
   0x48, 0x1f, 0x88, 0x1f, 0xc8, 0x1e, 0x08, 0x1f, 0x88, 0x1f, 0xc8, 0x1f,
   0x48, 0x1f, 0x88, 0x1f, 0x88, 0x1f, 0xf8, 0x1f};
